<mxfile host="app.diagrams.net" agent="Mozilla/5.0 (Windows NT 10.0; Win64; x64) AppleWebKit/537.36 (KHTML, like Gecko) Chrome/135.0.0.0 Safari/537.36" version="26.2.13">
  <diagram name="Page-1" id="xV8frclpolF6YQwAYqIy">
    <mxGraphModel dx="3101" dy="2520" grid="1" gridSize="10" guides="1" tooltips="1" connect="1" arrows="1" fold="1" page="1" pageScale="1" pageWidth="850" pageHeight="1100" math="0" shadow="0">
      <root>
        <mxCell id="0" />
        <mxCell id="1" parent="0" />
        <mxCell id="yvigqvCfVOGot-HgjFOz-40" style="edgeStyle=orthogonalEdgeStyle;rounded=0;orthogonalLoop=1;jettySize=auto;html=1;" parent="1" source="yvigqvCfVOGot-HgjFOz-39" edge="1">
          <mxGeometry relative="1" as="geometry">
            <mxPoint x="240" y="750" as="targetPoint" />
          </mxGeometry>
        </mxCell>
        <mxCell id="yvigqvCfVOGot-HgjFOz-39" value="" style="rounded=0;whiteSpace=wrap;html=1;fillColor=default;fontColor=#333333;strokeColor=#666666;" parent="1" vertex="1">
          <mxGeometry x="-10" y="650" width="90" height="200" as="geometry" />
        </mxCell>
        <mxCell id="yvigqvCfVOGot-HgjFOz-1" value="" style="shape=image;verticalLabelPosition=bottom;labelBackgroundColor=default;verticalAlign=top;aspect=fixed;imageAspect=0;image=data:image/png,iVBORw0KGgoAAAANSUhEUgAAAkEAAAJYCAYAAABl3TL+AAAAAXNSR0IArs4c6QAAAARnQU1BAACxjwv8YQUAAAAJcEhZcwAAFiUAABYlAUlSJPAAAMdUSURBVHhe7N13nNTU3sfxz0kybRu9qyiIiILYr3rtDTvoxY7CfVBUbNfeCypXxd4VRbFerIgKgr2L2LsoIKiA1IVt05Kc548UZocFlr7L/N68DjObSWYyLfnOyck5SmutEUIIIYQoMEb+BCGEEEKIQiAhSAghhBAFSUKQEEIIIQqShCAhhBBCFCQJQUIIIYQoSBKChBBCCFGQJAQJIYQQoiBJCBJCCCFEQZIQJIQQQoiCJCFICCGEEAVJQpAQQgghCpKEICGEEEIUJAlBQgghhChIamVGkXcch1QqxYoWUUqhlEJrHV6KpeW+Ro7jhK+baZrE4/H82YUQQgixBtU7BNm2jWVZ+ZPFWuS6LoZhhEFJCCGEEGvOckNQ/k540qRJ3H///RiGdxTNdV2AsKYn/1Isn9Ya0zTJZrMkEgls22bRokXstNNOXHrppbVCZ/BeCCGEEGLNWG4IchwH0zTDHfDAgQP58ccfGTJkCLNnz0YphWEYtcJQcIhnOXcrfMFhMNM0sW2b5s2b89NPPzFy5EjGjx/P5ptvTjqdJhaLSQgSQggh1rB6haCamhqKiooYPHgwW2+9NWeeeWb+rGINyWQyHH300VxzzTVsv/324WsvIUgIIYRYs+oVglKpFPF4nEGDBtGsWTNuvvlmKisrMQwjrClCaoJWWlATBJBKpWjdujV//PEH/fr14/7776d79+4kk0kSiYSEICGEEGINq1cICmojBg4cSPv27bn++uulse4a4rouSilqamooLi5m/vz5HH300dx999306NFDQpAQQgixlqz0XjXITEHtz+rKz2CrWou0Kss0BMF6BwEnOE1eCCGEEGvXSoegQH1CRyqVCvsVchyHdDpNJpOpFaCCQ0LBfLkBIJPJhNez2SzpdJpkMkk2mw0fP7hUSi11tpoQQgghxLKscgha1qGZIIBkMhni8TjxeBztnwpumibRaHSpM8qCzgFz2xM5jkM0Gg3vNxKJEIvFSCQSRCKROmtLgml13SaEEEIIkavuJFMPuYetcmtegpodpRTDhg2jV69ezJw5EwDLshg8eDDXXnsthmGQyWRQSnHnnXdywAEHsGDBApR/2r1pmvTu3Ztnn30WgLvvvpvtttuODh06cNxxx/Htt9+Gj5f72EIIIYQQ9bHKIShfbhAyTZMFCxbw1Vdf8cYbb/Dee++Ft1VXV/Paa69h23ZY0/Pxxx/z1ltv8dlnn4XzzZw5k4kTJ9KlSxfuvfde7rnnHi666CKGDx+OaZocddRRYRASQgghhFhZayQE5dbAZLNZAF588UVKS0sZMGAAEydOZNasWQDsu+++AHz//fcAfPLJJ2SzWfbaay/ee+89Fi5cCMALL7zAP//5T7bffntef/11zjjjDE444QQOPfRQRowYwT777MNPP/0Eftuj4FTzNdVgWwghhBAbtjUSgvIbJCeTST7//HMSiQTnnnsuH3/8MVOnTgVg9913Z5NNNuHzzz8H4O2336Zdu3YMGDCAr7/+mhkzZgDw3nvvseWWWwJQWlrKbbfdxvvvv09lZSXxeJxHHnmE448/HoB4PI5pmrCctkpCCCGEELnWWGIITu2ORCLMmTOH6dOn06NHD7bddluqqqr46quvAOjcuTNNmzblgw8+AGDKlCl06dKFAQMGkM1mmTZtGgBTp04Na40uuugidthhB0477TT22Wcfevfuzddff002m8W2bTkbTAghhBArbY2FINd1wzAyceJEampqwpqcgw8+mK+++oqff/4ZgI033pg5c+ZQWVnJr7/+SlFREQA1NTXMnj2bOXPmUFpaSpcuXQDYYYcdeOWVVxg1ahQDBw5k9uzZHHHEEUycOBHLsmodjpNAJIQQQoj6WCMhKDjlPQgjEyZM4KuvvqJv37507NiR4cOH8/zzz4e1PHvvvTfRaJSnn36arl270rFjRwB69uzJ77//zkMPPURZWRkdOnQglUrxwgsvUFVVxbbbbssZZ5zBpEmT6Nq1K7fddhtA2P9Q7hlrQgghhBDLs0ZCUNCvD8Bff/3Fhx9+yGOPPcY333zDRx99RDqdZr/99uOHH34AYJtttqG0tJT777+frbfemm7dugHQu3dvJk+ezN13382ee+6JZVnMmDGDW2+9lVdffRX8s8sAmjVrxuLFi8E/Gy04HCeEEEIIUR9rLARZlgXAM888g9aagw46iHbt2rHxxhsDcMABB/Dkk0/y22+/0aJFC9q1a8f333/PZpttxqabbgrAYYcdxsyZM1mwYAHHH388juPQtWtXBg0axI033shtt93G008/zVVXXcWvv/7KwIEDw3XIHXZCCCGEEGJF1kgIwq+NAUgkEpx11lm0atUKrTU1NTUAHHrooWy77bbMmTMHgD322INDDz2UbbbZBvwzyioqKjjhhBO44YYbwvAE8H//939cf/31jB49mmHDhvHzzz9z9913069fP/ADkGmaaBnUVQghhBD1tNKjyLdr144bbrgBx3EwDAPlD3WRHz6CacHo58GZXIlEAoCqqipKSkrAbxBdVFSEbdthjRJ+Y2vDMMKxxYLDXqZp1pqvMQtex1QqRSKRYMGCBRx99NHcddddMoq8EEIIsRat8b1qkKmCcGQYBlprIpFIGIAASkpKwnZERUVFOI6DZVm4rhtO11qH4ae4uJhoNEosFsOyrDBUAdi2XWsZIYQQQogVWaMhKL9GKLieX0sUCA6h4R/SCkJTMD3odygINrk1IZFIJKwNCmqkgmWEEEIIIVZkjYagVQkguTVH+csHgSh/ej7DMORQkRBCCCFWynpPDisKOEIIIYQQa8N6D0FCCCGEEOuDhCAhhBBCFCQJQUIIIYQoSBKChBBCCFGQJAQJIYQQoiBJCBJCCCFEQZIQJIQQQoiCJCFICCGEEAVJQpAQQgghCpKEICGEEEIUJAlBQgghhChIEoKEEEIIUZAkBAkhhBCiIEkIEkIIIURBkhAkhBBCiIIkIUgIIYQQBUlCkFgrtNZorfMnCyGEEA2GhCCxxuSGHqUUSqlatwshRGPhum7+JLEBUno5P9cdx8E0TWpqaigqKmLgwIG0a9eOG264AcdxMAwDpRRaa9nhraLgdUylUiQSCRYsWMDRRx/NXXfdRY8ePUgmkyQSCVzXxTAafma1bZt0Oh0+r7qs6udlZZcLPpv511dkXS/HKjy3wMout6rruKrLsQrrGFjZ5VZ1HVd1OVZhHQMru1ywXlprDMOo9zqu6nKswjoG1tVyq/rccpfLfbxgeaUUlmURjUaXuQ0TGw4JQevZhhCCgvdfPgdCiA1JsN2VbduGS0LQerYhhCD8jYVt27z77rs8+uijRKNRyHl+QgjRkAX7MaUUnTp14tprr0UphW3bWJYl+7kNlISg9WxDCUGBvn37Ul5eTr9+/eSYuhCiQVNKhfu5TCZD27Zt+fHHH7nvvvuYNGkSG220ETU1NSQSifCwm9iwSAhazxpzCKrrMNjJJ5/MHnvswamnnpo/uxBCNHgzZsxg8ODB3HbbbWy55ZYkk0ni8biEoA2UhKD1bEMLQSeccAI9evTgwgsvJJ1Oh9OD+YQQoqEwDCPczyWTSZo3b87UqVPp168fTz/9NJ06dSKVShGPxxvkNlisPglB69mGFoKOO+44/vGPf3DeeefJ50II0eAF26l0Ok0sFmPatGmcfPLJPPbYY3Tp0kVC0AZO3lGx2nJztNY6bAsUTF9OzhZCiPVqWdunZU0XGxYJQWKNUivZSaJt22Sz2VrTstksjuPUmlbXfACZTCa87jgOmUyGdDpd57xCCLEs+T/mVmY7JhovCUFincvd2FiWRSQSqXV7JBLBNM0wyGitw/nya5eCU/Ft28Y0TaLRKLFYbKn7FEKI+tB+R4pSE1QYJASJdSY4TJb7C2vw4MH06dOHqqoq8Gt2+vTpw/Dhw4lEImSzWZRSnH322Rx88MEopaiqqkIpRXl5OQcffDCff/45lmUxZMgQdthhBzp27Mgpp5zC77//Hj6OEEIIkU9CkFhn8quXZ8yYwQ8//MCYMWOYOHEi+DU7juPwySefgF8rBPDJJ5/w5ptv8tNPP4XTvv/+e3766SfatGnDkCFDeOmllzjnnHO4//77ATjkkEPCICR9FgkhhMgnIUisM0H1ctCOZ/jw4fTs2ZNBgwYxbty48PZevXoxc+ZMfv31VwBGjRpF165dOfzwwxk9ejSxWAyAsWPHst9++9GqVSveeecdrrjiCvr378+hhx7K3XffzY477si0adOgjgAmhBBCSAgS64zhj8ETtOOZNGkSG2+8MSeccALjx49n+vTpAPTs2ZNMJsMXX3wBwHvvvUfXrl3ZZ599ePnll5k3bx4An3/+Od26dSORSJDNZhk6dChffPEFqVSKoqIinnzySfbbbz+QECSEEKIOEoLEWqeUCg9HBY2dv//+e8rLy9lvv/3Ya6+9cF2XSZMmAbDTTjthmiY//fRTOO8WW2xBv379qKmpYeHChaRSKebPn8/ee+8NwE033cSWW27JwQcfzN57780pp5zCt99+G66DNHIUQgiRT0KQWOt0TnfzQS3QhAkTiEajtG3bFoDdd9+dcePGsXDhQuLxOO3bt2fGjBlUV1eTTCZp1qwZzZs3p7KykmnTpjF9+nRKSkrYaqutANhzzz159tlnGTNmDEceeSRffPEFffv25csvv8RxHBzHWSftgnLPLFmZIoQQYt2TECTWuvzOEwHeffddJk+ezI477sjGG2/MiBEjeP/995k7dy4ABxxwAABDhw7l4IMPpmXLlgBstdVWfPbZZ7z00ks0a9aM4uJipk6dyqhRo6iurma33Xbjkksu4ZtvvqFZs2bccccdmKZZK2xI6BBCCIGEILEu2bYN/pleP/30E88//zzffvst77//PgsWLKBLly588803AOy4445UVVUxYcIEOnToQOfOnQHo378/v/zyCyNHjmT33XcHYO7cudx22218+OGHkBNy2rZtK93cCyGEWCbZQ4i1LqiJCU5tf+KJJygrK2PfffeldevWbLbZZjRv3pwddtiBu+++m/LycrbeemuSySRfffUV2223Hc2aNcN1XY455hi+/fZbfvvtN/71r38BsOuuu7LPPvtw6aWXcvPNNzN8+HAuvPBCJk+eTL9+/bBtu1ZP1vVpJJ1/uKq+RQghROMhIUisE7ntcdq1a8cll1wCftioqakBoE+fPvzzn/8Mz/7q27cvvXr1YpNNNgnnNU2Tvn37cvrpp9OlS5fwPocNG8Yll1zCBx98wOOPP04ymeTJJ5/kwAMPxLIsDMMIz04TQohlyR/6R7YZGzYZRX492xBGkc9dt+OOO46dd96Z888/P5weXOZ/TlzXxbZtIpEIjuNgWVZ4WzabrTX0RbBs8JnMlc1msSyrzs9g/v00NMHXr651F0KsfcH2KRgtfurUqZx00kmMHDmSLbbYIpyev/0SG4aGtVcVG6T8w1DpdBrbtjEMg2g0ilIKy7LQWpPNZtH+oTPHcUilUrU2PqZpkkqlwg4Xg3mDgJRMJqmuriaVSkFOj9MNVf6vTiHE+pH/A01+oBQGCUFinYvFYrVqfQJKqTDQBIe+4vF4+HcgHo+Hp9rnbqBM0ySRSFBcXEw8Hg+nCyHEqlrOwRKxAZAQJBqk/F9f+X8LIYQQq0tCkBBCCCEKkoQgIYQQQhQkCUFCCCGEKEgSgoQQQghRkCQECSGEEKIgSQgSQgghREGSECSEEEKIgiQhSAghhBAFSUKQEEIIIQqShCAhhBBCFCQJQUIIIYQoSBKChBBCCFGQJAQJIYQQoiBJCBJCCCFEQZIQJIQQQoiCJCFICCGEEAVJQpAQQgghCpKEICGEEEIUJAlBQgghhChIEoKEEEIIUZAkBAkhhBCiIEkIEkIIIURBkhAkhBBCiIIkIUgIIYQQBUlCkBBCCCEKkoQgIYQQQhQkCUFCCCGEKEgSgoQQQghRkCQECSGEEKIgSQgSQgghREGSECSEEEKIgiQhSAghhBAFSUKQEEIIIQqShCAhhBBCFCQJQUIIIYQoSBKChBBCCFGQJAQJIYQQoiBJCBJCCCFEQZIQJIQQQoiCJCFICCGEEAVJQpAQQgghCpKEICGEEEIUJAlBQgghhChIEoKEEEIIUZAkBAkhhBCiIEkIEkIIIURBkhAkhBBCiIIkIUgIIYQQBUlCkBBCCCEKkoQgIYQQQhQkCUFCCCGEKEgSgoQQQghRkCQECSGEEKIgSQgSQgghREGSECSEEEKIgiQhSAghhBAFSUKQEEIIIQqShCAhhBBCFCQJQUIIIYQoSBKChBBCCFGQJAQJIYQQoiBJCBJCCCFEQZIQJIQQQoiCJCFICCGEEAVJQpAQQgghCpKEICGEEEIUJAlBQgghhChIEoKEEEIIUZAkBAkhhBCiIEkIEkIIIURBkhAkhBBCiIIkIUgIIYQQBUlCkBBCCCEKkoQgIYQQQhQkCUFCCCGEKEgSgoQQQghRkCQECSGEEKIgSQgSQgghREGSECSEEEKIgiQhSAghhBAFSUKQEEIIIQqShCAhhBBCFCQJQUIIIYQoSBKChBBCCFGQJAQJIYQQoiBJCBJCCCFEQZIQJIQQQoiCJCFICCGEEAVJQpAQQgghCpKEICGEEEIUJAlBQgghhChIEoKEEEIIUZAkBAkhhBCiIEkIEkIIIURBkhAkhBBCiIIkIUgIIYQQBUlCkBBCCCEKkoQgIYQQQhQkCUFCCCGEKEgSgoQQQghRkCQECSGEEKIgSQgSQgghREGSECSEEEKIgiQhSAghhBAFSUKQEEIIIQqShCAhhBBCFCQJQUIIIYQoSBKChBBCCFGQJAQJIYQQoiBJCBJCCCFEQZIQJIQQQoiCJCFICCGEEAVJQpAQQgghCpKEICGEEEIUJAlBQgghhChIEoKEEEIIUZAkBAkhhBCiIEkIEkIIIURBkhAkhBBCiIIkIUisUVprtNb5k4UQQogGR0KQWG1KqVrXc/8WQgghGioJQWK1SegRQgjRGEkIEqtMwo8QQojGTEKQWKO01hiG97EKLiUsCSEaqmA7FYlElpomNnxKL6cVq+M4mKZJTU0NRUVFDBw4kHbt2nHDDTfgOA6GYaCUQmstO7pVFLyOqVSKRCLBggULOProo7nrrrvo0aMHyWSSRCKB67qN4ot59NFHs8MOO3DppZdSWVmJYRhhMAo+J8FHLvezs6Jp+AFrefPUZ1q+uuapa9ry1DV/XdPy1TXP6kzLV9c8dU1bnrrmr2tavrrmWZ1p+eqap65py1PX/HVNy1fXPCszDfksr3BavrrmqWva8uTPr7XGNM1wP1ddXU3Lli2ZMmUKxx57LM8++yybb755uA0OlhUbFglB69mGEIJy3/+TTjqJvffem4EDB+bPJoQQDd4ff/zB6aefzs0330yPHj1IpVLE43HZz22gJAStZxtSCHIch1NOOYUXXniBvfbaC9d16/ULTQgh1odgu2WaJrZtU1ZWxpQpU/j999+ZMWMGTZs2lZqgDZyEoPVsQwhB5ASh2bNn891332HbdljlLJ8NIURjYRgGrVu3Zvvtt691GF9smCQErWcbQgjKrQkyTTP/ZiGEaJRk37bhkxC0nm0IISiXbdtks1n5XAghGhWdcwIHQDwez59FbIAkBK1nG1oIEkIIIRqL5e5Vg2AjAUcIIYQQG5rlhqCgkii3smg5FUdCCCGEEI3GckNQwHEc8FvNS63Q2hW8vhI2hRBCiLVruSEo2CFblgV+CArapaic0cIlGK26oE2V67rh3/J6CiGEEGvfckNQPqWUNM4VQgghxAZBEo0QQgghClK9QlDuoRppq7J2yeEwIYQQYt2oVwgSQgghhNjQSAgSQgghREGSECSEEEKIgrTSIUjaqwghhBBiQ7BSIUhrHTaMDhpLCyGEEEI0RvUKQbl9AwUhKPdMMTljTAghhBCNTb1CUF2HwFzXlfAjhBBCiEZruSEo/9BXbu1PbjAKDpNJKBJCCCFEY7HcEBQEHdM0QdoBrTW5gbKuWjchhBBCrHnLDUFi3ZAaNCGEEGLdqzMEBYe2gpqf3J308nbYUotRP3KWnRBCCLH+1RmCxPqjlKp1Np4QQggh1g7Z2wohhBCiIEkIEkIIIURBkhAkhBBCiIIkIUgIIYQQBUlCkBBCCCEKkoQgIYQQQhQkCUFCCCGEKEgSgoQQQghRkCQECSGEEKIgSQgSQgghREGSECSEEEKIgrTMEKSUCgdErWuQz+UNpCqEEEII0dAtFYJyRzgPLoMwlBt8ckNS7nUhhBBCiMZgqRC0IrnBRwghhBCisVrpECSEEEIIsSGQECSEEEKIgiQhSAghhBAFSUKQEEIIIQqShCAhhBBCFCQJQUIIIYQoSBKChBBCCFGQJAQJIYQQoiBJCBJCCCFEQZIQJIQQQoiCJCFICCGEEAVJQpAQQgghCpKEICGEEEIUJAlBQgghhChIEoKEEEIIUZAkBAkhhBCiIEkIEkIIIURBkhAkhBBCiIIkIUgIIYQQBUlCkBBCCCEKkoQgIYQQQhQkCUFCCCGEKEgSgoQQQghRkCQECSGEEKIgSQgSQgghREGSECSEEEKIgiQhSAghhBAFSUKQEEIIIQqShKCCpwHXK1rKKhdc/7UUQgjRWEgIEv4O3PFKuEOXUv/iv25aQpAQQjQmEoIKnEYBFpoIWkXAsEBJWbkS8S/l6ySEEI2JbLULnPbrgJJAuYaFwCIXKuoolS5UOVKqHKh0oMr1Litd73qNDU5QGSSVQkII0eAprWvX4Wut0VpjGAa2bWNZFslkkkQiwaBBg2jTpg3XX389juNgGAZKKbTWKKVy70YsR/CSK6WwbRvDMEgmkxQXF1NRUUHfvn259dZb2WabbcLX3nVdDGPNZlbt2tjKIqvg/CEP8cKEV8BUGLbGVAaudjEM0NpFoQGFvMv4Ccd7JTQKV5nULFqAqinnvddGs/3WW2Kn01ixGI7rYq7h900IIcSaISFoPWgoIQg3S8aIYAP/d8WjPDtmFJtuvy1xFcEyDVxcMLTX3kXpgq/dUEH8CT7rWlOTzmAmirErFjLzm0955/mn2X2brbDTSaxYQkKQEEI0YLJ1Fl6dhopBvBlutAkpI06VEaHSNFlsGCw2Iyw2oiw2l5RFRoRFRqTWtBWVRUaEcsNikbnyyy1Slrceddy+rBIutwrrWddzWxRcNyIsxGSxGaUiEqM6UYLbpDl2rAjXNL3XVBpJCyFEgychqIBpvAqeCGDYKchqTMdAuxrbyZJx02TcDGnXIe26tUpGazJak3aXLqlllIyGrFb+PC6pWsvVvv/c+8toyOAtt/R8yy4ZrckAae0t5z3m0vPllyXPbenbgvsJ7juLIuU4JG0bMxINv1JSLyqEEA2fhKCC5rXxsYCItiHj4KQd0BplgFYO2vDav2hMwETnFO/jo8LinWmmlvkvmE9h+CV3WSOvLLm/uubxHrt2Wfo+apfgcZc1b/79LasE82qtcBwNGESsKI7t4jpu/osshBCigTLyJ4jCEtRYKK1BmaBMXO31fqNRoA2UNjFcE+V6l4Y2MVwDU1uY2sRwFYZWmFphuArTVVg5l8H14DbT8YtreMsS3Kd/qQ0M7d2nckE5GuUqlDZBe/OoOoq37NIluN10TUzHfy51LK/85xgWbdQu7pLraMNfT8N7LTAxDUNqgIQQohGRECQAvBofpXGUwlE5NSda1QoChh90DK3QtoNyXEwNlgZsB+U4GFqD6003tA4LWqNdjdIKSxmgHbTroFzt36cXrgzXCxe4rvcB1Rpc7YUl18RwLQzXQuWVYHpuUa6F0t5107Gwcm/TFoTFq+lSBIEqeM5qSSHn0v9n6CDYeWFNOkwUQojGQ0JQgQt22Y7SYGgcA1zlHXpSfm3MkkNS2qsf0i4mmohpEo1YFMWjRAxFImIRtQzS6SQaB0O5aO1494uDFbOIxqO4rosVsTAtTaIoQnFRMWjlr0wQOrzHsSIGyjRwcoJSUCOEf4guLPk1Oysqfo2QxkQrC0crHBeUMnLqyJbQeKuZ+7fS+CHQO9AmhBCi8ZDtdqHzs4c2nLAmyFVem5fcWhBQ4J8abhgG2nXIplNULlrInNkzKV84j1l/zSBdVUXzkmIi2kVpB1NpXDtDzDSonDefuX/NxFImqWSSxYvm88eUX5n++zS0qzGU31LIMNBoLMvAyWbIZtJEIhGv7Y42wrZJaBPtlyAUBX/Xarvk3+YoE1sF7ZmW3K4w0a5BxIoRicRwNGjlhT6vZZIX/lDav5Zb26Mx/Bov5c/mTRVCCNHQSQgSAGhcUOCqJbv+3EbJXlpSoAxcNKZhsu1WW3PFxRdz5ZWXceVVl3HJRRdy8P77UWZGiGZdIoByXSytIZnigJ134ewBA4kpk5J4EYf1Opj//vdGBvQfQDQaDRoikbGzKNPEcWwsQ/GPbben08YdcbVGmyau8tbHMExMw0QpA8O/9O8ClOEFGaXC6VlT4URMtGmi/WmgUA5YDlSXV1BdUeU9tmJJc25dV73QEvmvFHk1RkIIIRomCUEFbfl76iAIaS8qhJ1iOlrj2ln2/8c/6L9Te9p0bEOz9i3YeefuXH7qYRx1UC+MdBILh5ipiTk20VSKw/fck5OO2ol0KoUViXDZKX3o2rEjU377DSsawfBThBGJgGkQjUXptPHG3H7BcZx05JFULZyL6aZQTg1uuhLDTaKzVURVhpiRxSBN1LSJmjbKTRIxsmg3ie1UY0YcIqZN1LAxVBqDFIaTJE6WqE5jZWs48fBDOfrgXmRqKkA7GErhOq7XOWI9qnaW/2oKIYRoaCQEiZXgBSIURBXEUmnKgetuuYEht17PpZddyoQPfqRf753o2KE1yeQi0tWLUDWVxLMZUuULWDgPKtPVlDUpowgY+cAjfPzRx1TV1Hj1UdrBVpqMY2PbDgtmz+GaIY8x9n9P0zJhkKCGIpKY2UWY2cUYmUVEsotJqCRxqom4lZBeiJVdjJEux03NJxJJotwKEk4VcbsCw1lMzEgSzy4mnllMzK3Cyixi126d2Hf7HtQs+Juo4WIoP/5Jb+hCCLFBkhAk6imoCtFopTG0Q7GCpoBbtZj0ogVUzZrJ9xM/JpUCw83Qa/+9+d8Tw3n5f48w9KrL2W6rLZkz82827bgRF190OqXA1ZeewnXXDSEaj+DggqHQysWyTOxMhkxlFf3/dTTbde5MNJvktuuv4srzzuSGS8/n1adv4bnH7uCYI3oxc+pPbNKqjJuvuYzLLziL66+6iHFP3cJj99zOzttsycKZv3NGv2O56IxTaVJssXjeXxy8y868/PjNbNllY/occSDH7tyanh3L+HTCo+y9x27eUCWWietqrz3UCmqDVnCzEEKsM3kjYollkBAk6im3NsTrTNE0vTOimmVcihfX0NKMsn3XbpTEoCQR4/CDelG1uJKrr7qemX/9QbvWcTq2b8u8WX9x89A7WAQ8+MBL3Hfv3dSkqknaabLaBuViKo2lFGRt2jQvoWkiQcKMUBpNsO2WG7Pwr1lcfM71pBamObzXvpREozSJxOjYtozu3Tbl0w8/5Owzr6VUWZxyzAk0sWK0Kiljk/btSSVrMFyXIm3Q1IJW7Vpz3/AHmfRLFVN/nMkhh5zC+++9jzK8s9KUobxT36VCSAghGiTbtmEVwp+EIFFPtT9YShksqqgkAdxw6TXc9d/buOPOu9ltjz144pEx7L3Lnmy5UQuuHnI9P8+eycPPjWL0Kx/QtBTsmiTNSkqJAbbjov3R6s2YhTa9jhtNFfTNrIkYEDEjVC2uolmZ4rmnx/HQPQ9SNWcRH7/9IS3KYPvtdiJdmaJ5Au6+ewTvvPc+v/7yK8OuG8p27aJss3kXKhaVE0tESdtplKlw7QwZGzAVDg44Xr9HylRgKq9FtN98WgghGhOtNclkkurqaqqqquos1dXV1NTUkEwmqampCa+vqATzpVKpei+TW1Z1uaT/2NXV1VRXV7Nw4UKy2SxAeOm6K7fNlhAkVoLXRgZtoLFQVhwXmDVnEVNnz+f9H35ixAujGTNmPJ026kLWgdkLK6kuLSHVpIxIWXMMBTEzirYdNF6fRHYmQ8QyiUQtTNPAxOsp2nVsXO2iDXAx0MoEBcXFTWha2py4maAoWgJAKusSMeK4DlQn02jDoqxZc0rKyigBSoriKAtUFJSlUFEFcRMs0DigHRzXBktBxMBR3nlm8gURQjQWWmts2/YO5RsGiUSC4uJiSkpK6izFxcUUFRWRSCQoKioKr6+oBPPF4/F6L5NbVnW5hP/YxcXFFBcX07x5cyKRCNlslkQigeM4XhcuK1EbpHTe3FprtNYYhoFt21iWRTKZJJFIMGjQINq0acP1118fPphSS84aEvUTvORKKWzbxjAMkskkxcXFVFRU0LdvX2699Va22Wab8LUPPtRrknYdHMPEBE684i7+99oHtNhuZwxcTNNB6yQKhatjfh88DoapcLVDSdbmqv4DOWz/Tdmx72D++PsPIq1aUIpFBzfOKScNYN8jdmLwZTfx+8I5WI7ixH0O48g++3LYyYPZZvvtuHvIqVx/5wu898UkahwHV0M0FsM0LeIRg2zNYmLpLP+7917ee/sT7nnsEV565VFefv49Xnh6FG3LmnHwEYdxRL9/ct7l9xKtynDXHedz7pX38N0P35NQJt26dOaB2y7klAtuoNfBB9O1Z3f6Dz6NqsUV/GvvA7nistMZ9sj/ePzhR3n78eeZNWceZ976X2Lt2qKIkMloLMvCdV1cIzhjToMG0zBIJ9OUFDWl2E7yxxfvMv7JB9lz2y2x0zVYsSIc18Vcw++bEELkq2sfcdpppzF58mRKSkpwHCfcX+cLgoNS3okgDXGfHqyT67qYponrupSXl9OvXz9OPfVULMsKs8vKrL+EoPVggwhBts3Fx/Xj2EO60uui/zJ1wWxiJUUYKZtoRYr2pc15+KHr+fWXcoYNG8aBB/bioAP3ZkGVzekXXsBmXTbn/hvP5tYHX+WZF57nvPMvZIvOm/O/Z5/j19+nYZiQrC4n7rr874H7eO/tT7j/0YcZ/cpjPP/sW7z20su0LWvGAQcfxKHH/pNLrroHc3GSoVddzKJKm1dfe5VZf/3FmWefSdJOMWjwIAYOPIWDDt2bF14ej5O1OWjv/ei2SYKr73yCZx5/klsvv5bd9/4nV9z7AN/M+APbjGKjMFzQSnt9EPmdKEoIEkI0JMF+WGuN67q89dZbHHvssTz66KOUlZWRTCbDH3T5+5LcfZLret2C1BWW1qf8dWvatCkTJkzg1Vdf5ZtvvsFxHLT2frSuTCaRELQeNN4Q5GKY3uGjuO1wau+jOOLIbTn2nGuZNm8WiZJiLBeiNkTSDscdcSS999+H1k3gt+k11FhgFCcYfNY5bNqpE7fech7Dh7/GqCef4cYb/sv+e23K0Ftf4IsfviOrsyyumE/TWIx7b7yF9997j1GvjuaRkcN58bmXGTfmVVqXNuWAXgdyZP9eXH35HUSrs1x3xcVMnT6LZi1a0LNzjC+mZ3j+5ZcY/8YbtGjRgtNPO519du/M4ir4bfJsSkpKeP31cTz+6EiOOPhgTji5P//YugmXPPw673zyKdowwdUoBQ5aQpAQokFzXRfHcXjxxRe58cYb+fbbb/Nn2WBMnDiRSy65hPfff79WCFqZ/aWEoPWgsYagsEtnpTFdl7hWKKVJY2Pj+qeRa0xlENEK09ZE8dr4pNwsNaaLsgxUxiYei2HEIpBxUVVpdtt5F04c0Jubbn+Yn6ZOwYyZOG6aYsuixDFI2hmqo4pYSRE6ncVJpimyorha48Ys0lXV9NioE9ddew7X3Pow7038mI07dmR++SISxSUYZoTqmiSO7dCkpJSoZZGsqSFiRTA1VFVVoSImsaIiHFeT1X7Nj9dNJDqnN20JQUKIhsp1XVzX5dVXX+WCCy7gu+++o6ioiJqaGiKRyHL3JcG+qaHVAgVyD4UVFRXxzjvvcPnllzNx4kRc10VrjWmaK5VJ6n4lhFgBxzCpNgxqlIXWUUw3huFGUW4MraNkiZKNxKmJxJhrO2SKS9BFpaS0gY7ESNouaRdSjktN1mGbnXbmg0mT+eG3KRjRKGYkRixRiqOiJDFxY8XYVpxFKZtqG+xInGplUmNYJB1FGosaM0JxERgtWlBlO1QYFmazltixYsqzmpQVw02UUI3JIluTiiSoVhGqjQiUNSMVL2aRVlTYDlmNN+RG0BhcCCEakeDQUSKRwDAM4vE4sVgsvKyrxONx4vE4Cb/xckMrwXrFYjEAolFvQO7VISFIrDx/YCytFC7gKgNtmGjlj8uFgasUGSCNRsVjJLM2dtbFNGLYmDhmhIwNWcNENynhiltv4s6HhxMpKcE1TDKOJpnRpFyDKsOiWitc18LQUbSK4hgxktrENqIk0y5JW/F3MsUdo7/iz7/n06zdpri2iZtVuLYibsVJWHEsZeH1bmSEY4rZGhzAUCaWMolGY94gruGPoYb5q0gIIfIFR2hyC/6Rh9zLFcm/j4ZS1jQJQWIV+IOp+oJDRd7hIu9v7R88C6YrZWBob2R6bZi4ysDRCgeDtKFo3qE9JS1akHZdXMPEwQBl4SiLjGGSNSzQJso10Vg42kAbEVxlYUYSlDRpzryKKh4a+QQz/phNUawEO+1gaBM364LjolxvzHhcDa5GOy64GheN63qjwStXox3vIJgQQjQ2QZOW3BJMz71szILDebnPb1VJCBKrTPmfPZ1XVxL8HcQIpYJI4c2ltEJheEFDe3+nUmkymSxKBTUwyxjJHuUtr70x3r0BTg1s20Gh2Kh9BxLxONlsFq01tp1Fa+8YudbeMeP8L04wSrw3HW/0eOkgWgghGrTVDUBICBKrJog5Ky5Ke2XJtNp3EQQOEwPTMPMCj0d5bbGXorR/2qT2Ag6uS7K6hkw64z228tpqL/XY4fU61jcIdzk1XUII0VisiWDQUOUfDltWA++Vsfr3IMRKWcNf0OAsAL+YlukFn9U4fqxrZzAhhGhUNvTDYYHVbRSNhCCxfixdA7NqJe8ua11q79BZrcaAyp8huBTryoa04d3QyXvV+CmlME3Tqyn3g0JwCnldZXnWRNBoyCQEiUbM//Jq/9BX7rSc60tqhPKTklhXlFJks1kqKiqWGrwxuMy9vrxBH6WsmRIMQllTU7PUeyUar+DssPzrq2pNHHJqyDbsZyeEWG+0330/gOM4RCIRysrKlhq8MbjMvb68QR+lrJkSDEJZVFS01PsmNgwqb/iL3NqfoGYod3rAtm201qRSKb777juSySRsoLVC0mP0ehC85Kqx9hi9AQvOY/M6SXTC5ys9Rq+64LM7YcIEzjnnHFq1ahV+9oPeXQPBdiTY2MoOec3Sfo+6wWCaixcvplmzZrz88su0atUq3Javje2NWHdc1+W1117jwgsv5PvvvycWi5FKpcLOBXNPMVc57SeD/XnwvXv//fc57bTTGDNmDN26dSOVShGPx8PHyd335+eA/L/zrej25QmW/eCDD7jgggv4/PPPw1C3sj1GSwhaD4KXfP2HIBvHsPwQdDf/e+19CUErGYIyyQzFiSYUOyn+/OIdXpcQBMvYwB177LHMmTOH2267LZynrnmDbVD+BlmsniDcKP/QZJMmTaiqquKUU07hxhtv5Igjjlir2xux7mitGTt2LBdeeCHfffcd0WiUdDq9VAjKFwYavOYFlZWVzJs3j4022ohoNApAOp3Gtm2Ki4vzlvZqfFOpFImiIoyc73TuY1ZVV1PiLxtkjJUlIaiRa5gh6B7+99p7EoJWIgRZhkG6JkNxUVOKnSR/fvEurz/5gISgOoINwDHHHMPGG28chiCx/jmOw3HHHceJJ55Inz59qKmpoaioaK1sb8S6o7Vm3LhxXHjhhXz77bcrFYJc7XcVohTvv/8+Dz/8MA888AClpaXcdNNNjBw5ksWLF9OtWzfuuOMOevbsCcDTTz/NtUOGMG/ePLbeaisuuOACjjrqKAD6DxhA+cKFdO/enRtvvJF9992X6667jl122QXDUH7/cEtvM5ZlTYagul+JNSQIVGJDo1ZQGrPcz2vecwk7UPSiktehogblgtfvdM7Mjf11WDsqKipIp9Nks1kymUx4GZRsNott2+Gl4zi1LutT6lqmrmmrW/Lvc3XWeV0Ux3HCdQwaQ2ezWRYvXhzuFIPDkKLxU3ndhKwwFPi3527FI5EIP//8M9FolC+//JLbb7+d8a+PZ/bs2ey///4MHToUgLGvvcbQG4by4P33s6i8nEsvvYTrrhvCt99+A0CqpobJv/zCQQf1Yv78+XRo34FhNw/zz2DzPnsrXL86LCvMrYzVv4flyH8TRG0NKyDmrotezt+F9H7WDnZh8NHgdS3topWDVlm0YaOVu6SPRelscSnBL1DLsohEIliWhWmamKaJZVkYhhFeX9ZlfUpdywSPuzL3s7ySv96W/5wMw1jjj7WmSu46WzmHIGQbvWEK9r/B+5v7d10l2MZ72zfvPlytKSopJpVO06JlS6LRKNdeew0vvfgiffr04eabbwbgzQlvsG2PHuy3//5k02kOP/wI2rVrz2uvjQVgzqzZnH3WWey5516UFhdzcK9eTP75l2BVCbP3SmbwNRHa11oIchyH6upqUqkU6XRail8ymQypVIpUKkUymSSVSoXH6de93McMDnUtqdnw/nZzvhX1LRuA8Gn4GxB/mI4lsSh4bbJoI41rpL0Q5C+4Pt7Nxir47Ft+oMD/hbc6PxKCZW2/hmZNf7+U3wzAtu3wvnMfJ3fdV+d5CLE6Vuazp4Ifbjmb8cU11ZQ2bUpFdRWbduzI6NEvk8pkueX22zm5f38+//xzAGbPmUuTps28xf372aTjpsybv8C/dwM76wDgaKhMJnFR2Lb/QHUmkWBFljTDCJ5PEH7WxNGmOh96VeVueEzTpLi4OBz2XopXotEoiUSCRCJBUVERJSUlWJYVvnar+4auMpUXfpQG5fjTgg9jMH0FxbvDvAdozLzYExz+8oqLgYNSNtrIoI0sWnlf8mAJUT9r87Mf1MysaUH4sSwL27YBMHPOdAs2zmvjOQlRX/UO/zmb+NzaGMc0WFhZQVFJKZ9O/IyZf81k1P+e4d0PP+S4E07gvPPOJ2u7tG3fgRl//AVATSoNwKy/59K0eQsAXK2IxhLefSqFYxjYGpSxrPXLXaElZUmTA//HaX2f33Kska2DyjnrwPYbU3/22WdstNFGdOrUie7du9OtWze22morunbtypZbbknXrl0LqgTPeauttqJLly5svfXWFBUV8a9//QsgbHkfNEpcE2/uyglCTvAhy/tWLDkOtIKygaj18uf8ofHGQwteF7zDYa7yDocFb5vyv1rr+l1sjIJaFdd1cRyHZDIZhoxV/cUXfH+CALQyoWR58wXTLcsK29dYlhU2ynRdb7BeIRqN8KPuX9EOuN4PuljUpCZVTaK0iLTl0Lf/cYx79w3ihkHT1s2JliQwLYOjj/oXv/z0E08//jTJ6mqefOJpfv3pJ/oeeSQAjmuTTaUAUGkblcxSvaiCdNrBBbLBKoQbzGB/kvsjfMl1rZfeLqzqPnONnB2GXz1lGAYVFRWUlZVx9913M27cOMaPH09lZSWpVIpIJLLclukbuiDcpNNp2rZty7hx47j55pt5++230X5rdsMwOOCAA7jzzjvp0aPHWj47LKefoCtvzztF3s45OywKWLnfFl9dHzqVM/hW/vwNn//7wg85QQmei1cUGq1tTMulJlNBtCxKwskwc+IXvDHycfbu2Q2yLkQMXO1i+A3/Cknwec7Vt29fWrRowf33349pmmFwUErh+J0pAgwePJjNN9+c888/n4qKCiKRCIlEotZ9Bg2pI5EI0Wg0nB5sv+bOnUvbtm358MMPOfPMMxk9ejSdO3cmmUxi5vSTE4/HcRyHTCYTfscSCe8XayCTyZBMJonH42GbGoDDDz+cHXfckauvvjpsBO26LvF4HNd1a9Xw5r8W60vwHDOZDNFolFQqRe/evTnzzDM54ogjqKqqoqSkZK1sb8S6o7Vm/PjxXHjhhXzzzTdEIhGy2Wzd+2CdEzIUkHG8aRGDDz75kFvuuoMHRjzMRmXtuP2J+3js3gfIVKdos/FGXHP1tey3294AvDl6DEOH3sCs2bPZeeed+b//+z/2PfwwAAaecCI77bAjp19wHqQ0L40YyYhnnmLsx2/jAkmgCK+m3ZMbfgLemWuGsrBtB8uyeP/99zn//PP58ssvwx8hQY1sfb9za+1TrrVm4403BqC0tJRWrVrRtGlTmjdvTtOmTQuyNG/enGbNmtG2bVsAmjZtSmlpabhBzsuj61j+ByYIMoHcUFD7g7n0vHXd1phK3lOsg8I/mcJQuIZCGwoXTdY/NILp1wTV84tYyILgQl5bQoCysrIwlOS+ltFolJKSEmKxGEqpcP5gAx98x6qqqshms+H9JxKJ8JB0EIBM0ySRSFBcXEwikSCTyYQb1OCxmjRpQiwWC2t9AMrLy1mwYAHKPywWj8cpKioim83i+jVCK7MxFmK98JtCaOXVbGPaYDhgRFn4/U8Uz1qA891vVE75hfOP6c/3k35g8qtv8cHjz3oBaNp0Mu99xAH778d7n37Mr2+9wVP33O0FoN9+g0mTGDHycU7/d3+q3vsQ/prFUaf/m7GPjaTy598wgAg2GsfvliTommQFG+E1ZK2FIPyOlgLBhiE4VdNxnHBDkV/yTzFd3rxruwSPnb/Owd+501e0nsEvxaqqKvB/YabT6bAR6HrdWOrgv/oGnLrUd76GLWzWFAomeK+FQqEMhdZe6yAHTTKdxjCtJR2I+Yus32Db8OV/7oOaljZt2vDbb79xzjnn8Oabb4bzBt555x2uvvpqnnvuOaqqqsJebE3TpKKigrPPPpt3332XWCyGaZqUlJQAMGHCBP744w/efPNNPvroI0zTZOrUqTzwwAMMGTKEiRMnhjVLwa/lt956i8svv5yXX36Zv//+O5zeokWLMKCVl5fz4Ycf8sEHH2BZVngf6//HjRDL4//4wEWjsHHQpguRYsbdfw/nDj6Hflvvyle3P86dvU7i7zuehlc/4Zo9j2Ds2VfCq+8w6dobGT7wVHjySXjqSYYecCBfX3cdvDGB1847j0f7D4RHHiPz7CiuO+EYfr7tNnj9fR4ZPJgR117Fr+++TpRqDFL+gbGgbWXu/sdYyX1R/a21EOT61VIB0zQx/FNgg2L4jRbzS7AhzL3Mn2ddlfz1zp2e/1xWtJ7B7UF1erCRDK6vf7pWS/ylP3R1rWMQnPIDVP70xlE0Gu21gEYD+BW0ShnegTCt/LMaXHAURSpGmY7RtrgpCcPiy8+/8J6+/9EvxENhK6Ouz7/jODz00EM8/PDDVFRUcM011/DQQw+F8zz33HPceeedTJ06lWHDhvHvf/+bhQsXAvDiiy9y7LHHMnnyZF588UWGDRuGUopIJEJ1dTWnn346J598MmPGjGHevHlMnjyZ0047jXfeeYdff/2V6667jlGjRoXrcsMNN9C3b18qKysZNmwYl19+eXhbJBIhk8kAMGzYMK688kqKioqWCj4N47stRN20/9Mu6OksiwG6gu132Zmr/u90fvvhZ1rFS7nqhlv4fMJ7PHrVdVxx4aXsvt1O/Pe0wTQrLuWsIUN44oknePbpp7liyBDatWnLTaefTrduW/J/l1/OyLvuZsL48Qx78AFs5XLzOYM5tPehnDX4DL79/HOorgEsfw1UuFa1w8/aCULrfAut/OP/wTF4O6cjr9zrsPwGiuua1jpcL/yzQ4Lpbj0bQgbPJZi/QW0cFTlhoK7jsXVZOkR4x5VzGlI3wqKVxkWDwtswaI2jXVzAdlxsW1NW3JSEEWf+1JnM+uJHfvtgEqoqxWYbb0K2fh8HkSP3u57NZtlqq6249tprGTlyJDfeeCPnnXceU6ZMYeLEidx0002MGDGCp59+mg8//JB0Os1DDz0EwLXXXstuu+3GG2+8wb333kuvXr1YtGhReIirTZs29O7dm3vvvZfDDz+cK6+8km233Zbnn3+ep59+mgsuuIDBgwdTVVXFRx99xNNPP824ceO45557GDt2LNOnT2fEiBEA/PHHH2y22Wa8/PLLPPHEE4wfP54dd9wxDEG5RYiGKej2wwse3gkdBlpFabv9Pzjlntvoc8k57H7Ff+DQPTn85qs4+Y7riA46nibHHcH5TzxMl4vOhT6Hc/Jdd/Gv64fCiSfS9qSTGPzww3S+4CI47DAGPDKcw6+8Cg4/gh7/OZvBjz5EuxOOwdp5J44+dTCoBBBBYwKm3zN/HWUt9L+2zkOQ9ru1DjoWs3I68sq9viz5YWRdsf3T/oPDXrm1OUajbUCYs3Fe0stfPYN2fvjJD0350xtZUV6PPxrvNE4NmIZJNusyf+pfTJn0HVN++Y0S06K4qobiikoevesODtt7FyK12hzqnNdE5KurxsRxHHbeeWcMfziZf/7zn3To0IGvvvoKpRRff/01++23H1tttRU9evTg448/ZpNNNmHmzJlUV1ez5557hve7zz77oPyzVoNA0qlTJwAmTpzI77//zs477xw+7i677EIsFmPy5Ml8//33WJbFbrvtxqxZs2jWrBljx47luOOOA6Bz586MGDGCu+66i/vuu49EIhG2TTL8k0aCIkTDpVAYmFgYmBhYKKJks0lIRNms98Gw9aYQs+EfW2HtszOYGdisLfH994BOG0PUgn/sjLXrrmAYsEUXyvbbH9q0hpIE7LEr7LQTZLOwRWdK994dWjSFWAyatYSipqDBII7212fpGiBvXde0db73zq3+rqqqYtq0afz666/8/vvvTJs2jSlTpjBr1qxwnvydiFJquSFpbdBah2euBIe1ctcrfx0bo+CXACrY9ZNzlleg8T/PlRVGQ9fFNKBy0SJINKHt5lvRuWtXIpaG6oWMvOdWDtzjH2Qcp9arJDvAlRMElVQqRSwWA/909Ewmg2malJeX06pVK8aMGcNbb73Fu+++y08//cSJJ55IVVUV0Wg0PHMMv9bV9RsoG4aB4zjhkBHB9iX4EZPJZLAsi9LSUoCwo1fXdSkrKyOVSmEYRtjuK5lM0r59e+LxOF9//TWZTAbDMGrVDMv7Lxo+L2goDAwsTCJoFJFIHNuFmmQNGTuLjkVJZdMkMyncWBTbdUimUmQdGzcaIZnJkkxncaNRso5DTSrlNXeOWNRk0yQzGdxojLSdpTqdIqs1rv+d9FbD+x4GtVFrI/DUZZ2HIPwNUyqV4pVXXqFPnz7svffedOrUiZ122ondd9+d8847j9mzZ+P4p+G7rkvaH29o/vz5/PnnnyxcuDD81UVeEKmqqqK6ujqc5vqXWmuqq6upqqoK+yLB/wWYSqXCjW86nca2vYbc4DXczGa9ngyqq6q54YYbwsaa+LVE1dXV1OQ8ZmOjUV5to39dY4AyvMucLgK1WkEJl/fuwys5yzeCsqTq1duJKQxQClu76GwKS2fo2KqMv3/9nvIZk/nvtZdw6CH7URIziJrBEKyiPnJ/FAWX8Xic6dOno5QikUgwadIkFi9ezOabb06rVq1IpVKUl5fTvn17Nt54Y0aOHMntt99O165dicVifPHFF2GA+vLLL4lEImH/W7FYjJYtWwKEfXd99tln4J859uGHHzJ37lw22WQTunfvTnFxMZMnTw5PGz/ssMO44447AJgzZw5HHXUUN998M9ddd13YqDr4kVTXjzghGi7/pA8d/ChWGKZFLFGEsiJkARWJYUXjuCi0YWLF42BaOEAkGiESi3itekyTaDyOVgYOYEViWNEoLmBaEWKxOEp5h73USlVqrPnv03oLQZFIhGOPPZbvvvuOTz/9lAMPPJBbbrmFGTNm8OCDD9KuXTtM0wzPnorFYkQiESoqKrjwwgupqKgIzwjB/6UeJMqSkhKKi4vDDavremdwKaUoLi6mpKSERCKBMhQ1NTWYpkk8Hg83wN6psN7hOqjdh8mcOXMwlGLjjTYKHzsSiVBcXExRzmNqGklbgNyjX0rhKoU2DLQycMMA418qheu3GFpmUQpXBZe5pa5pDa94Qc479uz9M7xDYqZBdToJ2Sqalbj88f1HZGf8wrjHH+H0k48n66RBmYCBm9OmTSxfXa/RnDlzePTRR7n44ov5v//7P4477jjOPvtsevbsybbbbstFF13EgAEDGDJkCMceeyzPPvssu+22GwBnnXUWzz33HAcffDC33HILzz77LOXl5TiOg9aav/76i3Ta69E2kUjwn//8h/fff5/TTjuNc889lyuvvJKhQ4fSqlUr9tlnH3bddVeOPPJILr/8cvr27UsymeTwww8Pl//666/ZZpttuP766/nPf/7D888/D36YC4KQEI1Kzkc2+EnotdTxeovztnJLpgUlqL/JLfWZZ31/Q9ZLCAra/QSHtYJTTYMAopRixIgR/Pjjj8RiMWbPns19993H2LFjGTJkCG+++SaDBw8Of5Hh1/aYpsnPP//Mueecy9F9j+bBBx8km81imd7jLViwgEGDBtG3b1+eeeYZ/pjxB0VFRXz66URefnkMY8eO5cEHH2LUqFE89thjzJ8/H/wz2z7//HNeeOEFmjZvRqfNN6dJM2+clGwmy4svvsi//vUvzj//fL777nu0q3EdrwqeZWzoGwzlN4NWfs0HS9pFG5qcMbP8X+or/LfkixO2NQ6n5de5NLyCf3aYa2gcE2zDO1/Bsiyq/vgTUtXo8r+omPYdYx59kP123RYHMEyv5gEXDP9zLTvAFQteo+CQlNaas846i7feeouePXtSUVHB0KFDufLKK8H/Ll511VXceOONTJ06lfbt2/P444+zyy67ADBgwADuu+8+ioqKaNeuHQ899BB33HEHRUVFlJWVccUVV7DVVluFj9m9e3ceeOABWrZsSUVFBVdccQVnnnlmeBjtvvvu45prrmHatGn06dOHp556is033xyAc889l2OPPRaAK6+8kv/+978sXryYfA36+y/Ecqg6Ak1+iFlRWd5ywb5hfTLyJ6xJ9f3yp9NpIpFIWIXdtGlTpk2bxqmnngrAK6+8wn333UeXLl3o1KkT2WyWnXbaiR132CG8D8uymDNvHmecMZjZs2bT+4gjePDBB7nqCm/jOe3XKZx6yimUlJSy9177cM/d93LddTcA8Oeff3HkkX245577KC9fRFlZU2644b+8++574f1ffc21vP3uu2gFZ551Fj/88CMAV111NU8/+TRH9jmKqpok551/Pu+/9wFu1gXt1Qg1uJ1hEM5YUrOjlALDIIFBQikSShFXBnFDETMgZuD9Xa+iiCuIG35R+NMafokZioipUCa4EdBRhRlR6GwGzAjMnos9exYvPDKcgw7YFXK+5OB/o+v3sRf+5871OzgMamsPO+wwdtllF0488UReeOEFjj/+eKLRKLZtk8lksG2bQw89lCeeeII77riDHj16hLU7kUiE3XbbjRdffJF+/frRuXNn/v3vf1NaWorrugwaNCjchsTjceLxODvssANDhw7lscce4/DDD6e6uhr8bYrWmuOPP55Ro0YxaNAgNt10U/Brs3v37s1ee+0VDp9x0EEHccopp4C/7QueW4P7/gshQussBNVVKxJcDw575W4shg4dSuvWrTnvvPN48cUXOffcc9liiy3o07sP3bt357hjjmWPPfcMd+gAn078hMlTJnPRxRfQ7+STuPfee+i8eWcAHhnxCLF4nNtvv42zzj6T559/kddeHcuPP/xCs2bNScRLuGXYLVx22SUccshBHHH4EXzw/kcA2FnN71N/p/cRvWnRtBnFJWW0at0GgLfeeocrLr+SfiedyPAHH6BLl66cedbZpDMZDNPwaoTCNWwg/JfZa+/jV3dmaqBmMUUV84gvnku8Yi7RinnEKhcQrZxXq8TqXeb6JX96wy3RynlYVfMwkvNxk3PRyXk4lbMpyVTQ3nQhleThm2/hoAP28NKjb+nT4hvcu95gGX5noUFtUHDoynEcFi1aFI7ObvpnlVqWRTqdprKykqqqKhzHIRaLhYfDtdZUVFSQTCbBb7MXBK0gROWe6OD4vVRXVVWRSqW8Q+X+WZ+GYZBOp8N2hEGjZ8MwyGaz4VAElj+WWNAgO7+GS4h1TW+gXTTUlSFWx3r9huY+AaVUuNEKNoLnnXced955J//4xz847bTTAMjaWebNmYv2N0Zu1tvoAPQ5vDcnDziJPfbanV3+sSPfffMVA/9vAAC/Tv2Nzz6fRKcuXei65dbst99+VFVWsmnHjlSUL2bzzp3psc3WzP3bOwR2+GGH8/xzz5FJ2bw65hVikRgH9TqQv/+eR01NDSWlZfz08698//33nHrqIJqWNadbt+48/vjj7LXvPpSUeWeQKMPwKgfWwJu15nmN4BygbZHBlk1jqL9+xf3jJ7IzfiIz4xfS073r2T9+JPPHT2T++JHsHz+Rmf4jmRne9eyMH715wvJj3eWPn8hM/yFvuRWUVVkmWG5G/jrWo/jLpWb8QOqvn6ma8T3O7Mmkf/+exPw/+N89t9H3X/uQTYLtf/S0N8xO8JKKVRCEBu0f1g5CT5MmTcLuKHLni8VilJSUUFJSEh5WDy6VUrWG27AsKwwj0Wg0vL9gB2GaZthWMB6PY/intwe3R6PRcEiN3FAThJ/gux3xxzFz/bPRhFgftN93Xf5nMP9v4dN5XNfVjuNorbXOZrNaa61ramq01lqfeuqp+sorr9Raa23btnZdN1wuWGbx4sVaa61vv/12fcwxx4S327attX//+dMWLlyoDz74YD1q1Kha89x22226rKxMn3DCCfr333/XWms96bNJepvuPfTkn3/WWmtdU+k9nu2mdHW6Us9bNEd/MukjPfyR+/Wmm3XQh/c+RGutdd/jj9aDBp+utda6KpnUWmv9629TtNZaPzLiUb3NNtvq6uqkrqyq1lprXV2d1F27dtPvvfeBvuTSy/ThR/TWWms9ZerveuPNNtOffP65/nXqNN2sRUv9w48/efdbXaPTWVvPnDtXpxzvueUKXqPqau8x3n//fX3AAQfoTCajs9mszmaz2nEcve++++rvvvtO65zXPlh2TXH9YvtvhxNMzBPM52itbb84OdM2lBK+HlrrjNa6Wmu9UGu9wL/ufRO8G5OVWmfTtV+n8A7qeA0LUe73PPCvf/1LDxo0KPzeO44TltztTi7XdWuV/Okrqz7L5c4TrFv+9OWp73zrQ/Aap9PeBziZTOoDDzxQjxkzRmutdWVlZa35ROMTfJfGjh2ru3XrFr7XwWVjfm+D72OQTd599129/fbba+0/77pyxoqs15qgXMEZXfi/5L7++mtefvllPvroIxYvXsywYcMAqKqqZP7CBVQnvb4+Ev6YQKaKMerpZ7jkoovp3GVzTh14Bg8MH87nX33JwqoFHHrIwYx7dQzzF8ylOB7nmx++5dDDezFn/myKSxMYFlgxg5LiIlLZNEVFcY7vdxxXD7mSRZULGTDwZACiMZOOm2xE+cJ5dOm0Ga1at+Dd998GoLgowcUXn8fpp52CdmzQLq5t1zpk11AovCM2SoPrgpt1sDMZb31dF+06aNdFaY1yXQzXxfSLoTVKawx/er2L1l7Jn76isg6WU34xtSaiNQnXpSkuTbRDzHVQjoOTyeJiEy8GK1rXCyo1QaujrrYzKqfDwdzb8/+ur/oslztPUCuUP3156jufEGL9axAhyHVd5s+fH56NtWjRIi6++GIOOeQQevToweWXX87EiRMZM2YMe++zD9tttz1H9OnDQyOG13oKvY/oTfm8BfQ7+jgGn3Ual1x5BQMGDKB5cRP2/cdu7LfXXvQ75hhO6nsU5wzoz57bbUeblu0o//NPjGQN0bR3fENXeQO/HrHP3nzw7gc4Cxaw/z+8XmXjSlP5xx8UJ72GmFf+5xzGPPkUfQ/pxUH77c43n3zMBSf/m3jGAcfBML0+ZhoipTSGAYbyDiWYEcv7QynvMF6w3kr5e3e/aL/JizK83kFVbjv/5ZQ1sVx9l1nV5fy8qpSB0gama2K6ChOFipq4EYWrbFydwXXT/mB/fvPy3I4mhRBCNHjrNQQFO9mioiKGDh3K3nvvDf6x/YsvvpizzjoLgB122IFbb72VTTbZBKUUTz/9NBdddBFFRd4xf4B0upoWLdrw+IhHOfqAQ9it+7aMePAh/nvlNaAsNunSlZGPjuQ/p5zKAdtsz2PXD+ORW+8G4Izj+/H8XffBYm9090ST5pCsYbvuPZk6fgI3n3U+ZUVNAGjVshWPXvtf9vrHHgCcdPL/MfreB+i3fy+OP+hQXho+gr369IHiInCX7BRd/P1sg1J7hbQyUIbphZ6wt+jlFL3kdPqlblteWZ3lVnaZlV3O7y/ICV4CAz9Aef0muf7JnQoDw7D85YL7zr0UQgjR0K3XEBQ0MozFYuy6665suumm2LZNaWkpBxxwACX+oS7Lsth3333ZbrvtSNbU0KRJGeecdTYnHX8SmhSQIRYzufu/16D+ms2pF1/EdkYJ9qQfUdkIvD2Jx48fRPbTrzno+BPZs7Q5TX7/E1q0IvP8i4y7egidNu4IWZs3zzyHqbfcAcks80a/zPQJb9B8o47w9wKe6tePPx97ku2PP57fHnmEV/99CsyeQ4lpEv/rT/rvfyDNt+jGZ/+5mI8vvxYqK0FrtD/4ZgM8KgZ+PghWzdVe0cHEIKws6+8NqfgVOq5fv5MFnLxMo1CgDdAWWptobaC1QvuvmTQ+FEKIxmO9hqCA4Q+UGIzdo/3hK8IxRfxxerLZLPFEHNfJUlkxj0x6AQ5JMtQANWzdsiWT/vcCkwZdxOyX32DBc+P5+OQz+ejeh9moKs2Xw59kzJ6HMPfNd/jxheeZePxx/PzKGIzJk/n8yit4+4zTaTZnDsmPJvL5Sf2Z8e7bLPzmCz6/4DwmnXceXRdVs/Dt93jlwP0o/+Ebmv09hy8vu4xXh1xBxU/f89411/Nar17Ey2dT6lTy3n33woJylN91eEM9XVZ5XQR5h8WUf0QsOHq0rMsNsfjPzdIQ8fv+UfjTjfAC5VUY5ZS6260IIYRo2BrMXjmRSBCJRNB+J2PxeBzTH4PHMAzice92/DBRWtqEqBXFIu531xJnv1NPo+3GGzNt7hz2v/pqDr39ThzTpOP2PdlvxHA23XJLok2bsvPNN7HXNVfxR3UlXXfdhYOefop4+3bo5k3Z8Zab6d7/ZOZk0vTcZy/6Pv0kTqtmOC2bsdNDD9LziMMoT1jsfOoAdr/nThZFTVp268oxzzzFPw88kKRl0fPMQWxz6YW07bwZOG7DrQJaWfmhYUMteM17grwXTA9DUDBNCCEaoLpOk5cfaHVrMCFoWZa8cd6bqfz2GWCBKgYdI0IJEAdbsdXgUznu5Segeyfo0Iw9n7ufja86C0pM2l56Nge/8gx02gh6bs0x418nftqpUFpMjztuY/8nn4J2beCQ/TnszdeJnNwfWrRglwfuY9eRj0LLUji6N/3HvQH77QsbtWG/J55k16G3QqKEyGmDOPrNN2DLrSGaYMvjT4DWLb2+RvDGN2tU8sNBgZXgav5LIoQQDVVQIx107BnsQ3Mv5bD9Eg0qBC3rcMLS09WSYxTawHQt0AaOFaEmC1VZTU2RSWWTGEk/PmWKLKpwqXEcUkURKhMxqu0sthkh1aSUatfBAZx4gpqYhQ1gWDjRIqpclyocKmNxFlgmlTgkibA4nqA66DY4UULGVKTRZMqa4RQ3xcYbiDToMFEIIYRYu4JGjl6NUH4zjGAol6qqKv7+++9wvkLVoEJQvQWJIi9ZGC4URaA4orAMMCxvQE/Hf6JxyyBqmljKpDiWoDgSwwIiyqA4EvPHf3KJmF6PsrZ/LlCJEaEEkxIMmptxSjGJAQkURRhBi1hMw8QyTKIoTMAyDL8hbe31FEIIIdYmrV1c18EwvB1lcGmaJqlkkuHDH+Lnn3+CRlQ7tHSFyOprnCEoV3DMIhgB3QHlLmm7ofAaulo6PPnHHzF8yWlO3ovgBxmtsNBYgIXy5tPeKVPKL8EyUa28v7X3pmj/H1qD449H0fA/V0IIITYUWqG1wjsaZqDdYP+0JDyMGz+B0tIm7Lnn3mjXG6evsQQhcmqubNte7XVunCEoqO1bUuu3hJ98VG4jVu9zkTO7F4Mcv7h+CRZWGLiAjfIPafmnAeXMU+vBal3POW1ICCGEWMeU31REOwrD9PZFNUmvM+Dxb77Nl199w/8NPAXTNLCzDgbeYN/Q8AZcDdbHdV0ymQzJZJJ02uusOB6Ph2MErup6N84QRF72CC5zMonyT3E2/ACEfz087dn/v1aOWkZu0Sx9/9QxzW+lVPu24LoQQqxn+Y1kA6u6AxENl6tB+YMFu0BpcZzvfv6NseMn8O9TTsU0vEGgI5Z3zMMI+0XxPg9ru9SX4zjU1HjDZMViMRKJRNiH4MKFC5kzZw5Quwua/M/38jTOEJQbPnJLzjEwwzt/LAw9Cq/vFytntiAULQlGS66oZd2W/9rm/J1b8xQ+QON8hYVYa1Z2IyjWrpXZYYiGT/u93WulMKMRKpNZAGYuKGfs+HHsd+ABdO7YAQA/I3nLQR07uHUv2DYEl5ZlUVRUhGEYzJo1i88++4yRI0dy1VVX0b9/f5o1a8asWbPQfvc6K6tx76LD51vXcbHczOLfnjNbcFtuybW825aSM0PuvHWvlRCFKWhzEDRuzC1i/Qh2NPlnEIlGzN/VxeIxqqurMCMmaRcefewxNuvUif0PPICMX1O0lLqmrUO5QSa4nDRpEtdffz2DBw/mwgsv5Morr+Stt97imWeeoWfPnrzyyiu0b98eXceZcPWx8ks0SCuKKv7tK5ptddRxv2vz4YRojCzLwnEcHMfBtu3wMrhe13Qpa6bkvqbZrFc7YJomkUhklXYeooHydzpaa6LRKJZpMGrUKCIRi769D8dSXh++SoG7ZFCGWsuuL3XVEF999dW8+uqrtGvXjl122YU77riDrl270q1bN55++mnatWtHJpNZ5R9T8skXQqxxQa2P9nuudV2XTp06kclkiEaj4c7XsiwikUh43TTNWpdS1lzJfc2Lioog55d30LFecCkaoZz8oIHyRYuIxKJ88ulnzJgxg/79+3vjIrraaw/kguH1C7Pew0++IAzNmjWLZDLJjTfeyODBgznwwAO57bbbeO211xg5ciQdOniH9aLR6CqHIKXzolew4TIMA9u2sSyLZDJJIpFg0KBBtGnThuuvvx7HcTAMI3xg13UxDIOKigrKysq44447mDhxIs8++yz4jZuCYTBWdWUbu+A1qqmpoaioiA8++IAbbriBsWPHhq+JYRgccMAB3HnnnfTo0SN87YNlhWhsgs/uU089xfXXX49SCtM0sW0bwzAKepuwrrmui2maOI6DZVksWrSITCbDRx99RNeuXcNtvmxvGiHthRkNZBz48OOP+dfRfTm5/8mce+65bNShPa72xod0HYiZoJw6ApBaujZmbajPd/65557jmWee4fzzz6dZs2bcfPPNzJkzh2effZbmzZvnz75KJAStQxKCRCEJvuu525Sqqiqy2SyGYYQ914p1J3/7q5QiEoksVTMkGhMv/TiOi2ku2UcsqE5y5L+OYuD/DaT/MX1J+if6uMGZ09orS1lPISh3exHcdu211zJ9+nSuuuoqrr32Wv766y+ef/55WrZsGdYqr+6+UULQOiQhSBSyQv7uN3TBbkDen8bP9s+Cvumuu3lp9GgmvfcuLlDtuCRMbwinWmcyNzDBdsJ1XQ477DB69erFvHnzePXVV3n77bdp2bIl+PtTtQZOrJC9qhBinVjdjZUQYmlu0J7Lr85IZWw++Oxzvvn6G8oXLuT3v+diA+lUmup0lsXVSRbXpFhUlWRxZZKKyiSVFUkqK2uorKymsrKKysrKtV6qq6upqqoKL4MS3D558mRKSkp4+eWX+f333xk9enQYgHLl1eOsNAlBQghR4NbEL2qxfhiGwnHdcJCCiZ9+ytdffU3/k06idYtWtG/TmijQsjhBk1iE5sUJmhbFaVqSoElpgrLSBKVlCUpLiygtLaa0tITS0tK1XoqLiykpKQkvg1JWVkZpaSk1NTV8/PHHlJWVceutt7LZZpuRTCbR2hvmg5wAtDpBSA6HrUNyOEwIIcSaEOxLteviuK7X0L2iimuuuZbTTz+DjTfemM6dO9OhQwdatWpFTU2NN3/QgjrYDfvjbio0Smu/TdCqh4pVpZQim83iui5aa/744w823XRTHnvsMbbYYota82r/rNMgvK9OppAQtA5JCBJCCFE/fljJ50/WLigDXMfbpyoDbvzvzWyycUdOPOk4kpUZZs+exbvvvUfWtlGGwtUaDLVUxFFa403NLWufymkI7bou8XicXXfdlW+//ZbmzZuz99574/oBzzSD8/mXrvlZnUwhIWgdkhAkhBBipeXupRU4/qnuuTnpkUceI5VMctbZg70Jjn8amFiupfaqq1u1JIQQQojVU6teJmeXbOP19uzkTB877g2mTp/BwEGDsLMaO2WDCZmqNNjgZjSO7RV7mcXFttdfT+1Bj+bab/OTyXij3q9tS4WgXEEYyq96EkIIIcTalR+EXL/iJxjtQgPf/zaVT76YxKAzTicRs1CGwopbYGuixTEwwIgoTFNhWgprmcXAstZfT+1BL/HK70w1Go2uk+yx3BBUl2Cl8leursAkNUr1t6zXVQghROGqFYT8nbYBZIHfyxfy1POjOLT3EbTr0JaqtO21+9E5zYnyLxuRdZEhVioE5bbnMU2zzhW0LCu8nnt7XfMWmtx2P/ivZ267qmCaBCEhhBABw+/pGX/wU+13iPjss6PouOmm9Oy5DQYQiVpYlt/w2ZR9bn3UGYKWFVgMwwhHH66pqSGVSpHJZMhkMqTTaWzbJplMgn8fwc7ctm1SqRTpdJp0Ok02mw2Xy11+Qy6ZTKbWa4AfeILr2Ww2fF1sf0wlIYQQhU35AcjyLzPKu/7CK69iVyY544QTifm1RJbfVshbSH5M18dK7Wm11rRv3x6A4uJi4vE40WiUaDRKPB7HsqxaXVq3bt0a/NqhoqIiYrEY8XicSCQSLheUWCy2QZdoNEoikSAWi9GkSRPwa9Pat2+P4zgUFRWRSCQoKiqipKQkDEdBb6BCCCEKhN9dTxCATL9BtONAXMGbEycy6bPPOH3QIFTQWDrnEvBaT4sVWuoU+VzBae3V1dUUFxdzyimnMHXqVG666SZmzpyJYRgY/ijQrj86cU1NDT179uTmm2/miy++4I477iCdTpNKpcJ5cw8HFQrl94OglCKTydC5c2feeOMNRowYwb333svixYspLS1l7ty5XH/99bz55ptsvvnmpFIp4vG4nCIvhBCFxG8Fbfu1O0Hlzp9//MUz/3uGo47py9adOlGtIaa8ABTNaTPkHRPLIZmoTvUKQcHl+PHjufHGGykrKwsDTe5hryDg2LZNIpGguLiYRYsWgV+jERzmWc5DbtCCIGSaJrZtE4vFKC0tJZPJhCNrL1q0iC233JK77roLy7LC11hCkBBCFAbt+meB+cnG9qfXuC5XXXgJh/TqxSG99qdCaxTKaw+k/NHhWcZA8BKC6rTcEEROB39BEBLrTvDaB0FICCHEhk1r70iWnXIxTAMiXghygaH3302xa/Cf0wZjmAau8to/ByeDBbVAsreovxWGoFyO45BKpZZbkxPUDAW1FtKmZWm5NTtBTVvAdd2wjZQQQojC47oQVPzbfqPoh14dza9TfuOG8y4mAWRssKwlfQYFIUhJCFopKxWChBBCCLF2BbVBACng619/4b6HHuTu2+6kOZBMOURjpjd8hh+WguAjIWjlSCMTIYQQooFxXchomPr3bJ56bhQDT+pPcyDtQCRieh0n5u3BJQCtPAlBQgghxPqic87k8q9rwDUgDYx6+UW6dNuSf2y7HQARA5S5ZJHc4JN7V6J+5HCYEEIIsTYtay+bU22j/dbNyr90gTseeZho8zJOOOpYyoCIf9uSVqRL1/5ITdDKkZogIYQQYm1ZRgDS/lldbjAgqv93MDL8hHfeIWKaDDzqWBJBuFFeX0FB8MmtAfJvFitJQpAQQgixNiwjAAWCEKT9IORosF347sefeeONCfQ+9BCKgJjfa7TLkgbT+bU/EoBWjYQgIYQQYl3ya3SCABS25VEwc9bfPPb44xx7zDF0bN0Wxw9AYa/R/l3k1v5IAFp1EoKEEEKIdclv22P7PUPj74wt4PkXXmCrrbZi5+13CEbOCG/3FltSvSQBaPVJCBJCCCHWlaBxc14fPybw2PPPoyyDUwecjAYy2sVYMoyYz7smAWjNkBAkhBBCrEvaCz0BB3jr04l89823nHH66eAHH1MZZP15XO2C1mi0hJ81SEKQEEIIsTaFjX58LhiONyaGBn6d9jvjXnmV/sefSMwysP1anqAHG1s7S92FWDMkBAkhhBDrQtAS2g85EQuqqlOMeuZ/7Lvn3mzXvRvabzDtBu2FtLuk5kfJIbA1TUKQEEIIsTYFDXhyE4zlhaIH7r6Hjm3bc+hBB4STI34bIaX9zhNzq4By+gkK/q5VxEqRECSEEEKsTX4P0BjecBiOn2Aee/xJIobJoFMGeP3/BAOnOrXz0rKu1yIBaJVICBJCCCHWEh0Mc6HABlwFyoB3P/qUKdOmcdzxx6NtyGY0jt8JkPbnV0qhgt4Rg/vLvZIbfJaZjsTySAgSQggh1gLt1wC5QDboFRr4efoM3vvgfY4+9hjatm+HqyASVZimF2wMY8lYYgEVHB6r9QC5f4hVISFICCGEWAu0H4Bc70QwHGBBVRVjx41l/wMOoHv3bigDL/wE/JSjwt4R/dqgMABJlc+aJCFICCGEWAtcvz8gB3BcTREwfvx4SkpL+cdOO2CwpMPEfEuijkahMPwgVIvkodW2jJdfCCGEEIH8k7DqU0y/PZAJxAzF2599wZzZcxl40knByWF15xj/VHhTgYHyj42BMlQ4gKp3fKyOIlaKhCAhhBCiHvJDzrJKMMip418awHc//sKYl8fQp3cfYv7hsSAILZvXO7RhGEs1kBZrhoQgIYQQop7yA09dJZhP+Ze//zmTcePGMWBAfzbfpD1Jf+frrHAnLMFnbVv+6y+EEEKIWnLDTv7fLl4Pz1k0Ga3JOC6PPfYY22yzDdt33RzbPzyG7IAbBHkPhBBCiJVQV/Mb5QcgEwMXry1PQilGjRpFq9atOKTX/mT9nW5w4lfOKBpiPZEQJIQQQqwGLwBpPwB5I71bwHuffMqsmTPpf3L/sPbH7wpoqRAl1g8JQUIIIcRqCoKQ9hszT546ldEvvcQJxx1Pi6K418DZnzeoDZIgtP5JCBJCCCFWgxd9NK52iWAwf8F8nn32WU455RQ232QjdE7wMXN2vCsOQXKwbG2TECSEEEKsIq/mx+vI0FDeQa/nn3+BTTbZhG5bdg0bTXs1RUsaUQftirwglNu02rsMgpXGXYmS32RbrIiEICEKnOsuv6cSIUTdvENcCheXiDKwgOdGv8iCBfPp368fABlbY+T0GVR3RAniy5LLJf+vTPGWEfWntPa7ohRCFBTXdTGM2r+DstksWmssy8K2bRzHIRaLYRgGuZsK6bhNFJrcoIEffAAUCsd1cByHTz75hG+++YazzjqLuBkJO0QMAlBA+fe15LDYku+Wd++5j7VylP9P1I/UBAlRgLTWGIZRqxZIa00kEiEajWIYBtFolEQiEc6n/IEcJQCJwuZFDNfxBr1QKGKGxfz5C5gwYQK9e/cmbkbIaK+BdGY5Fa0rH3HEmtbgaoJc1w03uA1s1YRo1ILvlFIK13UxTbNWqEmn00yZMoVp06Yxffp0Nt10UzbbbDO22GILotFo+L20bXupmiEhGpuVifIaQCk0Cq3AcV0s00QDUaWoyWa5//772bZnT3b/5+6AN9SFxwjDjlrSCMinUTg5NUFLbtRof8ywoF6oPhRKe8Es+H5alpU/k8jRoEJQsIEWQqw7Wmv+97//8dlnn5HJZKisrKSqqoqSkhKKioqIx+PsvPPO9O3bl3g8nr+4EAXvuZdeJp1Oc9Lxx+bftN4Fh71l/1q3BhOCgjeqvLycmTNn4jhOWFUvb9yGIaiJCIpY93Jf+0QigW3bjB49mkmTJrHddtux2267scMOO9C2bVv+/PNPfvjhBz7//HN++eUXNt54Y3r37k2LFi1IJpO4rhve37K+o8H0Zd0uxPri1e7kT62D9qpvtDK8ihlDYTs2AIZSfP/9D3z15Zf0O7EfEcvCzmS8S8fxtnlov/1Q7oNpvxbIO2TmNQTypq0Wv/Io2Ly2atWKzp07y/dvOdZ7CArCTzabJRKJcN555/HII4+w0047Ydt2eLucwdK45Qag3Oti3dBaY5om2WyWeDxOJpNh4cKFdO3alS5dunDQQQex1157kclkqKiooKKigmg0SuvWrYnFYnz44Ye88cYb/Pzzz8yaNQvttymybRvLsup8P3MbXeceihNivdJertFBvlkmHR5eCuOKUjj+59gwFJZp0a5tO7LpNDP/+ouSomKy2ax3qExrUHgRSLveIaowCmm08gKQCr82qx6ClFI4joNpmmQyNk2aNGX69N+pqalh9uzZ4J/0EIlE6jwhopA1uBB00kknsfPOO3P22WfnzyqEWINefvllJkyYwLXXXkubNm147bXX+OCDD/j666/5+++/adOmDTvssAP77rsvvXr1Yv78+Vx99dXsvPPODBgwIP/uhCgoGnji2efp3m0rdthm6/yb17sffviBs846i1deeYWysjIJQcvQIENQ27ZtueWWW1i0aBH4DbscJ/8kw9qCX5qi4cp9j6RGYN1SfmPo4PLNN9/kgQce4JxzzqFPnz48+eSTjBs3ju7du9OzZ8/wDLEPPviAH3/8kSOPPJJ+/frx3nvvcfPNNzNgwAAOOuggstksSilM0ySVShGJRAAwTRPTDEZLWvX2fqv6eVmd5VZ2GRrJcquyDBvqcso7bV1Tn2UMtPZqcVytyToO5eXlPPvcs2zcYSOOPfpoIoaF6zq4tgNeBVC4Plp5PUmD1zDadbXXQDo4JJZbE7Tkj/pZUrXkXSiFdr1aoZdffpnrrruOKVOm1NrHSgiqrcGFoP79+9OpUyeuueaa/FmFEGvI0KFDmTdvHkOHDuXdd99lxIgR/Otf/6J3796UlpaG8wUb01GjRnHyySfTq1cvLrvsMtq0acPFF19c6z6FaGyCnZ/Kux7cFkzPj0n3PTqSrJ3lzEGnYvq358+zvo0dO47zzz+PH3/8EcuyJAQtQ4N7JbTWYa1PbuPo3EaYwXyu6+I4Tq1pDbnkr2MgeB7Bc1nW/EFx/W4Ecu8jf5665s9/nLqWC+YJ7j//77pKXfezrCLWv0WLFlFeXs6WW25JNBrlk08+oVu3bvTp04fS0lJs2+ajjz7i5Zdf5u2336ampoaWLVvy9ddfA7D77rszY8YMxowZw7vvvsvHH3/MBx98wA8//LDUe5z//kuR0hCKqzUOGpsll8F1B43j357BRQM2kPE/2mMmvInrOPxn0Kko/zYFZJfTbNXNK3VvCXUdc65s8e7HdV2y2Qxatrkr1OBCECuowlZ+dX4ymSSVSpFMJqmuriaTyZDJeG+6Ws6hMcdxyGQyuP6hgbVN+f2wpNNpampqqK6uJplMhuun/QamhmHgOA41NTVUVVWRyWRqLR/cRzqdRim1VJLPZrNks9lwmeB1COZ1HIfq6moMw8A0zTBoBvMGr53rutTU1ISvb7C+6XQa13VJp9PhIZCgBPdj2zbpdDq8n/z3YF283mLF/vzzT2bPns2WW26J4zj8+uuvdOzYkZKSkrDH6LKyMsaOHcuIESP4+OOPqays5Pvvv2fx4sVsueWWTJ8+neeee45nn32Whx9+mGeeeYaqqqrwPc79fJP3OZYiZX0XQ3l96Rhh/8pLrht4t3sjghneYTMNEQU/TJ7C++++x/77748N2NobEBUgshJ707r3TipnmNVVLcH9iPoKXrUGL9iYun5VXlFREUVFRZSUlFBSUkI0Gg2797dt7/TFIAjgb4Qdx8GyLGKxGKZp4uacgr+mS+5j2rZNPB4P17eoqCh87GBdlVJEo1GKi4spLS0lFovVet6O4xCPx4nH42GACS4BotFo2KFdEKyCUAQQiUQoLS1F+SEyN0QZhhG+dpZlUVpaSnFxMYlEgtLSUkpKSkgkEpimSTweJxqN1nqNcx8j6Ecm6IiPnNdXNAzz5s1j4cKFbLLJJsRiMSorK8P3J2jLs/XWWzNw4ECUUnTs2JEDDzyQDh060LJlSzp27Mh2223HwQcfTMuWLUmlUpxwwgnsuOOO4WME92cYhrz3olFx/ZCi8Mb8srM2hoKKmhSjR4/mkEMOofNmHXEBM+ejXXewqZt8IxoO89prr702f+K6FAQV1+/BdvTo0TRr1ox99tlnqdqMoPZmwYIFjBw5krfffptPPvmETz75hB9++AHbtunQocNSPeEqv7bDNE3mzJnDp59+Stu2bYnFYmtlA50bvoJanrfeeotnnnmG77//nnQ6TceOHWuto9aaWbNm8dRTTzFhwgT++usvOnbsGIYKwzB49tln+eWXX+jevXs4LTBhwgSmTp1Kly5dUH74MgyDWbNmEYvFmD17Nk899RTNmjWjadOmtRqtzp8/n6effprOnTtTVVXFvffey6RJk/jxxx/56quvGD16NFOmTGGLLbbgzTffZPbs2XTq1ClcPnj/3nzzTWbOnMmmm24KObVcua+HWH+C98G2bb744guaN29Ot27deOutt9h4443Zcccdw4CslKJNmzZssskmvP7665SVlTFkyBCUUkQiEfbdd19+/vlnPv/8cwYOHMg///nPsFG0EI1BXaElmOaiiaBQfs/Q6azNHXffzUYdO3LwQQcBCqW8WgTt1yaEWzgvQS11nwG1lkOQBrTr8uuvv/Lmm29y5plnhvtP0z91X7bHSzSamqAgABmGQSqV4u233+att97i7bffZuzYsZx++ulcffXV4ZvrOA7pdJqqqipc1w1rLr744guuvfZapk6dGh4ay60xCR4rONQWHCaqD+0fb8a/D4Dy8nKOOuooLr/8cj766CPeeOMNzjvvPC6//PJwGdu2efzxxznooIN4/vnn+eyzz3jyySc57rjj+PLLL8P7HzZsGCeeeCKTJ09G+4ecAKqrqznhhBO46qqrwsc0TRPDMPjPf/5DVVUV7777LmeddRajR4/Gsixcv60PwLPPPsugQYP4+eeficfjjBo1is8++4xTTz2V22+/nUmTJvHee++RSqU4//zzOfLII5kxYwZAeNhu+vTp9OrVi9tuuw38Gq76vm5i3WrVqhUtW7Zk6tSpAPTo0YOPP/6YOXPmhIdKs9kspmmyyy67cM455/Dpp59y8cUXs2DBAmbPns0VV1zBm2++yVlnncVee+1FNBrNfxghGrQgjOQXgEjuQBYKXnnlFSzL5N/HHUPMVCjDHxjVPxPMxTtklh+AyPmz1mME864N/nY390eyWLZG9SoFNTobbbQRL774Im+99RYTJkzg5JNPZosttuCyyy4LA41pmsRiMUpKSjAMI9xZW5ZFq1ataNGiBaZpEo1Gw1+wQagwDIN4PE4ikSAajYaPmxtyliW3FgbglFNO4ffff2fcuHGMHz+eMWPGMHbsWMaOHcv555+PaZq89tprDBkyhHPOOYd3332X0aNH8/rrr9O5c2f69evHggULwF/3TCbDyJEjw/GbAO655x4WLlxIu3btIOfDP3bsWH7++WdatGhBTU0NACNHjuS7777D8NsGTZ8+nXvuuQf8dkUlJSV89NFHjBo1igMPPJD//Oc/TJgwgWeeeQbXdWnVqhXl5eWMGDEifL4ATz75JADt27cnlUqFoTV3HrF+5H9mmzZtyuabb86HH37IzJkz2X///YlEItx55518//33WJZFNBrFNE1mzpxJ9+7due222/jjjz8YMmQIw4YNY9q0aZxyyin84x//kLGJRKMU5BCv6bMXTgx/1Pe0kyXtZFGGwRvvvMMPP/7IWacPBn+eCJAFjJxNm8pNUXmUf/Z72Cn0cuaFnJVb2QKgvbHnpcanfhpdCCKnliebzTJ9+nSuuuoqjjnmmPAQGsAtt9xCjx496NixIzfddBMLFy4Ev+bCcRxeeeUV+vTpQ7NmzbjpppvADwEAb7zxBttuuy2bb745/fr1C38x5+9M8gW3ByHkxx9/ZOLEidx99920bNmS6upqtNa0adOG4cOH06FDBwAeffRRtttuO0499VRs26a6uhqA//73vwwcODBcr5qaGrbffnt++uknnn/+eQBeeOEFvvrqK7p27Ro+fpMmTQD4+OOP2XPPPQH46aef2H777enWrRvDhw8nMGzYMDbaaCOKi4vDsDVz5kwAFi9ezLx588B/bolEgnnz5nHQQQfx119/8dJLLxGNRnnwwQeZPHky3bp1Y8GCBZimWWvHuKLXTaxduRvC4L3Yd999adGiBc888wzbbrst5513HnPnzuXuu+/mggsu4OKLL+bCCy9k2LBhPPnkk3To0IGbbrqJVCrF4sWLufTSS+nevXvYkFqIxqR2bvBqfXI/xaZhEjUjTJ4+jTfefJOT+p1IaVEMR3u1PnbeznNFUWNFt9eyml8nrb3DYcH3Xr6fy9eoQhD+Bj3YyUYiES644AK6dOnCkCFDqKmpIRqNcsstt/Dcc8/x+OOPM2bMGH7++eew5iIWi/Htt9/y4Ycfcu2113LzzTfzzDPP8NJLLxGLxRg/fjy33HILZ5xxBlOmTKFJkyZcdtllVFRUhO1bgjOtqqurqaqqoqqqKjyLKjjsBvD111/TqlWrsI1MUVFReNuuu+7KBRdcQCqV4s8//2T77beHnLCRTqeJRCKcddZZtG3bFoDff/+d/v37s9NOO4W1Nw8//DD77LMPBx54YBhY8EPPjz/+yD777BNOy2az3Hvvvbzxxht88sknTJkyhYkTJ3LppZeGZwaR86WxLCsMM7ZtU1ZWRkVFBQMHDqRt27Zh7c+YMWPYf//92WOPPZg3bx6RSCSsPRMNR/CeuK7L5ptvziGHHMLXX3/Niy++yBZbbMF///tfDj/8cIqLi5k2bRqu69KuXTt++eUXvv76azbddFPOPvtsLrzwQnr06EFRUVHY/k7ea9FY5H9SgxPLgwbRGnBdh5mzZvLCs89xdN9/sUXnTuigtienDVAQbvJDlGg8Gk0Iyt3IOv4YKa+//joffvght99+O4Z/xpht27z00ktcddVVbL/99my77bZcfvnlDB8+nJkzZxKJROjevTv33Xcf2267Lf/+97/p0aMHP//8M/g1Iz179uS0004jnU5z3333MX/+fJ544gkAUqkUpmlSXFxMcXFxeHZa8LdlWWEjtGCMpZKSknDd86snKyoqsG2b5s2bg3+GVSQSIRaLEY/Hw7PEAMrKyqisrOSMM87AcRzuuusuLMuiV69eGP5p8IEPP/yQrbfemm7dugHQoUMH5s+fT8uWLTn66KN54oknuOaaazjiiCPYbrvtqKioCBth565jUKulchqvL1q0iIEDBzJ79mwuv/xykskk++67L9FoNDzsqKUqtsEJ3pMgqO+xxx706NGDkSNHhrWl+++/P9dddx0vvPACt99+O+effz6tW7dm5MiRTJkyhR49erDVVluh/PZ5uZ8PIRqLIPC4fpDJuN4hJBdwNUTMCP/73/9o26YNO2y3Xf7itdr35IahNWJV7mxVlhHQmEJQ0F4nCEDz5s3j9NNP59hjj2X77benoqIC/EM506dPr7VRbtasWdhPj2VZpFKpsNbDtm1mzZpFVVUVAL/88kvYRujPP/8EYOHChcyZMwf8kbczmQx33XUXt9xyC3fccQe33347w4YN495776WmpiZsE7T11ltTXl7O/PnzwQ9Qgb/++otPPvmE1q1b06RJE3799dfwtmAn5bou33zzDZWVlQC0aNGCBQsW0KJFC3r37s1//vMf9ttvPzp16sS0adPCGif8Q2x77bVXeCZZPB4nm81SVVXFddddx4QJE/jggw8455xz+Ouvv8A/zR6/BiiQGz5t26Zly5bMmTOHzp07s+OOO3LjjTdy6KGHsummmzJ9+vTwEJ+uR/spsW4FNTZBe5/WrVtz2WWXccEFF/Drr79yySWXcNNNNzFy5Ejef/99nnrqKYYOHcr3338ffgZz70uIxijYKgUByNYEY7lj+qe9jxs7jqxtM3DAv7EME+03gKaO8BNMD0JUUCu0zNqh+nx18h9gRSVYJvdS1EujCUHBjtn0T+0ePHgwrVu35tZbb4WckJTNZmnevDmtWrUKl41EImED6Ewmg+H3h4Nf0xGNRkmn0wC0adMmrFEJduLNmjWjWbNmgLfxr66uZsKECbz22mu8+eabvPHGG4wfP56xY8eGZ9jgt7twHIe3334b/PZIQRAKAhT+2TlffPEFgSDQBWdoBW2SqqurKSsrA2DAgAG8/vrr4eGusrKysC3PBx98gGma7LHHHuHjRSIRtH8mmmmajBw5kuHDh9O8eXOKi4tx/P6MyOl/SOX17+M4DqlUKqydOv3003n11Vfp06dPeHv+mXaiYQkO6Sq/Ab/Wmr333pshQ4YwYMAAiouLef/997nrrrv44IMPAOjVqxcXXXRReFg2lwRd0ZgEn9bcIGQqMA1vmg188OEnvPX2O/T/97+X9Bnkbwbzc0Z+DqGOEKSXNeNaIt/IldNoQpDrumSzWVzXZfTo0UycOJFzzz2XRYsWhTU5c+bMoUWLFvzzn//klltuCZe97bbb+Oc//8mmm27K4sWLwxF18Ws3grNhAPr378+kSZP47rvv6NKlCw8++CAARxxxRLgezZo1Y9y4cbz//vvhWV/vvPMOr7/+Oh07dgzDRDwe55prruGiiy7iqaeeYtasWUydOpWHH36YCRMmcMYZZwBw1lln4TgORxxxBD/88AN//PEHU6ZM4eKLL2arrbZi2223xXVdSktLw51Ohw4dOOigg9huu+2wbZuSkhLmzp0LwKhRo9h8880pKioKT2UParqC57nXXntx8MEHg78ji0ajS7UJMvI6ugsOuQUBsnv37hx22GF06dIF/FoyCUENX/CeBu9vJpOhc+fOHHXUUVx44YVcdtll9OzZkwEDBnDRRRdx3HHH0b179zr7AZIaIdHY6Lx2QMFlBFhUUcPr48fT76R+bNS6DWnXXm6oqBV0Ggj5Rq6cRhWCIpEIhmHw8ssv89dff3HhhRey7bbbsvPOO9O9e3d23313IpEIw4cPp0WLFmy33Xa0adOGefPmhX3oGIZBSUkJyWQS/BqmRYsWhe1hBg8ezPHHH8+xxx5L586dGTFiBNdccw2dOnWq1eYm6w9TEZRMJhOetm5ZVvhre9CgQdx3333cfvvt7LrrrvTp04fHH3+c66+/nn333ZdMJsNWW23F/fffT5MmTejVqxcHHHAAhxxyCPvttx/33XdfuN5a6zBk5NZWWZYVtvcB+Pzzz8Maoo4dOwKQTqexLCtcLpVKhe13HMchmUwu1VVA8Bzwd3au69ZqpxQE0yD0ZfzhSETjEBweM/3e0zOZDKZp0r59exKJBJtvvnkYvIPvXyAIyloOe4pGw//M+n8FWyrHDw6zyqu4/Y472Gufvdlhu21xwBs+Q/vjJuYsW99PfFj5k5uWGlpqKnANbhT5k08+mc0224whQ4bgOA4qZ+yr4DBTVVVVOJ6V8nuwtW0bpRTNmzcnFovhui5z5swhmUzSsmVLDMOguLgY27apqamhrKws3AmUl5dj+cNFBDv9BQsWsHDhQjbaaCMSiUStQJC/4Q9uC3YoufMGNU3JZJLy8nIMw6CsrCwcOiP38ATA3LlzqaqqomnTpmFj6WC+3PXM3Qnhn84e9G0UhLqgHVDw+lRVVVFSUhK+jrnrWF5eTtOmTcN5Lcti7ty5JBIJSkpKUP7hk8rKynAIDcNvGBusf2VlJa7rhqfo5z4v0fAEn53c72A0GmX+/Pk8/PDDnHjiiWyyySZkMhmi0Wit72DA9U/FlfdZNEjBZloFAUjh5Ax66vg1AXHg7hGPM2/OHK6//GIAsmgsFK52MZVXXxC0I6rvTrNWCKrLWvjauH5HuK+//joXXXQRP/zwA5FIJNwXBN934WlUr4Trj4tVXFxMq1at2GijjejQoQOtW7emffv2tGvXLtxYG4ZBu3bt6NSpE4lEgng8Hgam4CyyYAPevHnzMBTh12i0aNGCLl26hA2hc0OHyjkzxvA7HQwuyak1wa/BSaVSJBIJ2rdvT9u2bSkqKqp1n8G8QcPjTp060bx5c2zbDhtx27ZNkyZNiEajtUJX8BjNmjUjkUiA3xleLBbDcZywLZBlWTRt2hTLspbaaVmWRYsWLcIaLMuySKfTtGzZktLS0rD2yDTN8L6D14CcGoWSkpJaAUg0LsFnIuJ3cZDbbi73kpzvooQf0SBpP3cEH0+tQCuU1iitsfxAEwSgNz/8jPJF5Vx40QVkNdiuF4BsNIYfgIK7W9ktW7gedRWx3jWaEJS743Zy+ukJaoQy/ijyrn8aN36YyWazWH5/N9o/nBTxT0N3/cM52m8wHAg2/uTU5OTu8Osjd8cRi8XIZDLh6fD4jxEchghqjwz/1PrgEJtSilgsRjQaDdc/6vdgHdx3EDZs2w7DSjKZrHW/wfzLCya5o8Pj96cU3H/uc3Ycp9ZrTE4wtG07fGzR8AXfqWV9pnM/Z0I0KirnqJP2E48DKIWpFKbroP1enyd+9xsfffwRp5x6CkURE9txMAyvxsgbWX7VBVvcYF1yi2gYGuXWzbKssF+eeDwehpzgF2xQHZgbNIIdcxB+XNettUzuhj64j2Bnr9ZAZ3CRSISysrIwzOT/ug7WIViniN/+KbiNvJHZA8G6GX5NlNaaWCy21CGv/Ov5giFC8uXvJINar/x5tNZEIhESiUSt12t1Xzex/sh7KBqr4BOrcv/QQMZLQ0o7aA0z/65i1KhR7LXnnrQuK/GGwjCNsDPENSE//EgQalgaZQjSOeN4BRvoYMcbBIL8nX/wd1BrEcyfW2uRu9HPv4/VkfvYuX8vT+6OZ0U7oeA55b4eudfXhOXdV+5jBoLXuD7PVTRM+Z/b5X0GhGgogoBh4Nf+AK7jDwoWNbzegMwIybTmoYceokf37uyz206Y/iyWWnoYjbVhXTyGWLFGGYJyqby2KbmHcOqzIw7CQ+4GP5iWP9/qWNF65FuZ9c+9Pf/vNWFFgTB/PdfGOgghRH0plrRi1oAbhR/+Kuf6B55gbhbSKJ4c9RybbrIRA084EpXTRgjAOxds7ZMgtP41+hAkhBBCBFQQgvx04ShvRzfX0dz85P+46sGnGfa/8WS0weB/HwuAdhwMwNZZPw5JNCkUEoKEEEJsODTeAGD+uRuuATXAm19/R8seO/D6Vz/x4KgxbNJpC4Ker5ShAAdLKVTYg9DaFwY2sd5ICNrA1PcwmhArSz5PotHQfoWOHzIywKxFFSRVBKu4CU1btuHee+/j9nsepnxhBdrVuI7G8P8pf+eYv4OUb8CGJ/89bhDy2+NQx859VcuGKL9NkxBrQ+5nK2gntiF/r0Rjpr3W0I5DBKjRMGvaDFRNhmgyia5YSExpyhcuoHxxBS4mWhto7dXNKJZ9hlgwLajFkdqcxq1BhKDcM5nqOsNI1M/aeL2C9yb3PRJCiIam1tZJu2CZYXWQUaOZ8/33tEwmaZ2t4YCe3bhj6BCuvupSOm22EdoA0wpOAFn+NjSoJcoPQMtfSjRUDSIENWRBsHD8EdKDktu54oYiP/DUFXpWdLtofIJaneD9zPoDFW+In3FRCPztkuuAoXDTSWb+8i2bJTTH/bMnd1w8mBsuOIOtOrcnlbapTDpeh9LLCjI6P2Etrc7lRKMgIagOOq//INsfGDXoxDASiWDlDEYqRGOX+5mPx+MYhhF2nhl0HLqmaxmFWJOWfDo1GMrvHEhjxCJs1rYp9w29hEsGHc0O3TtSmoCIAaUJi0TCxLa9xeQTXngkBC1D0NM0fg/V1dXVzJ07l4ULF7JgwQJqamqWGkxSiMZKKRWOSzdv3jxc12XWrFnhyPJB/1tCNHgKb8BUQ4F2AIeWHdqyUaf2RIos7OpFLJg3n7nzK5hTnqI6qYlZYCqwc3/X1qMGaHWtg4cQK9AgRpFXSoUjWJ900klsttlmXHfddeFtQVX9mvglWp+nm/s42WyW3377jeeee46JEyei/eEhOnbsyMCBA9l+++1rLbuuBYel8oeyWBX1eW3yrYn3RDQMP/zwA0888QQ///wzrusSjUbp2rUr/fr1o1u3bkuNRbcqgs/Y6tzHutBY1rMxyN2OrwsaF7SLCqp2tBv2/fPX9D949rnRTHjrPRZXJilt0owuW3Sh/4D+bNu9O7GoIlzN/M3hClZ/VQONWvFdrxRXRpFfKRKCliF4vB9//JHrr7+e0tJSDjjggHCU+s8//5xp06Zx5plnsueee4bL1efDlb8Oy3te+fOSN//yNta5h/TqsxHKf6wgYOUvm38/ucsFgWx565Uv/1BL8H7n/r089X2s1fnyO44Tvg7B4yzr9alrfYL3In8d8/9e1n0Gt1HHMoHg9vzll7ec9gcV/vrrr7nrrrto164du+66K64/kO8XX3zB7Nmz+b//+z/222+/Wr2z51ve4wRcf/T5wIpqU4Pnkquu97G+n5f6rCP+IXDyBlNeluC9zV2n4H3MnxbI/2zkP5+6puXLfb9ZwbZndYPI6iyf22xgee93fZ7zsmjt9fGs0F6gUPgHOhyvNsh1mfzrFG4YeiMlpU3YZ9/9AYNMJsvkXyfz5Vdfcu5ZZ7PP3nthRUyUwgtDWntXNHjHy1bu+Qfv+LKW0sFru4L3b2W4EoJWioSgHK4/YGrwIUkmkwwZMoTff/+dCy+8kJ122imcd8aMGdxzzz1U/n979x1fVX0/fvx1zl3JTUIC2SBDREALMn4CIiJDBQdDEFAgbBFapQ4q1r2rUq271rYOEFBasAW/KktRpA5AFLSKgMywMggJWXed8/sj53M8uYaAVCHhvp8+rjece/b5nHPe57PO4cPccccdZGVl2Rc99aLTcDiMy+WyLwKm9bZ6n89HOBzGMAw7ceqOyqmqvpFKqOFwGI/HQyQSwTRNe57qyTx6GsO6gbndbnsfqu3zer0YjhfIqnXUrMrfanrdCmTUsg3r5qWWrW4OalggELC3IRwO2y+KVcfPuW816/UmwWDQ3kY1T/Wt0oRaNtYNKRwOV0sHajw1jdoGtWz1t67rRCIRe/6qnpfa5+p3NY3av+o4qWHOferxeKoVF6ntVsdbrY9aXvRxUttxpH3uvBGr46TSr1qeuqmoNKTWTW2X1+slFAqhaZp97NSyI5EIPp+P/Px87r//fkzTZNq0abRt29bev99++y3PPPMMmqZxxx13kJ2dbe8n5zaq5an9p9Ka2uder5fKyko7var0Z1o5q5oj3UTvP7XvdevcCoVC1c4xtd/UNqq/1Xyiz0Gs/WdaaVdzpM+Q1ejBuWysYxB9rqr9r+at5u/cBpWGcAQ+6jxQ6xqx0po6x9R8NEfQ7Uw3hlVp3blf1DTq2qKWo/ZV9HLc1vkbDofta4KaTq2bWme1L5zzcR5v9bfzXNWs81L9ZlrnmEoXaj7Oc1rtU+excbvdBINB+/wOBoNo1vHSdd0eV+0LTBOPSycUDODSXRimgUvXCQSDPPjQI+zK3cNNN99M167nohQUHuLRRx6hpLiY306bRrtzfmVvG2ZVb9KaFRUZhoHudoFhvZPDQVWuPpqq2KpqnVWa538MAp0MCYJ+GvMki0QipmEYZiAQME3TNHNycsy777672m+madrf/yvDMI74CYfDpmma9nd+fr558cUXm88884w9fSQSsX9/7733zEsuucT87rvv7N9Plp9r/4jYs3v3brN///7m66+/bobDYTMSiZiBQMAMh8NmKBQy582bZ/bp08fcvXt39KRC1AuBsnLz8v6XmzMf+aNZUVZpBiqDZjhUdR03TdNc++kas9u5Xc0P3ltpmtZ13jRN0wiHTdMwTSNc9e9fUjgctu9F/4tIJGIGg0Fz0aJFZuvWrc1gMGiapml/q20TVVz33XfffdGB0YmkIm719PGvf/2Lhg0b0qdPn2pPGhxDFvb/yvm0oqL0hQsX0qVLFzp06FDtiUTTNLZv387OnTtZsWIFK1asoF27dkyaNInS0lL27NnDpEmTuPzyy5kyZQrr16+nWbNmDBgwgC5duvD3v/+dV155hY4dOzJ48GCaN2/Op59+yvXXX8/ll1/O5MmT2b9/PwCDBw+mV69e3HPPPaxYsYIzzzyTvn37cs4557Bs2TIeffRR+vTpw7Bhw/D5fOzYsYNp06bRv39/xowZw8aNG8nKyuLKK6+ka9euzJo1i5deeokuXbowbNgwmjRpwieffMKvf/1rBg4cyLXXXsuePXsAGDJkCBdddBEPPvggq1atolWrVvTq1YtzzjmHFStW8Mgjj9C3b1+uuuoqdF1n27ZtTJ06lYEDBzJp0iQ2bNhA06ZNGTRoEN26deP555/n9ddfp3PnzgwdOpQWLVqwbNkybrjhBgYOHMiUKVMoLCwkGAwycuRI+vXrx913383atWtp2rQpvXr1olu3bixdupQ//OEPXHjhhQwfPhyXy8WePXu4/vrrueyyy5g6dSpffPEFzZo1Y8iQIZx33nn87W9/4+WXX6ZTp04MHTqU008/nY8++ojf/va3DBo0iMmTJ5Ofn08oFOLqq6/moosu4t577+XTTz+lcePGXHDBBXTs2JF3332Xp556iu7duzNs2DD8fj9bt27l5ptv5qKLLmL06NF89913pKWl2dv95JNPMnfuXNq3b8+AAQNo1aoVy5cv55ZbbmHgwIFMnjyZgoICAoEAo0aNom/fvtx77718/PHHNGnShN69e9O5c2cWLVrEk08+SZcuXbjqqqtITExk8+bN3HzzzVxwwQXk5OTwzTffkJ6eztChQ+nSpQvPPfccCxcupF27dgwePJjWrVvz9ttv89BDD9GmTRtmz55NYWEhffv2pUmTJvYTuMrx2LlzJ0VFRbzzzjusXbuWJk2aMHHiRFwuFxs3buSmm27i0ksvZfz48ezYsYPMzEwGDx5M165d+fOf/8ycOXNo164dAwYMoGXLlixZsoTf/e53XHHFFYwdO5bCwkIOHz7MyJEj6du3L7fffjtr1qyhSZMm9OnTh+7du7Nw4UIef/xxunbtypAhQ0hKSuKbb77hpptuol+/fkycOJFt27aRlpbG4MGD6dGjB0899RTz5s3jrLPO4tJLL6V9+/YsXbqUO++8k4EDB5KTk0N5eTlFRUXk5OTQq1cvbrnlFr788ksaNmxI7969Oe+881i4cCGPPfaYveyEhAQ2bdrEDTfcwIABA5g0aRJbtmwhPT2dAQMGcP755/P0008zb948zjnnHPr370+7du1YtmwZM2bMYNCgQYwePZry8nKKi4u5+uqr6d27NzfffDNffPEFLVq0oE+fPpx//vksWLCA5557jh49ejBkyBAaNGjAxo0bmT59Ov369WPEiBHs2LGDBg0acOWVV9KzZ0+eeOIJFi1axFlnncVll11G586defPNN3nwwQcZMGAAw4cPp7i4mJKSEjut3Xrrraxfv57mzZvTr18/unXrxsKFC3n++efp2bMngwcPJiEhgQ0bNjB9+nQGDx7MuHHj2L17N2lpaQwdOpTevXvz1FNPsXDhQtq2bctll11G+/bt+cc//sHtt99O//79GTVqFMFgkLy8PCZOnMjFF1/MzTffzKZNm8jKyqJfv3706tWLWbNm8dxzz3Heeedx2WWXkZ6eztq1a7ntttsYPHgwV199NXl5eaSkpDB06FAuuOAC/vSnP/HGG2/Q7le/ol+/fnTu1Il3332Xu+68kysGDuD/3vo/Tj+9Bed3Pw+P14Pu+iE3xAiFWbd2Leeeey4tWp4OhoGm6WCYaLqOaRhUVlQSDoWIhEMEA0FCwRDhUJhwMETY6jolGLa6UQmGCIVDhIJBgsGgncMYDFnThcMEAgE7J0/lCP0cuTQq523r1q0sX76c3/zmNz/Kffyl76X1iRSHOahEohJkcXExgwcP5sorr+Smm24iEolgWFnWmqaxYsUKFi9ezPr168nLy6uWZQ0QCATw+/1UVlaiW02Oy8vLiY+Pt+fj8XgoLy/H5/NhmibBYJC4uDgqKyvtLPhAIGAPU/MpKysjLi6OSCRCOBzG7/dXm09lZSVxcXGUlZWh6zrx8fFUVFQQHx+PZmVve71eKioq8Hiq3qATDAarra8q7vH5fNWGlZeXV1t2fHw8gUAAl1U0EA6HSUhIoKKiArfbbW+33+8nbBUvqW3wer32BSEpKYlAIGBPo5YdCAQA8Hg89jYYVpFffHy8XSSltkHtK81q8aSWbVhZ/m63+0fzSUxMpKKiApfLhcvlorKy0t4GlS5KS0vx+/1gFd8lJCTYgXHE6kdK7XOP1ZXCkY632n9qn4esIj11vNW2ulwuexq/319tn1dUVNhFC5WVlfh8PsrLy9F1nbi4ODvdKG63m/LycruYSg1r0qQJaWlpXHPNNQwbNsw+Rup8W7FiBXPnzuXbb7/lwIED9j5XF221L9T6uq3WlPHx8fa81Lr5fD4ikQiBQMDefy6Xyz7e0cfOOZ9AIGAvW2Xrq2On0qfL5bLPDXUzcLvdVFZW/ijdqBaeulU0q9K+ZhWrlZaWkpCQgGkV3fj9/mrLjj5f1LLVOWhaRTqVlZXV0p9KI2pfqWuf2qfOdKO222sVa6rjqbahpjRiWEVSLperWvpzphu3243bKmry+Xz2fJzXlmAwWO38VtvtPL/V+aKWE7SKq9TxjouLIxwOEwqFql0TPFbxjHPZ0dsdtq5rlZWV1Y63utapZas0YhgGhmngdv9wDum6TiQcJiWlIWe2OoP+l/Rj8tQpVeVW4UhV2ZTLxcbP13PrjFu555576NG7l1UEZgUjusbrc+by3nsraN6sGUHHtc6qOATW/80j3KI0q+isqopR1UO/ZgUmlZWV9OrViyuvvLLa/eN473fqnJTisGMjQZCDYd3sIlb5d1lZGffffz/79u1j+vTpdOzY0R73+++/58UXX6SyspLbb7+d7OzsavMSor44dOgQt956K36/n2nTptGqVSv7t/379/Pkk09SWFjIww8/TGZmZrVphagPQqEQM2bMoKKsnOuuvZbOXX+o31leXMLTTz3N5s2buf3OO2h99lkQqQokDdNEd7uY/cqrnNa4MX3793PM9efxwYcfsmXzZiZPnixB0EkgQVAN1PIMw+Drr7/miSeeICUlhX79+tlPql988QVbtmxh3LhxdOnSBbejmOznWte6SD3dVlRUoOu6/WSvn0L9yKhjF30M1fZFD1fU7/VhP2jW0yjWObh27Vr+/ve/06ZNG7p162Y/ra9YsYLNmzczdepUOnfubOc8OffFkfYHUftMLe9IappP9PQ1jaPOuZ9KnadHOt7i+DjPg9quhTUdN+cxib7+1/TbkZhRrVQNw2DLli3MnDmTrPQM+l/Sz84B3L59Ox9+8AHjxo1jwMAB4HaDWh6AS2fWy6+SkZHBZQMup7SkDJfbRURV4lbLxMTUqrooqsYeoGGaoKsGMC4Xuq7x3vvvs3//fiZMmGAHKLXtt6ORIOinkSCoBs7lhMNhNm7cyKJFi/j444/xer00aNCAzMxMhgwZQo8ePdD1H14meSpTx0AVKWE9YXk8np/t+IgTQx0v5wVx7dq1zJ8/n3Xr1mFaRXdnnnkmo0aNomvXrvb4Hqv41FVLc+dox3LenSySbn8ZdeGYq3uH8vVXXzPntdfY/v33mKZJMBAkISGBUSNH0qdPHxIaJFWNqOtVLcA0DXSNl196hczGzbjisosIA0fvOOHYLVu6jN25u5k0aVK14O5406UEQT9NzAVBx+vQoUOEQiFuu+021q1bx5IlS2jcuHHMJqgHHniAdu3aMXToUPvYnOxjJH6amo5XQUEBRUVFdn2RlJSUHxWBqUtG9LRC1DXRD26hUFUl5p07dnDbrTOYOGEig4cOpaiwgIbpaRA2wK1XNY03rcrRGrz44l9pcubZDOh7Ab97/C/EJyTicWmEAkFcLg+GWVXvRzNV7R+wGsNjagYGBrpuYkaCeEwTPRzE73Zx07Rfs2LFe2zZ/B2//s1vJCfoJJAg6Cii1+/DDz9k+vTpvPXWW2RnZ1NUVETDhg2rBQJOqiKrGu52u3E5XkMQsvrx+F8T/i/JrKFH6oEDB9KzZ09mzJhRrTisLq7/T/VzbEN0OqirnMdWLo7iVKWuTaq+ZyQc4Yk//pERw4fTotUZGKEwutuNaVbl/mhRuaTPPf8cWW1+xbCL+7BmXxGGrqO7XUQiBh7caIZeFQCZrqoACqvYC9V/kAlaBC1cSQNdh1AFh8uK6XT2mSxZspxtWzbzm2nXY5gGuqqQfZwkCPppZE/UQt0gDEcRwCuvvMKePXtISUkBICmpKvvUedNzBkRut5u4uDji4+OJj4+3i47UOF6v1y5WOFKxWvS/iVqGGkeN5wxGnN81zft4NWrUiMTExOjBop5xpgfd6nAuZDX3DVnNeutLQCfEkag0rL6DoWBVc3arlWQoEgYNjCP0Cq3pOkY4CEDH7Iacl5nMOamJdMhoQLsMP+2y4uiY7aNdYzdnN6n6tG3son1jFx2zXXTKdtMxy0eH05Jp1TiJVs0z6HT2mQBEIobdekyceBIE1ULdIFRwApCdnW0HPs5xnFSUrVu9Tq9atYp58+axaNEiDh48iMvqpTYYDPLdd99RWFhYLaDBEcjUFMQ4hzvXzTmeysFSwyKRCBUVFUecV22fmp4awuFwVRPR45hfXf/8HKLnWZc/TqqpsvqoCv9CnAoMq3J+KBRi7dq17DtQ1ReboR4m0aCGoF/DRZx1u/zki418tOG/bM89gA6EzaobqQl4AB8QZ33cgGZAJAhauOoNHpt2HuTd/6xnzTffA+B2VfWcLk6OH9/dRI3UydO4cWM8Vv85HKHYw7BeS7Fx40ZGjBjB9OnTeeyxx3j44YcZP348ixcvBqC4uJgbbriBpUuXArBv3z4qKyuj5gbl5eUEg0ECgQChUIiI9fqMQCBAaWkp5eXlHDp0iNLSUsJWF/S6rlNaWkpZWRllZWWYpkl8fDxYF4BAIEBxcTFlZWUEAgE7d0oIIU5VqkFHQkICAwcNomXLlmD1QVYbM2Lgsx4Gvli1mm8+W0Px7j34DIg3qoIfLRDmv19sZPnb7/DmG2+wcukyvvvqG7SAgUcD3QS3C/Ly9rFu3Tq+2rARAJe76vUeUUuM+rf4pUgQVAsVFDhzVd566y0KCwtJTk4GR66PcxpN0ygqKmLs2LGUlZWxbNkyPv30U9asWcP5559PTk4OmzdvJjk5GV3XadSoEVgBluoMzbA6BgPw+/14vV58Ph8eqwMwzeqQLDExEb/fT0pKComJibit9zGZpkliYiIJCQkkJCSwc+dOHnjgAbZv347H48Hn85GcnExCQoLdzF1zNEV1Zh9LcCSEOBWo3OvKykpWr17Nvn37wOpktTaaBmao6t1qN/32N0y5bgLnde+MpoPLBbm7crn73nu4dcYM7r//Ae6//wHuu/8+brz5Rh569GGKSw6Dpyq0ubDLr7j7xuuYNHIIWMvWfkJLS/HzkiCoFiooUPWCAEaMGEF6ejqHDh0CRw6RChRUEcP8+fPJy8vj1VdfpWHDhvZ4v//97xk5ciQFBQV4rRcX7tmzh5kzZ5Kdnc2NN95ot87xeDx8//33/PrXv+bcc88lJyeH9evX28u47bbbmDNnDs8++ywNGjRg2rRp7N+/3/593rx59OjRg65du3LrrbcSCoXsorwHH3yQc889l0suuYRFixbhtnr/Vdvg3CYJgoQQpwJ1bfP5fDRq1Mj+t36Ufs40Z/8/Vumw+ufu3fu4/fY7eOut/6O8ogKvz0vDhg2JGCb5hQW8Ouc17rzvbvbm5RMASkyoerxV1Cvr+aHL6SN1PS1+dhIE1ULl6jhr03/zzTd21+44Tip1Eql/r1q1is6dO9OsWTMMwyAhIQGsoqiZM2dy/vnnEwwGqaio4Pnnn6d58+Y8/vjjLFmyhGeeeQaALVu2MHXqVLxeLytWrKBt27b8+te/ZsuWLQC88847PPDAAzRo0IBZs2axYsUKHn30UQBmzZrF3LlzeeSRR3jwwQc5cOAAPXv2JC0tjenTp7N7925eeeUVpk2bxowZM5g/f/6Pgh8hhDiVqGuc2+2mWbNm9mtw1APvkZimidddlVvz4JNPcetjj/LBmnUA3Hvf/Xz22Roy0zNJ9CfQu1dvxowdS+/evUlISCIrK4sNGzfy9NPP4AOWfPgRN9zzAM/8/TUAvF4fkbAqDpPg50STIOgYqJwV0zTtCsHRJ4w6uZTc3FwaNmwIUUVmuq7bJ15paSmJiYlcf/31XH311YwePZrhw4ezefNmsLJsJ0yYwG9/+1tSUlIYMqQq+zQ/Px+sXKh7772XcePGMWTIEMaPH8+aNWvAeq1Hjx49uPDCC+nfvz9ZWVl8+umnYLVwGzJkCKeffjoXXXQR3bp14+WXX7a3U32wtiu6yE8IIeojVRx2+PBhVq5cSV5eHlgNPZzXvB8xTSKRquKwkTnX8NubptGl6//jo48/5ZtvviYhIZGIEeHGm27irrvvYdyEiTz06CNMmfIbIiGTcGWYjeu/5j/rNjKgd0+m/+53DL7ySgBCoaqep39Y1g9/il+e3N1q4cwFUi9WzMnJ4bTTTrMDEXVSOXOBwuEwzZs3t08wZ8BkGAa5ubmUlJRgGAZut5sGDRrYvx8+fNguamvfvj1paWm8/PLLTJkyhRtvvJGKigq73lAgECA1NdWeTrNe/AjQt29f5s6dy0MPPcSLL77Irl27GDx4MFu2bCEQCDBlyhR69epFr1692LVrF2PHjrXXLxyuOtkNw6CiosL+t2m9SiQUClULlIQQoj5Q10e/38+ll15qvyfP6/XaD7rRD7gAmq4RMqqug63Ss2jqSyARjf9+vZFwKEhqWiO6dT+PSy7vh+5zY1C1nBEjrqH9rzrgMj2Ul1TwzZff4AdaN/DTPK2qaoKhOmW0F/bDn+KXJ0FQLUyrPlA4HLZbD8yYMYNt27bRtGlTcLQ2MKy3hEciEdxuNz169GDNmjVs2bIFTdMoLy8HqxXCqFGjWLRoEampqezbt4+EhAQCgQDhcJiUlBQ7CPrjH//IhAkTaNiwIY8//jivvvoqfr+fsrIysFqNKepN5KWlpQAcPHiQ3r17k5+fz+7du3nqqafo0KED27Zto1GjRixevJjPP/+cdevW8cEHH9C5c2fC1rtwVP0gl8tFfHy8vY0qV0j1dSSEEPWJum6FQiG+/PJLu2J0dH3IaBoabr0qsHnn/eUsfn8ZuQf2cbCggM8/X8v+fXtp1KghoUAIIuD16RghcGvQ4Vft2Ld7DxvWf8mhwiJyi4M88fIcPvvyWwC8bhcmVQ/T4sSTIKgW6slAvVke4Prrryc7O7takZQaVzEMg7Fjx9KyZUuGDx9OUVERhmEQCAR45JFH2LNnDxdffDElJSVkZmYSHx+P1+u1K0Orlgpbt26lbdu2/O53vyMpKYnnnnuOgoICOycoMzPTPql162WmztZlxcXFJCQkYBgGS5YsYfPmzfTv35/k5GRefPFFe3379+/Pww8/jNvt5qmnnmLBggXouk5eXh7PP/88K1euBOA///kPDzzwAFjbq1qvCSFEfaCul4bVq7LKGVLX9yMxDXBbbwzbmZ9PXqCCCsNkdM44nvrTMzz4wEMMvGJA1cOyq6pIS/eA5oWBAy7jvvvv4fEn/sjAYVeyt7SQg6FS9u7ZDYCuGZimWr48XJ5oEgQdhQqEVG7I5s2bKSsrs4MNZ/Cjckqw+qGYN28ebdu2pUePHrRu3Zqzzz6bbdu2MW/ePLKzszFNk7i4OAoLC+2Ts6SkBJ/PB8DkyZMJBoOcfvrpjB49mvz8fEKhkN3p4a5du+yiqoj1eo7CwkKwml1u3bqV9PR0MjMzWb16NVOmTOHQoUO88847bNu2jW7dutGtWzdcLhf3338/AM8++ywzZ84Eq2L2DTfcwNtvvw3AP//5T+69914CgQBut9tethBC1Acq6ImLi6N79+5kZGSAVRxWK02n0qq7PO7qUUy4bDBNshvTrFkTbrx5GkOGXUnbdmcR0iACGI4MpWZtmzPmulFc+5sxtD4jm7ZNsnlwylSGXNEPgEDAQNfU8jWJg04weXdYLdQyVR86uq4zYsQIVq9eTW5uLrr1mgGXy4XhePEdUcHRtm3bKCwsxOv18qtf/coOqMLhMHv37iUtLc3OCcrLy6OiooLTTjsNXdfZt28f33zzDRkZGZxzzjns3LmTzMxM4uLi2LJlC6effjput5tIJEJeXh6RSITU1FTOOussXnjhBS677DKw6gxdccUV3HLLLVx55ZUcPHiQ3bt3c/jwYc4991zi4uIwDIO8vDxM0yQ7OxvDMDh06BCmaZKamkplZSU7duygbdu2jB49mvPOO49p06ZV2/YTfYyEEOJo1DUqGAzi9XopLi5m9OjRzJgxgwsvvJDy8nL8fn+1e46aBuDPf/4LWae3ZuhlfdkLBAA9AgkuCAMYEImAaUKStyoQKquExDiocGSYax4IVtWzJlkDXxg+XPYftm/ZzG9+OwHDAF1dQrXjqx+kcrnk3WHHRoKgo1C7R9X1mT17NjNnzuSDDz4gLS2NUChUrQ6NGtflchEIBOzODZ0CgQA+n6/aNtUUPDmza6M5E3JNiXr06NF4PB7GjRtH06ZNmT17Nhs3buSFF14gIyPjR/ONnkf0v6MNHz6cCy+8UIIgIUSdp65R6poaiUSYOXMmV111Fa1btyZsvWX+SEHQc8+/QOOzOzC4z/lMe/Q5/AlVHdMGgkF0vepFqpo1rrqWm6aGrukYJoCJS3dhRMK4NBeEQ8S7dB66eRxLl6xj6zffcP1NY6sHQfrxBUGmVTfVGQSpnHu31ZmuXKd/IEFQLZw5QbrVS/OAAQNYs2YN+/fvR7cqTbtcLswa3rSOFchEIhEMq+6Q23qLvNqWkPUWefXviNX83plbpJbhcrkIh8N2SwZVLKVyojRNI2w19Tx8+DB33XUXn332GR6Ph9atW3Pbbbdxxhln2CdCxCoHd7lc1ZZnmqZd+VkFcurCofbDmDFj6NGjB1OnTpUgSAhRp0UHQcFgkAceeICxY8fSunVr+8G0tiAo88yzGN6vN3uA+KrMHyJWnGI6vqOZjt81651iLivG8QAr/u8Ttm/dym9+O0aCoJPgx3dtYVMJRZ0QhmHQoUMHkpKS7Ho5R+NyufB6vcTFxREXF4c76oWU0TlFbqtytDoRPR6PXXHa5XLh8/ns6X0+n52jo+ahAqrk5GSef/551q1bxyeffMKsWbNo06aNHTS53W58Ph8+n88OgJzLx9ruuLg4exnOYC0vL4/i4mJ7OiGEqOvUw2gkEmHr1q126zD18EdUbryiYeK13u/VyHpJqhtIsgKiRMcnyfpOsP5Osv72W8M1a1q/FQS53WFMLaAWdNzFYOL4SBB0jFROT3p6Ol6v185F+bky0lTQc7ycJ7DKGQoEAlRWVhIMBu31VwHN/+r666/nkksugSNcNIQQoq5RD4vx8fH069eP7OxssB5G1TXUeU1Xf3s8brSA1c1JxCTOhPhwpOpt8da/fSbVvuNN8BomcYZJIuA3TXymSXzEwBX+oTVaIFSM2xe2cn6qXklvSiB0wkgQVAvnyaByS959910OHjxod3BYUxHYyaACEdPq7EvlGsXFxdnFZz9XsBKJRBg0aBCdO3e2O06ULFYhRF2nHl4rKipYunQpe/fuBatagrp+1XQd83m9+H1VOeRul4ZLA5/bVVWkZf27po9b13DpGjrg1jTcmobHpeOxXsEB0KBhApq76l5TGSgFTEeT+eP3c17zT2VSJ+goVLlwZWUlcXFxfPTRR9x66628+eabNG7cmEAggNfrtXNaTqboJ5hfcn1U83gpYxZC1HXRdYJCoRAPP/wwOTk5tGrVyr6+q9/VNOr+8/LLL/PBB+/Ttm0bystL8Xiq6tioupA/zraxcubR0E0NzQRTMzE0k4iuYWhVv4FGeWk557Rrz9gx48C0mvHXNMtjZFitw5YsWcKtt97KV199Ja3DaiFB0DFQiV3XdcaOHctHH33Eli1b7MpmrloqRp9I0YfyZO0vIYSoS6KDINM0eeSRRxg6dCht27Y9aoBQcriE8spyNJdGJBxC17UaK0FH00wrCAJABUFgaBqmAS7djRYBv89PcoNETIOqF8prjtrUP5EKgqSJ/LGRPXEMVBAWDAZp3LgxPp/P7tW5LlEBo/oIIYT4gSoOKykp4bPPPqOgoACszmWjGdarkAzDICkpiaz0LDIbZdI44zSy0pqQfQyfrPTGZGRkk56RTXpGYzLTm9A4tQmnNWpM07TGNG6UQXZ6BkmJiRhWCZhpHn8AJH46CYKOwrD6/zEMA6/Xy4UXXkhSUhIlJSX270IIIeo+VbczMTGRIUOGcPrpp4PV0jaayi1RD8ERI0zYDBM2Q4TNICEzSIgjfUKEzTARo+pjGGEMI0TEqBoeMiOEzAhh0yASMcG0coD44bvKseQ3VWda9UKdHxxBXW2fWCRBUC1Mq4jLWU78+OOPs3PnTrKyssDRDbsQQoi6TeUEVVZW8uGHH7J//35w1HE8El3Tcelu3Jr6eKo+HOnjxqW5celVH113oVt/V03vsj46LpeG7nIUg6kPHFd2kLMk4KcENrFaeiBBUC3UE4Cu63aOT05ODhkZGRw8eBAkJ0gIIeoNdaPXrRdOqyDhSA+zNVctqIpSjv7fj6dRQU21OMcxiqapsrD/zY/X+eh+SsB0KpEgqBamVRlbVSQLh8OsW7eOkpIS/H4/HGdiE0IIceKp67XX66Vdu3Z2jn7dUWN49JOowO2nFnHF6r2szgVBNUfeJ5+mabjdbgoLCwkGg9V6WRZCCFH3OfsJWr58OVu2bAGrYvRPCRjqMnUP/an30VNl+3+qOhcEqeIn9ffJPDAqmlb1ggAGDBhAamqq/cqIk7l+Qgghjp0q9kpMTOSiiy6iSZMmYPUYTQxez02r9VusbbdTnQ6CnO+qOhmii8MA3n77bYqKimjYsCHEcBaiEELUN+pmHw6H2bZt2ynbyvdoOUEqg0Hd42ob91RX54IgTdPsgONkR6gqYagcIYBOnTqRlJREWVkZxOCTgxBC1Ffqeh0KhTh8+LD9b5XTf6r5qQFOLN7P6lwQVFcOgoqScQRDhmEQCoVwuVw/KrI71Z4khBDiVKPqcsbHx9O9e3cyMjLA6ifopwYMpxJnhkNduQefKHUuCKoLVBahEg6HqaysRNd1vvrqK8rKymrsXEsIIUTdFQqFACgtLWXx4sV8//33YPUbFItUKUcsB4ASBB2BShgq50dVnLvhhhvIzs7mwIED4Hj78JH6mRBCCHFyOas0YOUEdevWjebNm4N1vT9Vi8Rqo+5zzpKPWCNB0BGoIi6Px4NpmoTDYQKBALNmzSIUCtGoUSMAEhISfnSCCSGEqDvUzd7lchEOh8nPz0fXdYqLizFNk7i4OHmQjVESBEVxRsaa1TJs69atPPnkk4wYMYL8/HxatmzJ9OnTWbt2bbVphBBC1D2qDuf27dv5wx/+wJQpU3j//fe54447mD59Ops3b6ayslIeaGOQBEFRVDDjcrkwTZPNmzczc+ZMdu/ezZgxYxgzZgxXXnklfr+fhx9+mE8++YRIJBLT2YlCCFFXqWvzjh07ePTRR9m/fz9jx45l6tSpjBs3jvj4eH7/+9/z/vvvYxhGtUBIrumnPgmCHFQLL5Xwg8Eg8+bNo7y8nNGjRzNs2DCGDRvG6NGjmTp1Kk2bNmX27Nns37/fftIQQghxcjmv5ZqmEQgEePbZZ4lEIowbN46rrrqKq666ipEjR3LzzTfTvn175s2bR25urj2d81ucuuTOXQNnEPTFF1/Qs2dPevbsSSAQIBwOYxgGrVq14vLLL2fTpk32y1SjpxdCCHHyBQIBtm7dSocOHejYsSPhcNiuCJ2WlsbQoUPZtWsX27dvj570lCatwyQIqpVpmpSXl5OQkGAPc7vddjPLtLQ0UlJSpEKdEELUYW63G9M0CQaDGIaBy+Wqdt1OSUkhMTGRYDBYbbpTnQqAYrk6hwRBtYhEIng8HvvE0HWdYDBoR8yBQICysrKYbFophBD1hcrB9/v9eL1e+xquXpxaXFxMaWkpcXFx0ZPWW7quH7GahjMHSHKC6rATfVDU8pzfnTp14pNPPuHTTz/F4/Hg9Xrxer3k5eXx73//m6ZNm5KSklLjfIQQQpx8Pp+Ps88+mw0bNvDtt9/aw71eL6WlpSxdupTs7GySk5OrTVdfmaZJZWVltfde6rpeLdhR/1bfsarOBUHOg3GiX0XhjIoNw6BBgwZcc801hMNh3nrrLRYvXsyiRYv45z//yZ///Gf27NnDqFGjaNq06QlfVyGEEDVTN351P4mLi2P06NFomsYbb7zBe++9x8qVK1m+fDkvvvgin3/+OYMHD6ZNmzaYjpd4HyknpS5y3oN0XadZs2b4/X67+oZTLAc90TTzJBcEqkg1FArh8XgYN24crVu35s477yQcDttZeio4+aVFZxGapsnnn3/OwoULWbt2LT6fj/j4eOLj45k0aRI9e/YEK1Gp9XQ6EesshBDi6DZv3sycOXP48ssv7a5NEhISuO6667jggguIj4+PnqTeUPfSiooK4uPj2bx5M9deey1vvfUWycnJhMNhu26U3Jd+UOeCoLFjx9KmTRvuvPNOIpGInVV3og5cdBCkFBUVEQwGueeee/j6669ZsGABWVlZ1QK1mpyIdRZCCHFsSkpK2LNnD2+//Tbnn38+nTp1Qtf1ev8+SHUvraysJC4ujk2bNjFx4kSWLl1KUlKSBEFHUPOdO4bVFACFw2GSk5PJzMykrKyM3NxcsrKywJHwVCdbQggh6hb1rB+JRGjQoAFNmzZl7dq1hMNh4uPj7bfLn0pU6YSoneyhGjiDGRUQBQIBAPr27UtqaiqHDh2yA6aTnJkmhBCiFtHXaJfLRfv27e1GLeqaHz2eOPVJEFQLZ46Qajq5YMEC8vPzadiwIVgnkxpXCCFE3afrOkVFRfa/pWFL7JIgqBbOHKFIJEI4HKZLly4kJSVRXl5ebVwhhBB1mwp2IpEIu3btoqCgAKwqD5KrH5skCDoGKhhyu90kJyej67rdQaLUAxJCiPpB5dz7/X769etHdnZ2teFyPY89EgTVwvlUoCrOrVixgoMHD5KUlOQYs4o8RQghRN2lHl7LyspYsmQJBw4cACsnCLmGxyQJgmqhWZ0m6rpunyR33HEHLVq0YM+ePRBVlixPEUIIUXep1lI+n49OnTrRtGlTsK7dcv2OTRIE1cK0eg5V/RUBPPPMM+zdu9fORnU2QZSnCCGEqPvUdb2iogIcxWEi9kgQVAv1ZKCawkciEc4++2zi4+Ptk6em8YUQQtQ9qjisvLyczz//nLy8PHC8SFUeZGOPBEFHoTpBNAwDl8tF165dSUpKoqyszP79SCQoEkKIukPV7UxMTGTYsGE0b94crBepItfsmFQngyAVjZ/sBKmKwwzDsE+ep59+mt27d5ORkQFRxWE4ypZP9roLIYSoTuUEVVZW8v7777N///5qwyUnKPbUySBIMQzDzmk5GUGFKgZzNokfOXIkWVlZHDx4sNp40cGQEEKIukXdR3RdJyEhwa4L5HK5TpmHV2cg5yzii/4WVeTOXQvT6jHa+V6wVatWUVJSYjeRV8MlYQkhRN3mDIJatmxp5+ifCsFPNKnjdGzqXBBkmmat9WxOFnWSBINBu9m8EEKI+kPl6FdUVPDee++xdetWcFSMPpWcKjlbvzS5k9dCFYdpmmafPJdeeikNGzakpKQEJAdICCHqDVX8lZSUVK3HaI/HA6dYjpDkBB0bCYJqoQIg0zTtk2f27Nns3bvXfoHqqXTSCCHEqUwFBaFQiM2bN9utfNXwulgKIX5ZEgTVQgU4LpfLPknGjx9P48aN7RfvSaQthBD1SygUIhgM2jlAoVAI5KE2JkkQdAwMw7CzFvft20coFLL7lRBCCFE/OF+bce6559KoUSP73xIAxSYJgmrhzCLVdR1N0/jggw8oKir6UeswIYQQdZt6B2R5eTmLFi3i+++/ByAQCEgdmhglQVAtNKt5vNvttitGR79AVQ0XQghRt6m6nYmJifTt25cmTZqAo2K0iD0SBNXCdPQYrU6Sxx57jO3bt9snj7x4Twgh6hfDMCguLrbrAonYJUFQLZxFXSrHp0uXLjRo0IDy8nLHmEIIIeo6Zz9BX331lf0C1ZP5ZgJxckkQdAxMqwNH1VRe5Q4JIYSoP1TOfUJCApdffjlnnHEGWC9WlQAoNkkQVAtVSU4FP5qmsWLFCoqLi+2K0UIIIeoH9fBaVlbG8uXL2b17N1g9RovYJEFQLVRHibqu260KRo4cSUZGBkVFRSD9BAkhRL2hmsjHx8fTsmVLEhISwMoJkmt5bJIgqBamo8doVTF69erVHDx4UJrICyFEPaXrOqmpqfh8vuifRIyRIKgWKsBRfQQZhkFqaiput1taFQghRD2jKkaXlpbyySefUFhYCI4eo0XskSDoKFQZcjAYRNd1+vfvT3p6OsXFxdV+F0IIUbe53W4A/H4/l19+OS1btgTA6/VKrn6MkiCoFqo+UCQSsVsV3HfffWzfvp2srCxwlDELIYSo21ROUDAY5KOPPmLnzp3VhovYI3fwWqgiMJfLZWeX3nfffbRo0YJ9+/aB9C8hTjGGYRCJRKp9C3Gq0XWdxMREu06QemWGVI6OPRIEHYXKCVIny6pVqygoKCA5ORkclaeFqM9M0yQSiaBpmt0XluoWIhKJyM1B1GuqgYvi8/no2LGjfR13tgQWsUWOeC3USeMMcg4cOICu63ZQpE4aOXlEfaVyfVQnoJFIhEgkYncLoXJEJRAS9ZVKu+q7vLycZcuW/egdkCqdS1qPHXLnPgJVDBCJRCgoKODZZ59l7NixBAIBunTpwl133cXevXvtinZC1Efq6dftdrNr1y4eeeQRxo0bx8iRIxk/fjyPPvoo3333HdTwNC1EfaEeUktKSnj22We59tprMQyDJ598kunTp5Obm2vngiJpPaZIEBRFJXz1RJybm8v999/Pxx9/TNu2benUqROdO3fmwIED3HXXXWzZsiV6FkLUG+pi//333/Pwww+zY8cOOnbsyPnnn0/nzp3ZunUrf/zjH/n2228xDEOKfkW9tXfvXmbOnMn69etp164d3bt3p1u3boRCIR5++GE+++wzu0hYqjnEDs08yeGuYRjouk4oFMLj8TBmzBjOPPNM7rnnHsLhcLXo/JemEr76Lisr489//jMbNmwgJyeHSy+91B5348aNzJw5k4yMDKZPn056ejqaptlFB263u1qLA9XCTOUwuVwuwuGw3VOpmiYcDqPrup0l63K57KIKzaqf4Zy3bvVmfaT5OJftrPOhhtU0TW3LVsOOZRvUstX6apqG7mhtp/aFOv7qODv3X03Ldq7bsSzbuRzndpuO3sCdw5zziV42URXma5omervVvvpfln2kbXBut0p/zvV17nOPx4NhGPY5p34/ePAgTz/9NPv372fKlCl0794dZdOmTTz55JOkpKRw4403kpGRgWEFQ2obndsQfRzUNjqXrdJNbdut0pXaf875qOVEz+dIy64pDeiOdH4sy1bbGr0ctc/VPlXfzuOgpqnt2Lms+ldHW7Za31AoVG19VRpxDlP73LSuZ9HL9ng8x7zdaj4qXdW2bOc06jiptKb2VU3zOdKy1Xa7rAYqzm040rKd42G1Bnvqqaf49ttvmTJlChdeeCHKrl27+NOf/kRZWRl33303zZo1s/eZmnd9oNa1oqKC+Ph4Nm3axMSJE1myZAkNGjSw77H1aZtOCPMki0QipmmaZjAYNE3TNHNycsz777/fNE3TDIVCZjgcrjb+L0mti1pmYWGheckll5hPPPGEaZqmaRiGGQqF7PEXLlxoXnTRReaWLVvsYULUN3v37jX79+9vzp492wwGg2YwGDQDgYBpGIZpGIa5cOFCs1+/fub27dujJxWiXigtLTUHDRpkzpw50x4WDAbNUChkGoZhrly50uzbt6/53nvvmabjXqC+6wO1ruXl5aZpmua3335rdu/e3SwuLjZNxz22Pm3TiSA5QQ7RT2uHDx9m2LBhjB49mrFjx9rjBYNBvF4vn3zyCX/5y19o1aoVy5Yto0+fPhQUFPDVV18xYcIEXnrpJTp06EB6ejrvvPMOEyZMYNmyZTRo0IBOnTrx6quvMmHCBDZu3MjOnTsZPnw4r776Kn369KGyspLPPvuMUaNGsXDhQjp06ECLFi147bXXGDlyJJ999hnhcJgLL7yQ1157jcGDB7N792527txJTk4OL730Eueeey4NGjRg+fLljB07liVLlpCUlESnTp147bXXmDhxIl9//TVbt27lqquuYtasWfTt25dQKMRnn33G2LFjee2112jbti0tW7Zk7ty5jB8/nk8//ZRwOEzPnj2ZM2cOgwYNIjc3l127djFmzBj+9re/cc4555CcnMzSpUsZN24c7777LikpKbRv35433niD6667jvXr15Obm8vQoUOZNWsW/fv3p6SkhM8//5zRo0cze/ZsOnfuTJMmTZg3bx7jx49n1apVaJpGnz59mDt3LoMGDWLHjh1s2rSJ8ePH89JLL9GxY0dSU1NZsmQJOTk5LFmyhJSUFNq1a8eCBQuYOHEiGzZsYMeOHQwYMIDZs2dz8cUXU1lZydq1axk1ahRvvPEGHTp0oHnz5syfP58xY8bw8ccfA9CrVy97u7///nu2b9/OuHHj+Otf/0qnTp1ISEhgxYoVTJo0ibfeeovMzEzatGnDnDlzuPbaa1m7di35+fkMGjSIWbNmcckll1BWVsbnn3/OiBEjWLBgAf/v//0/mjZtyuuvv87VV1/N6tWr0XWdHj16MG/ePAYNGsT27dvJzc0lJyeHv/3tb3Tp0oXExETef/99xo0bx+LFi8nKyuKMM87gn//8J5MmTWLNmjXk5eVxySWX8Oabb9K+fXvOPPNM3n77bW666Sb69++Py2odZlotxpYvX87ixYvxer1s2rSJ7t27s3v3bnJzcxk1ahR//etf6dGjB263m1WrVjFmzBjeeust0tLSaNOmDfPnz6+23UOHDmX27Nn079+f0tJS1q5dyzXXXMNrr71Ghw4daNasGfPmzWPcuHGsWrUKj8djp7UhQ4awefNmcnNzGTNmDH/5y1/o0qULfr+f999/n4kTJ9rb3apVK958800mT57Mxx9/TEFBAZdddhmvvfYaV1xxBQUFBWzYsIFrrrmGV199la5du5KWlsbChQu59tprWblyJX6/n+7du/Pqq68ydOhQtmzZwrZt2xg3bhx/+ctf6NatG4mJiSxfvpxrr72WRYsW0bhxY1q1asWcOXOYOnUqn3zyCXl5efbxvuKKKygpKeHLL79kxIgRvP7663Tv3p20tDTeeOMNJkyYwMqVK/H5fHTr1o1Zs2ZxzTXX8N///tfe5y+88AK9e/fG5/Px4YcfMnHiRObPn0+LFi1o0aIFr7/+OlOmTOGjjz6iuLiYSy+9lNmzZ9vLXr9+PTk5OcyaNYuOHTva59jkyZP54IMP8Hg89OjRg7lz53LVVVfx3XffsX//fkaNGsWLL77I+eefj8vlYuXKlUyaNIkFCxbQtGlTzjjjDObPn8+kSZP46KOPOHz4MAMHDrSXnZ+fz1dffcXIkSN55ZVX6NKlC2lpaSxYsIDJkyezfPlyEhIS6Nq1K3PnzuWaa67hiy++4MCBA1xzzTW88MIL9OnTB9M0+c9//mOn8yZNmtCiRQv+8Y9/MHnyZFavXk1JSQkXXXQR8+fPp1evXuzcuZN27dpx22234XbU5TRNk6+//prbb7+d6dOn2/OXnKDYIEGQg1oX9Z2fn8/YsWO5+uqrGT9+PIFAwP7N5/OxcuVKnnjiCW655RZatWqFx+NB13UOHTpEeno6+fn5eL1eEhISOHDgAA0aNCAQCNCgQQPcbjcFBQU0atSIiooKysrKyMzMJC8vj/j4eCJWC53U1FQKCgpISEggLi6O/Px8UlNTqayspKysjLi4OMrLy8nMzOTw4cNUVlaSmppKfn4+ycnJ+P1+8vLySExMpLy8nKSkJDweD/v27SMtLY2KigoqKirIzs4mLy/Pfkeabr1bZ//+/fh8PuLj4zlw4AAZGRlUVFQQCATw+/0cPnyY9PR0ysrKCIVCpKWlkZ+fT1xcHHFxcRQUFOD3+6moqCApKQm3201+fn61aZo0acKBAwfsLHSAtLQ09uzZQ1xcHD6fj4KCArKysigrKyMQCBAfH09lZaW93RUVFaSlpZGXl0dcXBzx8fHk5+eTkpJCWVkZfr8fr9fLwYMHSU9Pp6KigvLycvs4qaxzTdNo1KgR+/bts6cpKiqicePG9nGKj4+393lxcTHl5eX2dvv9fuLi4igsLCQxMZGKigoaNmxopye13ZWVlaSnp3PgwAH8fj+GVQetUaNGFBQUkJiYiNfrpaCggNTUVHt91bIzMjIoKSkhGAzSqFEj+3ir7U5MTKSsrMxOa/v37yctLY3y8nJCoRCpqans2bOHRo0aUVhYyPTp05k+fTr9+/cnHA5jWEU1Xq+XhQsXMmvWLGbMmEGzZs3weDxomkZpaSkZGRkcOHCA+Ph4e32TkpIoLy+3l71v3z4yMjIoKysjGAza6dxZXKHSWmJiIm63m4MHD1bb5z6fzz5epaWl9rlx4MABkpKS7DSSnJxMcXExiYmJeDweiouLycrKorS0lIqKClJSUigoKLCLXnRdt493QkICbreboqIiMjMzKS8vp7y83D7HsrKyKC4u/tE+9/v9HDhw4Ef7XJ0van2zsrI4cOAAcXFxRKzWd+r8btiwoX1NSE5Oto+3WnZ2djZFRUUEAgE7nTu3OzExkdLSUho1aoSmaeTn59vpE/jRPjcMg7S0NPbu3UtiYiIul4uDBw/SpEmTaudYSUkJmZmZlJaWAtjb7fP57HM5KSmJsrIyUlJScLlc5OXlkZ6ezuHDh4lEImRkZNjLVtfP1NRU9u7dS1JSEi6Xi6KiIpo0aUJ5ebl9XSsrKyMrK4uioiJCoRANGzYkPz+fhg0b1ni83W43eXl5ZGZmcujQIfv8DQQCHDp0iN///vf07duXqVOn2vcUzSouXrduHffccw8PPfQQ5513nv0gXJ8CBgmCjo8EQQ5qXdTNsLi4mNtuuw1N07jjjjto2rSpPW5ZWRl/+tOf+Oabb3jsscdo1qxZtXkJUV/k5eVx22230apVK26++Wb8fr/928GDB3nuuef47rvvePzxx8nOzq42rRD1QTAY5LrrriM5OZk777yTjIyMar+98MILfPDBB9x+++107drVvgeo7/pAgqDj47rvvvvuix54IjmzHV0uF//6179ITU2lV69eGFYFzBN1wFRiV+vjdrvJzMzkvffeIzc3l8TERA4fPkxeXh5vvPEGq1evJicnh3PPPbdaxT9Vuc9w9DkRsSr0OofV9LdzPDVPtR/UPLEq3qpx1fKc86lp3tHD1DRq+ojVQ7D6RG/DkdZRMR19cTh/V3871905b/W3+jiHRa+v2m41rto/NU3j3C7n7+ridqTtcc7TOZ7zb+ewIy07erya/nZ+G459XtPxVuM41zF6PtHzdA7DOjaqMmsoFMI0TeLi4vB4PCxevJjc3FxSUlIoLCyksLCQ119/nXXr1jF8+HA6dOhgz0+3ckzVeqh1VfNU+16dD2o609pX6nc1rvO8UcOOtD1qnOh5O9dDjafWsab5qE/0fJzTqr9r+722eR/rfJTobVDzVNtQU7qKXk5Nw2pbtnM5NQ1T4zqniZ63GmYeYR2j/65pmuh5Hu/6OudtOBoCZGVlsXz5crZs2WLn3O7du5fly5ezdOlSRowYQc+ePe2cTurZmwBMKy2rSvEFBQUsWrSInJwcfD4fhqMxR33arl+a5ARFUQlErRfA6tWreeONN9i+fTuBQAC3201WVhY5OTlcfPHF9glaU8Jy/uac59HUNk8cvyv/63g4gpefso61jR+9bGpZ/tHmpUTP80jzU45lvsc6z597PKeTcbydwuEw7733Hv/617/YuXMnhw8fxuv10qZNGwYOHEifPn3sm0Nt56O6cR1tvJ9CHUPNesgQ4lioNKO+sa7lc+bMYe/evQQCASJWEfTIkSO59NJLiY+PrzZ+faLuL5IT9NNIEHSMdu/eza5du9Ct+kCJiYmceeaZaI6mp0LUZ8FgkJ07d1JYWGg3nT7ttNPsot6jBWr8QkGQEMerpkBo165d7Nu3D5fLRUVFBcnJybRq1Qq/31+vr+USBB0fCYJq4Nwl6im0pnVw3hTq69ODiE013RyOherP5UgkCBJ10U9J5/U1EJIg6PjInqiBZmW7a1Z9JJfVSiAUCtmfiKMOkJpGiPriSOk2Op2HrfeHmVa9Dbl4ivpIBfxYQU5NaVypjwGQOH5yRTtGuq7j8Xjsj5wo4lQUnc7dVo+9OB4OhKhvnLn7LpfrR2lcxC4JgoQQx8T5NC1EfSIBvDgSCYKEEEIIEZMkCBJCCCFETJIgSAghhBAxSYIgIYQQQsQkCYKEEEIIEZMkCBJC/GycfWwJIURdJ0GQEOKYSXAjhDiVSBAkhKiVM3fnaEGQZvWyfrTxhBCiLpAgSAjxs5IOFYUQ9YUEQUKIn43kBAkh6hMJgoQQQggRkyQIEkIIIURMkiBICCGEEDFJgiAhhBBCxCQJgoQQQggRkyQIEkIIIURMkiBICCGEEDFJgiAhhBBCxCQJgoQQQggRkyQIEkIIIURMkiBICCGEEDFJgiAhhBBCxCQJgoQQQggRkyQIEkIIIURMkiBICCGEEDFJgiAhhBBCxCQJgoQQQggRkyQIEkIIIURMkiBICCGEEDFJgiAhhBBCxCQJgoQQQggRkyQIEkIIIURMkiBICCGEEDFJgiAhhBBCxCQJgoQQQggRkyQIEkIIIURMkiBICCGEEDFJgiAhhBBCxCQJgoQQQggRkyQIEkIIIURMkiBICCGEEDFJgiAhhBBCxCQJgoQQQggRkyQIEkIIIURMkiBICCGEEDFJgiAhhBBCxCQJgoQQQggRkyQIEkIIIURMqjdBkGma0YOEEEIIUQNN09A0LXqwiFLngiBN0yTgEUIIIY6DCnxM08QwjOifRZQ6FwQhuT5CCCHEcYlEIgC4XC48Ho8EQkehmSc54jAMA13XCYVCeDwexo4dS/PmzXnwwQcJBAJomobL5bLHM01TcouEEEIIi6Zp9j3SMAw8Hg9LlizhlltuYcOGDXg8Hvseq8YTVepcEJSTk0Pbtm256667okcVQgghxDHYuHEjkyZNYuXKlSQmJkoQdAR1LggaNWoUkUiE2bNns3nzZlwuFy6Xi0gkIpW8hBBCiCiaphGJRHC73UQiEU4//XQ+/PBDrr/+ev773/8SFxcnQdARnPQgSBVvhcNh3G43L730Eg899BBZWVmYpkkwGLSz+tS4QgghhPiBaZq4XC4A3G43JSUltGnThn//+98A9j1W7qPVnfQgCEcgFIlE7IMohBBCiP+NM+iRAOjH6kQQ5BQOhwmFQnYlaCGEEEIcG2ego2kaPp8vehThUKeCIIlShRBCCHGi1KnaURIACSGEEOJEqVNBkBBCCCHEiSJBkBBCCCFikgRBQgghhIhJEgQJIYQQIiZJECSEEEKImCRBkBBCCCFikgRBQgghhIhJEgQJIYQQIiZJECSEEEKImCRBkBBCCCFikgRBQgghhIhJEgQJIYQQIiZJECSEEEKImCRBkBBCCCFikgRBQgghhIhJEgQJIYQQIib9f7hB+SVzKpGRAAAAAElFTkSuQmCC;" parent="1" vertex="1">
          <mxGeometry x="100" y="-220" width="577" height="600" as="geometry" />
        </mxCell>
        <mxCell id="yvigqvCfVOGot-HgjFOz-31" style="edgeStyle=orthogonalEdgeStyle;rounded=0;orthogonalLoop=1;jettySize=auto;html=1;" parent="1" edge="1">
          <mxGeometry relative="1" as="geometry">
            <mxPoint x="476" y="883.5" as="targetPoint" />
            <mxPoint x="356" y="883.545454545454" as="sourcePoint" />
          </mxGeometry>
        </mxCell>
        <mxCell id="yvigqvCfVOGot-HgjFOz-13" value="" style="rounded=0;whiteSpace=wrap;html=1;fillColor=#f5f5f5;fontColor=#333333;strokeColor=#666666;" parent="1" vertex="1">
          <mxGeometry x="250" y="470" width="100" height="743" as="geometry" />
        </mxCell>
        <mxCell id="yvigqvCfVOGot-HgjFOz-14" value="" style="sketch=0;points=[[0,0,0],[0.25,0,0],[0.5,0,0],[0.75,0,0],[1,0,0],[0,1,0],[0.25,1,0],[0.5,1,0],[0.75,1,0],[1,1,0],[0,0.25,0],[0,0.5,0],[0,0.75,0],[1,0.25,0],[1,0.5,0],[1,0.75,0]];outlineConnect=0;fontColor=#232F3E;fillColor=#E7157B;strokeColor=#ffffff;dashed=0;verticalLabelPosition=bottom;verticalAlign=top;align=center;html=1;fontSize=12;fontStyle=0;aspect=fixed;shape=mxgraph.aws4.resourceIcon;resIcon=mxgraph.aws4.api_gateway;" parent="1" vertex="1">
          <mxGeometry x="263" y="843" width="78" height="78" as="geometry" />
        </mxCell>
        <mxCell id="yvigqvCfVOGot-HgjFOz-15" value="" style="shape=image;verticalLabelPosition=bottom;labelBackgroundColor=default;verticalAlign=top;aspect=fixed;imageAspect=0;image=data:image/jpeg,/9j/4AAQSkZJRgABAQAAAQABAAD/2wCEAAkGBw0PDQ0PDQ4QDQ0NEhAPDQ0NEBANDRAOFhEWFhYRFRMYHSggGBolGxMVIjEhJSkrMC8uGB8zRDM4QyotOisBCgoKDg0OGhAQGisjFR0rLy4rKysrKy0tLS0uLi8rKysvLS01LS0tLSsrKysrKy4tLS0rLS0tKy0tLS0rKysrLv/AABEIAOEA4QMBEQACEQEDEQH/xAAbAAEAAwEBAQEAAAAAAAAAAAABAgYHAAUDBP/EAE8QAAEDAQMEDAkICAQHAAAAAAEAAgMEBQYREiExUQcTF0FUYXGBkpPR0hUiMjVSU3KhsxYjNkJ0kbHBFGKChKKjwsNjlLLTJENkc7Tw8f/EABsBAQACAwEBAAAAAAAAAAAAAAABBAIFBgMH/8QAPhEAAgEBAwYLBQgDAQEBAAAAAAECAwQRUQUSITGR0RMUFTNBUmGBobHBIjI0U3E1QmJygpLh8BYj8bKiJP/aAAwDAQACEQMRAD8A8ULVH0YUAgoBQCFAEFASQHICSAQgFAIKAUAhAIKgCgJIBBQCgEIBBQCgEFCBQEkAoBCAUByEngArICEAoBBQCgEKASBQCgOQEkAoBQCCgFAKAQVAFASQCCgFAIQCCgFAIKECgJIBQCEB2KAr6yJJAoBCAUAgoBQCoBIFAKA5ASQCgFAIKAUAoBBUAUBJAIKAUAhAIKAUAgoQKAkgFAcgK+FkSKAkCgEIBQCCgFAKgEgUAoDkBJAKAUAgoBQCgEFQBQEkAgoBQCEAgoBQCChAoCSA5AV8FZGQhCBQEgUAoD7wUk0gyoopJG6MqON7248oClJvUjCdSEXdKST7WkfUWbVcGn6mXsTNlgY8PS68dqHwbVcGn6mXsTNlgOHpdeO1D4NquDT9TL2JmywHD0uvHahFnVXBp+pl7EzZYDh6XXjtQ+Dqrg0/Uy9iZksBw9Lrx2ofB1TwafqZOxM2WA4el147UPg6p4NP1MnYmZLAcPS68dqHwdU8Gn6mTsTNlgOHpdeO1D4OqeDz9TJ2JmSwHD0uvHahFnVPB5+pk7EzZYDh6XXjtQ+Dqng8/UydijMlgOHpdeO1EvB9TwefqZOxM2WA4el147UIs+p4PP1MnYmbLAjh6XXjtQ+D6ng83UydiZssBw9Lrx2ofB9TwebqpOxM2WA4el147UfOWnljAMkb4wcwMjHMGPOFDi1rM41IT91p/R3kFBmIQCCgFAIKECgFAV9ZGQgoBCECgLzsdXXjqi6qqW5cEbsiKJ3kySDOXOG+0YjNvnHVnsUKSl7T1GkyvlCVG6lTd0nreC3stdqX6s+lkMAEkrovEcKdrSxhGbIxJAxHFoXvKvCLuNTQyRaK8eE0JPHW+3pPybpdB6mp6MXfWPGY4M9uQbR1o+O47dLofU1PRi76cZjgxyDX60fHcdulUPqanoxd9OMxwY5BtHWj47h3SqH1NT0Yu+nGY4Mcg2jrR8dx26TQ+pqejF304zHBjkG0daPjuHdIofU1PRi76cZjgxyDaOtHx3HbpFD6mp6MXfTjMcGOQbR1o+O47dHofU1PRi76cZjgxyDaOtHx3DujUPqanoxd9RxmODHINfrR8dx26NRepqejF304zHBjkG0daPjuHdFovU1HRi76cZjgxyDaOtHx3HbotF6mo6MffTjMcGOQa/Wj47h3RKL1NR0Y++nGY4Mcg2jrR8dx26HReqqOjH304zHBjkK0daPjuHdDovU1HRj76cajgxyFaOtHx3H7LLvbQ1j9owcx0mYMqGtyZP1cxIx4is41oTdx4V8l2izR4TQ0ulPV5FSvxd5tJI2WEYU8xIyN6OTDHJHERiRqwPEq1elmu9ambrJNvdoi4T9+PTiv4Kwq5uBCAQUAoBBQgUJK+CsiRQCCgEIQbLdB21WFE9mZzYZ5B7WU84/er9LRTOOygs+3tPVel5GONOYY5zrOclUDsmSCECgEFAKAVAEFAOKEjihA4oLhBQDigJAoBxQDigEFQCbJCxzXNODmEOadRBxB9ylMhxUlmvUzU9kBoNmPJ0tfC4cRLwPwJV+0c2chkZ3WtLsfkZaCtedgKAQgEFAKAUIK+sjIQUAoBBQGy3Z+j7Ps8/8AWr9Pmu4422faD/MvQxxugKgdkyQKECEAoBBQCgFQDXdj2ONlkwyFoBcZ3yOw8Z2TM8YnXg1oHMr9BJU7zj8rylK2SjfglsXqcL92T6x/US91OHpjka2YL9yH5dWT6x3USdicPTHI9swX7kd8urK9Y7qJOxOHpjke2YL9yH5c2V6x3USdicPTHI9swX7kd8uLK9Y7qJOxOHpjke2Yf/SO+XFlesd1EnYnGKY5HtmC2oflxZXrHdTJ2JximOR7ZgtqPVgqKatpHPYBJBK2RvjsLccCWnMRjpBXonGcb1qKc4VbNWUZaJq7p7zEwfF5vyWrO96TWb/ea5Pag+I1bC0c2cbkj4xd/kzK1rzsRBQCgEIBBQCgK+syRUAQUAoDZrs/R9n2ef8ArV+nzXccbbPtB/mXoY005gqB2TJYoBBQCCgJYoQIKAcVANduR5ji9mq+NKr9Hmtpx+U/j3+nyRkbDmHIFQOxeslihBcLuXFnqWtlqHGmhdgWtwxneNeBzNHLjyKxToOWl6Eaa2ZYp0W4U1nSWxb/AO6S1M2PrOAwImcfSMpB+4DD3L34vA1Ly3am79Gw8a2djstaX0UpeRn2mbDE8TXjAY8RHOvOdm6pes2XU3m143dq3bthRZY3Mc5j2lj2Etc1wwc1w0ghVGrjfxkpJNO9MAUMjWbh+aIv3j4z1foc2jjsrfGy/T5IyVp8Ucn5LXnZvWa1f7zXJ7UHxGrYWjmzjMkfGLv8mZUtediSQCCgFAIQCgK+syRQCoAgoDbrkOYLGpTJhtYikL8oYtyMt+OI1YLYUubV5xOUk3bZqOu9XbEfmFrXc10PUs7qjOpdh68Xyl+Pa953hW7muh6lndTOpdg4vlL8e17x8K3c10PUs7qjOpdg4vlL8e17zvCt3ddD1LO6mdS7BxfKX49r3neFLu66LqWd1M6l2Di+Uvx7XvHwrd3XRdSzupnUuwcXyl+Pa953hS7uui6lndTOpdg4vlL8e17z2aeWmfROdSZH6OWS7XtQDY8xcHYAfrB3OvRNOPs6ilONWNdKrfn3q+/X0XeBhLNA5AtYd89Zatj2x21VYXSDKipQJHNOcOeSQxpGrM4/sr3oQzpadSNVle1OhQuj709Hd0/3tLJf29kkD/0WkdkS4AzTDAuYDoY3UcM5O9iOb2r1nH2Y6zWZJybGrHhqumPQse1mcyVEjnZb5Hvf6b3uc/H2icVTvfSdLGEYrNSSWFxbLoXwnhljhqpHS0zyG5chLnxEnAOyjnLdYOgcmf3pVmnc9RqMo5Lp1IOdJXTWGp92J62ydY7chlYwYOBEc+H1mnMxx4wcBzjUvS0w0ZxUyHannOhLVrXqvUz1UzpDW9j4jwVBjoxnx5NuethQ5tHG5Y+Ml3eSIC07Aw00eH/ZZ3VGfR7DLi+Uvx7XvJ7IPmubDRlQ4da1LRzbIyP8XH6PyZlAK152IoCSAQUAoBxQFfCzJFAKAVANnux9HmfZp/61fp813HG237Qf5l6GMt0BUDsmSBQCEIFASBQCEAoDX7j+YovZqvjSq/R5vacflP49/p8kZCzQOQLXnYvWaTsSObtdaPrh8ROvJLXYe8OVyy6mczl9POp4XP0/gqN7g4WlWh+nbSc/okAt/hwVer77Nzk5p2Wndh/3xPJXmXAdoKErWbBfDNY0ol8ra4QcfWZbPzWwq827zjMnabdHN1XvZczI1rzsjWrheaIf3j4z1foc2jjsrfGy/T5IyRp8Ucn5LXnZvWa5sgeapfag+I1bCvzZxmR/jF3+TMoCoHYiCoAoCSAQUAoCvrMkQUAoBQGz3Y+jzPs0/wDWr1Pmu4422/aD/MvQxqPeAzk4AAacVQOyZ6HgSu4HVf5eXurLMlgyvxqh8yP7kPgWu4HU/wCXl7qZksGONUPmR/chFi13A6n/AC8vYmZLBjjVD5kf3IfAtdwOp6iXsTMlgxxqh8yP7kfGpo54snboZYcrHJ22N8eVhhjhlDPpH3qHFrWekKsKnuSTuwaZ8QoMzX7j+YovZqvjyq9R5racflP49/p8kZDGcw5AqJ2L1lmuDbH6LXNBBMdSBE8NBc4HHFr8BnOBx5iV60J5svqazKtl4eg2vejpXqi534ui6rIqKbAVLWhr43HJbK0aM+84cenmVitRztK1mlyXlNWf/XU9x9OH8GdyWFXtdkOo6jK4onuHMQCDzKpwcl0M6SNss8leqkbvqi2XQuRNtrKitbtbIyHsgJBe9wzguw0NGnDSfx96VB33yNRlHK8Mx06Lvb1voX07T7bKFr54qNuIAImlJBAObxWjXpxPMptM/umGQrNrrv6L1fptKAqh0RrdwfNEP7x8Z6v0ObRx2VvjZfp8kZG3yRyfktedm/eNc2QPNUvtQfEathX5s4zI/wAYu/yZlCoHYigEFQBQEkByA8ALMkUAgoBQG0XY+jzPs0/9avU+a7jjbb9oP8y9DG6d+S6Nx+qWuOHEQVROxmr00apupUfBqn+T31c4zHA5fkCt14+O4d1Gj4NU/wAnvpxmOBHIFbrx8dx26jR8Gqf5PfUcZjgTyBW68fHcO6hR8Gqf5XfTjMcCOQK3Xj47iq34vPDaP6LtUcke0bblbbkZ8vIwwySfQK8atVTuuNrkywTsmfnNPOu1X9F+8rAK8TaGwXG8xRezV/HlV+jze04/Kfx7/T5IzK7tiz10zYYRhgA6SR3kRs9I6zqG/wDfhSpwc3cjqLZaqdmg5z7lizVaajs2xqfLcQxxzOmf49RM70WgZ+YZgrqUKSOUnVtWUamatKw6F/cXpK7UbJp20bVSYwjTtkmTK4a8wIb715O06dC0GxhkBZvtT9rsWj+7D9zNkukwz09QHahtRH35QWXGY4Hg8g1r9E43d+4/DLsmO2wbXSDavrB8nzh5MBgPesXatOhaCxHICzfan7XYtBYqG1LNteIxPaHOwxdBMMmVv6zCP9TSvVShVVxratntWT556ejFavo9zKFe260lC/LYTJSvODJD5THeg/D3HfVWrScPodDk/KMbUs16Ki6Me1F5uB5nh/ePjSKzQ5s0GV/jZfp8kZG3yRyfkqB2f3jXdkHzVL7UHxWq/X5s4zI/xi7/ACZk4KoHYigFAIKgCgHFAeACsyRCAUAgoDabr/R5n2af+4r1Pmu4422/aD/MvQxdmgKgdmz6bW70XdEqTHOWIiN3ou+4oL1iJY4aWkcZBCC9HNaToBPICVAbSJZDvRP3FLhegQGxXEBNhQgDEltUABpJ2+XMr9Hm9px+VHdb5fp8kfWyaWCxrLLpcMtjQ+oc3DKknIADGnlwaP8A6kUqUNJjXqTyha7o6m7l2LH1ZlVs2tPWTumndi45mMHkRs3mNGr8dKpTm5O9nV2azQs9NQhq8+1n4gVie4oBUA+tPO+N7XxuLJGHKY9pwc06wVKd2lESjGcXGSvTNCdfmkls4sq4jLUPBikgYMlr8w+cytDRoOsEZhmVvh4uHtaznFkitTtN9J3QWlPDsu6fJoq1mXqrqaBsEL2iJuVgHRtcfGcXHPykrwjVlFXLUbavk6hWqOpNPOfbgeIdGHEvIv8ASa7sg+aZfag+K1X6/NnG5H+MXf5MyZUDsRBQCgFAIKgCgK+sySQKAQgFAbVdf6Ox/Zp/7ivU+a7jjbb9oP8AMvQxmleGujcdDXMJ5AQVRR2M1emjY90iyvSm6lyu8YgchyJasFtQ7pFlelN1Lk4xAciWrBbUePe6+1n1VBUQQukMsmRkh0bmtzSNccTyArCpWjKLSLlgyXaKNojUmlmq/p7GeXse3npKCKpbUl4Mr2uZkMLxgG4bywo1IwTvLOVbBWtMoundoWJ7t4L92dPRVcMbpdsmhljZjE5oynMIGJ3tK9J14OLSKVkyTaaVeE5JXJpvT2mXBUzqDadjbzPSctR/5Mi2FDm0cXlj4yf6f/KK5st2gcqlpQfFAdO8aznYz+teNplqRscgUVdOq9epeb9DPQqp0QoBBQCgFQBBQEkAO0FCVrNd2QvNMvtQfFar9fmzjcj/ABi7/JmTKgdiKAQUAoBQCgK+CsjIUIJBAKA2q630dj+zT/3Fep813HG237Qf5l6GLMOYcionZvWSQgUAqAIKAUAgoDaNjRwNkUoBztdUAjUf0iQ4HmIPOthQ9xHGZZX/AOyf6f8Ayid4bl0tdOJ5pahjwxseTE6IMyWlxGZzCcfGO+k6Km72RZMqVbNT4OEYtX36b/RrA83cxoOEVfTg/wBpYcWjiyzy/aOrHZLeO5lQevq+nB/tpxaOLHL9o6sdj3mf3ns1lJWz08TnuZFkZLpC0vOVG1xxIAGl2pVakVGTSOgsVeVehGpJJN36vq0fOxrIqayTa6aMvI8p58WNg1udvcmk6lEYOTuRnaLVSs8c6o7vN/RGg2Tsb07AHVcr5377IyYohzjxjy4jkVqNmS9456vl2rJ3UopLF6Xu8z0H0N3oDkPFC1w+rLJG5/8AESVlm0lgV1WylV0xz7uxO7wFliWDVYiFtK8/9LK1rh1blOZSlquIdryhQ0zcl+ZbzxLZ2OMAXUUxJ07TPhn4myAfiOdeU7N1WX7Nl3orR71u3bCjVkU8T3RTiRj2+VHITiOPjHGqrTTuZvqcqc4qcLmn0o+Kg9BCAUAgoBQDigK+FkSIKEihBIIDbLntL7vxNZ4znQTsAHpZUgw+9Xqemmcbb3m29t6s5ehibDmHIFROzesmChAoBQCoAgoBQH2gqpY8RHLJHjnIje+ME6zgc6lNrUYSpwl7yT+qTPt4SquEz9dL2qc6WJjwFLqR2IfCVVwmfrpe1M54jgKXUjsQi0qnhM/XS9qjOliOApdSOxH77vWRPaNUI8txGZ087yXlkYzY4nSToA7Cs4Qc5XHha7TCyUs676LF/wB1mn2laVDY1IyONmc47TA0/OSO33vd+LircpRpRuOXo0K+UazlJ/V9C7F6IzO2rzVtYTt0pbGdEEWLIgNRH1ufFU51JS1nT2awULOvYj7WL1/x3HkDMvMujq1jODvgoQWe799aylLWyONTBoLJDjI0fqPOfmOI5F7Qryjr0o1lryTRrq+KzZ4rV3rcXy0rPo7Yo2yROGVgdpmAwfG/fY8atbefUValGNWN6Ofo16+T6zjJaOldDWK9GZNWUskEskUrcmSJxa9vHrGsHSDqKoNNO5nYUqkakFOLviz5KDMQgFAIKAUBX1kZCEIEFCRQg0fYsvRHEHUNS8Ma9xfTSOODMp3lRE72JzjjJGrGzQqJeyzn8tWGU/8AfTV7Wtevo/8Ap7ds7GlJPO+aKZ9NthLnxta18eWTiS0HycdWhZys6bvRSs+W6tOChKKld09J+Lcoi4bJ1TO1RxZYnv8A5BP5a2s7cpi4bJ1Te1OLLEf5BP5a2sdyqLhsnVN7VHFliP8AIJ/LW1nblUXDZOqb2qeLLEf5BP5a2sdyuLhsnVN7VHFliP8AIJ/LW07csi4bJ1Te1OLLEf5BP5a2nblkXDZOqb2pxZYjl+fy1tHcti4bJ1Te1OLLEcvz+Wto7lsXDJOqb2pxZYjl+fy1tM2mZkve3HHJc5uPISMfcqjOki70nia/c6ijs6yjPN4rnsNTUH6wbk4tZzNwzaydavUoqEL2chlCrK12vg4ak81er2+Blts2pLV1ElRKfGkPitxxDGDyWDiA9+J31TnJyd7Oqs9njQpqnHUvF9LPxrE9hBQCgPQp7HqpKaSqZE51PEcHPHvIG+Bvne5jhkoSazug8JWqlCqqUpe2+j+49H/D1bjW6aSra1zv+HqCGSj6rXHM2TmOY8ROoLOjUzZdjKmVLGrRRbS9uOleq/vSWTZSskZEVYweM0iGbDfafIceQ5v2hqXtaYfeNbkK06ZUHq1r139xnSpnSEkAhAKA5AeACsjIUAhCBBQkUIPUpLw2hE0MirKhjBobtri0DUAdA5FkpyWpledjs83fKCb+h9/lXanDqjpqeEniefJ9l+Wtg/Ku1OHT9NOEniOT7L8tbBF67U4dP004SeJPJ9l+Wtg/Kq1OHT9NOEniOT7L8tbB+VVp8On6acLPEcn2X5a2D8qrT4bP004SeI5Psvy1sO+VNp8Nn6acJPEcn2X5a2D8qbT4bP004SeJHELL8tbBF6bT4bP004WeI5Psvy1sPw0MW21EMbs+3zRxuO+cuQNJ/iWCV7SLFSWZTlJfdTexGrbKVVtdmiNubb5Y482bxWgvw/gCu2h3QuOVyJTz7TnP7qb9PUyQFUTrR/8AfzQCgLRcy6j65+2S4so2HBztDpXDSxh1a3c2nR7UqWe73qNXlHKMbNHNjpqPw7X6L013W9t5YbOhbTUrWfpGSGxxADa4Y8MA5w/Bu+rFWqoK5azSWCwTtc+FqN5l+l9Lf91syUnHHHfxx0D3BUDr1oNgqXGrsAufne+kEjj/AIrGZWPSatg/apdxxsFxfKNy1Kd3c3d5MyFa87IUBJAIQCgK+FkZCCgFAIQgQUJFCCQKAUAoBCAUAoBUAQUAoD9tiSBtZROOhlTTOPIJmE/gsoe8vqeNpV9GaxjLyZpey3ETRU7hoZUDK5DG8fjgrdpXso5rIMkq8ljH1RnFiy0zKmF1Yx0tMHfOMbq3iR9YA6Rv/jUg1f7Wo6S0xqypSVJ3T6P76mo3quxBaMDKijLBOGAwyMw2qaPDMwke47yuVKSmr46zl7Db6lkqOnVvzb9K6U8d5TrpXNmqpnGpY+CnhcWyhwLJJHg5428Wt33cXhTouT06jc2/KkKEP9bTnJaMEsX6Lb23K9t54bOhbTUrWfpGSBHG0Da4GYZnOH4N3171aqgrlrNLYLBO1zdWrfmX6X0t/wB1syeWZ8j3PkcXveS573HFznHSSVRenSddGKilGKuSIoSa/Z3zV3ml2b/gnv6UZcP9Svx0Uu446t7eUrl10tjuMiC152RJCDkBJAcgK+sjIkEAgoBQCEIEFCRQgkCgFAKAQUAoBQCoAgoBz7xwO8dRQG11DW2vYviEZc8Qc3PmbUsOOSf22kHiWwf+ymcXBuw23Tqi/B/w7zF3NLSQ4FrmkhzTmIcDgQRrxWvOzTTV61FnuXex9A/a5MX0bzi9gzuicf8AmM/Nu/p06falVzND1Gsyjk6NpjnR0VF49j9H6F0vPfymhhwoZGVFRIPFc3xo4h6TuPU37171K6S9nWaaxZIq1J31k4wW1/TeZVNM973PkcXveS573HFznHSSVSbvOrjFRSjFXJEUJP3WLZz6uphp2Y4yuwc4fVjGdzuYY+5ZRjnO48bTXVClKo+jz6EaZsj1zaezhTszOqC2JjRvRMwLjyYAN/aCuV5ZsLsTmMjUXVtPCPVHT3vVv7jKFQOtEFASQHIBQFfBWRkKAkEAgoBQCEIEFCRQgkCgEIBQCCgFAKAVAEFAXbY2vM2llNNO7Jp6hwLHuOaKbRn1NdgBxEDWVYoVM13PUaXLFhdaHCwXtx8VvR7V/wC5j5XOrKJmVIc9RA3S/wDxGD0tY39OnT6VqN/tRKWSsqKCVGs9HQ8Ox9mD6PpqzPOCQRgQSCDmII0gjeKpnTHICQKA+1JTSzSNjhY6WR+ZrGDFx7BxnMpSbdyMZ1I04uU3dFdJrd07vRWXTyT1L2idzcZ5SfEijGfIadWs755ldpU1TV71nI2+2zttRU6a9m/QulvH+6jOr1W66uqnS5xE3xIGHSIwdJ4zpPMN5Vas8+V/QdJYLIrNSUPvPS/r/B468y4KgCCgJIDkBX1kZCCgFASCAQUAoBCECChIoQSBQCEAoBBQCgFAKgCgLzdG/wBJTNbBW5U1O3MyUeNNENRH12+8casU6+bolqNHb8jxrNzo6J9K6Hufh9C5VNkWPazdtbkSPOmendtcw4njXxOC93CFTSaeFptlheY70sHpXd/B4c+xbHj81WPaNUkTZD94LV5uzLoZejl+X3qa7ndvPrSbGFOCDNVSyAfVja2IHnOUVKsy6WY1Mv1H7kEvrp3HsvqLIseMtbkRPIzxs+dqpOXE5R5zgFnfTpIpqFsyhK93tYvRFemzSZ1eq9k9e7Jw2mlacWQg4lxGhzzvni0D3qrUquf0OjsOTqdlV+ueO4r68jYCCgFAKgCCgFAV8LIyFAIKAUBIIBBQCgEIQIKEihBIFAIQCgEFAKAUAqAIKAnFI5jg5jnMeND2OLHDkIzqdRDSkrmr12nrwXqtNgwbWz4D03CU/e8ErNVZrpKksn2WTvdNeXlcQqbx2jKMJKycjU2Qxg8oZhiodSb6TKFis0PdprZf53nm6zvnOTvkrAsiCgEIBQCCgFAKgCgK+sjIQgFAIKAUBIIBBQCgEIQIKEihBIIBCAUAgoBQCgFQBBQCgEFAIQgUBIFAIQCgEFAKAcUBXwpMhQCEAoBBQCgJBAIKAUAhCBBQkUIJBAKAUAgoBQCgFQBBQCgEFAIQgUBIFAIQCgEFAKgFfWZIhQSKAQgFAIKAUBIIBBQCgEIQIKEihBIIBQCgEFAKAUAqAIKAUAgoBCECgJAoBCAUB2KA8AFZEigEKCRQCEAoBBQCgJBAIKAUAhCBBQkUIJBAKAUAgoBQCgFQBBQCgEFAIQgUBIFAIQDigK+siSSA4KCSSkg5QSSCA5ASQCEAoBCAQgFASCECEAoBCAUAoBUAVIFQCQQHICSECEJFAKEHID//2Q==;" parent="1" vertex="1">
          <mxGeometry x="262" y="660" width="78" height="78" as="geometry" />
        </mxCell>
        <mxCell id="yvigqvCfVOGot-HgjFOz-16" value="" style="shape=image;verticalLabelPosition=bottom;labelBackgroundColor=default;verticalAlign=top;aspect=fixed;imageAspect=0;image=data:image/jpeg,/9j/4AAQSkZJRgABAQAAAQABAAD/2wCEAAkGBxANDw4PDhAQFg4PEBAQDw8QGBUQEA4QFhcWFxUVFRYYHSogGBolHRUVITEiKCkrLi4wFx8zOD8sNygtLisBCgoKDg0OGhAQGy0gICUtLS0tLS0tLS0tLS8tLS0tLS0rLS0tLS0tLS0tLS0tKy0tLS0tLS0tLS0tLS0tLS0tLf/AABEIAOEA4QMBEQACEQEDEQH/xAAbAAEAAwEBAQEAAAAAAAAAAAABAgYHBQQDAP/EAEYQAAEDAgIFCAYHBgUFAQAAAAEAAgMEEQUhBhIxQVEHEyJhcYGRoRQjMkJSYkNygpKiscFTY7LC0eEVM2Sj4hYXc9LwJP/EABoBAQADAQEBAAAAAAAAAAAAAAABAgMFBAb/xAA2EQACAgADBQUIAQQCAwAAAAAAAQIDBBEhBRITMUEyUWFxoSKBkbHB0eHwFBUzUvFCYiM0Q//aAAwDAQACEQMRAD8A44X2R6hQCgFASQkQgEIBQCpAoBQChIhASBQCEAqQKAQgG6AkgEISKAVIEFAIKAkCgFCRQH5AV8KhmIKAUAoBQEkAoSIQCgFSBQCgFCRCAkCgEIBUgUAhAKAkgEISKAVIFAIQEgUAoSfkBX1QzEIBBQCEAoBQEkAhCRCAUAqQKAUAoSKAkEAhAKkCgFAIQEkAhCRQCpAhAIQEgUB+Qkr6oZigEIBugFAKAUBJAIQkQgFAKkCgFAKEigJBAKAVIFAKAQgJIBCEigFSBCAQgFAV5UKEkAoBQCEAhAKAu+jegZqqfnp5HxmQXhaADZu57wdoPDLLfnly8TtLh2bsFnlz/BnKzJ6FYxjCpaKV0MzbOGbXD2ZG/E07wvfTdC6O9E0TzR4wtSRCAUAqQWzQrRf013PTgimbsGwzO4A/CN57uNudjsbwVuQ7XyM5zy0R7dNNEWwN9IpGnmh/mxC7tQfGL5248PG2WBx7m9yx69H9BCeejKSF1jUUBIIBCA9FFSSVEjYomlz3GwA/M8B1qtlka4uUnkiG8uZb67QJ0dNrxyF9Q0azmWGo/i1m+/DjbdfLl17VUrMpLKPf9zNW6lLXXNRQEggEISKAUAhSBQFeCzKCpBJAKAUAhAW/QLRj02Tn5m//AJYnbD9M8e79Ub/Diudj8Xwo7ke0/QpOWWhaNMNM/QZY4KcNfI0h0wPstZ8GWxxHhlxXhweA40XOei6fcpGGerPfT1NDjkGq4AkZmN3RmgdxB/UZHyWMoX4Oea/DIycGU3GdAKmEl1MRNHuGTZR2g5HuPcunRtOuek/ZfoaKxPmVmegmiNpIZWn5mOH5he+NsJdlp+8vmj60mF1ExtFBK7sa63edgUTurh2pJe8ZpFx0e0AcSJK4gNFiIGG7ndT3DIDqF+1czE7TWW7V8fsZys7jr6VaVRUDPRqXVM4bqgNtqU42C42X4N8evzYTBSvfEs5er/e8rGGerPJobpiJA2mrHes2RzO2SD4Xn4uvf27dcbgHF8SpadV3eRM4dUftI9BBIXS0Ra1xzdC7Jh+ofd7NnYmF2m4rdt18evvEbO8pVZg1VAbSwSttv1S5v3m3HmutDEVT7MkaqSZ8IqSV5syKRx4Na5x8gtHZBc2viTmiwYToTVzkGUCKPeX5vI6mD9bLxXbSph2fafh9yjsSLtBTUeCwlxIBIs57ulLMeA/oMguRKd+Mnl/pGWcps5eBabCoqXRTNDIpCBAd7Xbg88T5HLrXpxGzeHVvRebXP8eRaVeS0PDp5o5qF1ZA3oHOdg90/GOo7/HeVts3GZrhT59Pt9i1c+jKUuwaiEBIIBQkVIFQBupBXlmUEIBUgkgFAdrRXAH4jOIxcRMs6aT4G8B8x3d53LzYrEqiGfXoispZI0jSjG4sIpWQ04aJS3UgjGxjRkXu7PM964uFw8sTY5T5dX9DKMd56mRSSOe5znElziXOccy4nMklfRJJLJG5OnnfE4Pjc5r2+y9hLXDvCSipLKSzQLlhPKLURgNqY2yge+31cnflY+AXMt2XXLWDy9UZutdCwwcotE4dJs7TwLQ7+FxXjlsu5csmV4bI1HKNSNHq453nsawd5J/RTHZVr5tIcNlZxnTuqqQWRWhjOR1DeQj6+7usvfRs2qvWXtP0+BdVpFWuugaCpBYsD0xqqMBhIkiGxkl7tHBr9o8wvFfgKrdeT8PsUlBMtlLyiUzh62KZh321Xt8bg+S5s9lWrstMzdTPvJp/RAZCZx4BoH5kKq2Xe+eS944TOLiXKHI4EU0QZ88h13dzRkPNeurZMVrY8/Iuqu8qNZWSVDzJM9z3n3nG9hwHAdQXTrrjWt2KyRoklyPiFck0zQrSEVcZpqggzNaQNbPn499+JG/jt4r5/H4ThS4kOXyZ57IZaoq2l+jxoZdaMH0aQnUO3m3fAf0/sungcXx45S7S9fE1hPeRX17i4hASCAQhIoBQFeVDMQhIhAKkHtwnDpKyZkEIu957mt3udwAWdtsaoOcuRDeSzNdJpsAoeNtm59TMR/buA6l89/5MZd+6Ix1kzI8UxGSrmfPM673m/U0bmtG4AL6GqqNcVCPI3SyR3tCdFziDzJLrCljNnEZGV/wNP5n/AOHkxuM4Cyj2n6FJyyLHjXJwx13UUmqf2Ut3MPY7aO+68dO1WtLVn4oqrO8puIaN1tMfWU8lvjYOcZ4tvbvXTrxdNnZkvl8zRSTOU42NjkeByK9C1LE4ml5s0Eng3pHwCN5cwdrDNFK2pI1YHtb8c3qmjr6WZ7gV5bcbTXzln5alXNIvWBaD09J62qcJZGi/S6MMfXY7e0+AXJv2jZb7Nei9TKVjfI+2L6J0eIMEtO5jHuF2yw6ro5PrNGR7RYqtONuoe7PXwfMKbjoyj4nofW0xPqjIwbHw9O/2fa8l1qsfRZ1yfj+5GimmcSWN0Zs9rmng8Fp817ItS5alyAcCrEnSocEqqggRU8pv7xaWs+86w81hZiaodqSKuSRbcH5Pjk6sky/ZRbftPP6eK5l+1elS97+xnK3uPHplooKQCemDuYyEjSS4xHcb7dU+R7ctsDjna9yzn08SYTz0ZVqed0T2yRuLXsIc1w2ghdKUVJOMtUzXmapg2Iw4xSvjlA17Bs8e9p3PbwGVwd1upfN30zwlqlHl0f0PNJODM6x7CH0Mxifm05xv3SM49vELvYbERvhvL3ruN4y3lmc9egsIQEggFCRUgryzMxQCEJFAXLk0xqGkqJWT2b6QI2slOxjml3RJ3B2sM/lHdztpUTsgnHpnoZzWaLByn4HLMxtXG5zmwNIkh3NZtMjevZfqA4LybMxEYvhvr1+n2K1y6GYLumxsvJ9Xxz4fGyOzXwAxSAbn7dfrve/bdfN4+uUL23rnqYTWTKR/1NiOGVE0EkvOakhDmzAuDr56zTkQCCDa9s11P4mHxEFJLLNdDTdjJZlioOUuF2VRBIw8YyJG+diPNeOzZU12JJ+ehR1vodRunGGvHSkPY+N//rZYf0/ErkvVEbkgfp3hzB0XuPUyNw/MAItnYh816jhyOTX8pTRcU1O4nc6YhoH2W3v4hemvZL/5y+BZVd5T8Y0hqq3/AD5DqbomdGMd2/vuunThaqewte/qaKKXI+eE4zUUbtanlc2+1u1ju1py79qtbRXasprMlxT5lxw7lIOQqYL8Xwm34Hf1XMs2Sv8AhL4/f8Gbq7jsxad0Dx0nSN6nscf4bheV7NxC5JP3leHI+n/WeGtzEn3Y33/hUf0/Evp6ojhyPBWcolO0epilefmtG3xzPktobJsfaaXqWVTK3iGmFbWOEUZEYe4NayG4c4k2ALznv3WXvqwFFS3pa5d/2LqEUX/E6kUdA41Lucc2ERuv9NIRq27z5XXFqhxsRlXprn5IxSzloY6F9Seou/J1g8hk9LLnNiaHMaB9Md9/lH5jqXJ2niIqPC5v5fkytkuR9eUbFopNSmZZ0scmu942R9EjUvxNwT2Dursuicc7HomtPHxIqi+ZR12TYUAhASCA/XQkr6oZigEIBCEipBrHJtpD6VC6knN5YW9EuzMsOzPiW3A7CFwNo4bhy4keT9GYzjlqUbTLBfQKt8bR6l/rIeph2t7jcdll1MHfxqk3zWjNIvNHt5OcV9GrmMJ9XU+qdw1/oz45faWe0KeJS31Wv3Ims0djlXw3Vkgqmj2wYZPrNzYe8Fw+yF59lW5xlW+mpFb6FBC65oKAQgFASQCEJEIBQCpAoC18nOH89Wc64dGnYX9Wu7ot/mPcFztp27lO6upSx5I9fKXievPHTNPRhAe8fvHDLwb/ABLPZVO7B2Pr8v8AZFS0zK1gmHOrKiKBvvu6Th7rBm4+H6LoX3KqtzfQ0k8lmaVpVircMpWRwANkeObgA9xoAu7uuO8hcDB0PE2uU+XN/YwhHeeplZN8ztOZJzJK+kPQflIFAIQCgFAV9UKCgFAIQCEJOpo1iJpKynmBybIA/rjd0XeRv3BY4mviVSiVks0aJyr0IfSxTj2oZQ0n5JMj+IMXI2XZlY4d6+RnW9cjLYZjG5r2+0xzXt+s03HmF3WlJZPqbGwafRiowt8g93mp29QuL/hcV87gHuYlLzRhDSRj4X0ZuIKAUAoBQEkAoSIQCgFSDTeS+n1aaaTfJNb7LALeZcuBtWedqj3L5mFr1KHjtVz9VUyH3pn2+qDZvkAuzh4blUY+CNorJIt3JdRguqKg7WhsTeq/Sd/IubtazSMPf++pna+hxNOa8z10ov0IbRNG7o+1+InwC9ez6tyheOpetZROCCvaXEIBUgUAhAKAr6oUFAKAUAhCT8TkVKBs2m3SwaUu2mOmd385GfzXzmC0xSy8fkzCHaMcX0ZubJXnWwIl230Bp79QWXzlemM0/wAvqYLtGPL6M3FueQ27utQD0ehzfspfuO/oq8SHeviM0Pocv7KX7jv6JxId6+IzRCSNzDZ7XNO2zgWm3erKSfIDFE5+TGucRtDQXW8EckubB9fQ5f2Uv3Hf0UcSHeviM0Pocv7KX7jv6JxId6+IzRB7HNNnNIPBwIPgVZNPkSCA1nk8yw5hG3Xm8dY/2Xzu0v8A2H7jz2doyp5uTfbcr6Jcj0GncmAHocvE1L7/AHI1wNq/3l5fVmFvMzrEnEzzk7TNKT26xXdqWVcfJfI3XI86uSSCAQgFSBQCgK+qFBQCgFAKA9eE0RqqiGBu2WRrOwX6R7hc9yztsVcHJ9EG8kapyo1TYsPEI2zSxsA+Vh1yfwt8Vw9mQcr97uT9dDGvmZIATkBcnIDidy+gzNzZdMLUuDyR8IYoB1klrf6r5zCf+TFJ+LZhHWRji+kNz34AzWrKRvGpg8Ndt1je8qpPwfyIfI1nS7Sr/DDCOZ5wyh59rU1dXV6jf2lwMJg/5GeuWRjGO8V7/uf/AKP/AHf+C9n9J/7+n5LcLxKtpVj/APiUzJeb1NSMR6utr3s5xvew+Je/CYfgQcc89cy8Y5I+miekP+GySyc1znOMDLa2paxvfYbpi8L/ACIpZ5ZCUd4s/wD3N/0n+7/wXg/pH/f0/JTheJatH8afVwOqZoRDDYljnP1tZg2vPRFm9a5+IojXPci95+XoUlHJ5GX6YYqytrJJYr82GtY0n3g2/StuBuu/g6ZVVKMuZvBZI4wXqLGp8mM4dRPZvjmeO5wDv1K+f2pHK5PvRhZzM4xOAwzzxnayWRvcHG3ku7VLerjLvSNlyL3yV1Y5upg3h7ZQOIcNU/wDxXI2tD2oz9378TK1cmVTS6iNPW1DDsc8ys62v6X53HcujgrOJRF+74GkHmjkL1FxQEggFAKkCgK8FmUJKQKAUAoDSeSjAvbr5BlZ0UAP43+WqPtLj7TxHKpeb+hnY+hwuUbGxWVhYw3iprxNI2Off1jvEW+z1r1bPo4dWb5vX7FoLJHm0Ews1dfA0joRETydjCCB3u1R4q+Nt4dLfV6fETeSLZyt4kA2npQc3EzPHBou1niS77q8OyqtZWe4rWupmq7RqdnQ9mtiFEP3zT4XP6LzYt5UT8isuTLnyl4VU1c9MKeGR7WRPuWjogucMrnK/RXN2bdXXCW/JLUpW0lqUmswCsp2l0tNK1ozLtXWaO0i4C6kMTVN5RkjRSTOcCtyRCAuGg2inpbhUVAtSsPRafp3D+Qb+OziudjsbwluQ7Xy/JSc8tET060ndUONLCHMpmGxJBYZyOo+4Nw37VGAwiguJLWXy/IhHLUqAXSNBCAunJfiHN1EsDjlOzWb9dlzb7pcfsrl7Vq3q1NdPqZ2LTM+XKRhvM1fPAdCoaHX3CRoDXDw1T3lX2Zdv1bnVfIVvNZHJ0Wxb0KqjlP+WehL/wCN2092R7l6cXRxqnHr08y0lmi88omD+kQNqo83wAl1s9eE5k923sJXJ2biOHPhy5P5mVcsnkZku+bihIoCQQCEA3QFeCoUEICSkCgPdgmGvraiGnj2yOsXbdRozc7uAKyutVUHN9CG8lma3pjijMIoGxU/Re5ogpwNrAB0n9w38SFwcJU8RdvS5c2ZRW8zGLr6M2Ni5PsIGH0TqiezZJm89IXZc3C0EtB7ruPb1L57H3O63cjqlovMxm83kZlpFixrqqaoN7PdZjT7sYyaPDPtJXbw9KqrUP3M1islkc4LYse3Ca91JPFUMALonawa6+qTYjO3aqW1qyDg+pDWayLO/lJrjsZTD7Dz/OvCtl097+P4KcNHa0Z5QnzzRwVUbBzrgxssdwA85NDmknInK915sTs1Qg51vl0ZEq8uRzOUvAWU0kdRC0NZOXNka3JrZBmCBuuL+HWt9m4iVkXCXNcvImuWehSguoaF2wzlCfTQQwNpmERRtZrF5Bdqi17auS5lmzI2Tc3Lm+78mbrzeZY8C0sp8VJpaiANe8Ehj7SxyW2gEgZ2z2LxX4KzDLiQlp8GVlBx1RStNsBGH1AEd+YlaXxg5ltjZzb77ZeK6mBxLvr9rmuZpCWaOAF7Cx96GrdBLHNGenG8Pb2jceo7O9VnBTi4vkw1ma1jNKzGMPD4razmiWEna2QXu0/iaV87ROWFxGUvJ+X7qYJ7sjIiCCQRYgkEHaCNoK+kTPQafyd4yKiB1LLnJALNvnrwnIdttnYQuDtLD8OfEjyfzMLI5PMpGlOEeg1T4gPVu6cJ/dnYO7Mdy62Ev41Sl15PzNYyzRyV6SwoSKAkEAoCvKhQUAhASCkGlcj+GXNTVuGy0EZ4bHSfyea4+1bezWvN/T6mdj6Fc5Q8WNXXygH1dPeCMbrtPTPe6/gF68BTw6V3vX7FoLJBoDgfp9YwPF4IbSy8HW9lnefIFTjr+FU8ub0Qk8kW/lVx7m420MZ6UoD57bo79FveR4DrXg2Zh83xX05eZStdTLwu2aihJ9GMc6+q0nVF3WBOqOJtsCNpcyCIKkk62i9BJU1lOyME6ssb3kbGMa4EuJ3bF58TZGuqTl3FZPJF75Wqpogpob9N0pktwa1pBPi8Ll7Kg9+UumWRnXzM0axxBcAdVttZwBs2+y53bF281yNgBUgsmgFDJNXwvYDqQkvkfuaNUgC/EkjJeLH2RjQ0+b5FZvQ7fKzUNMtJED02Mle4cA8tDf4CvLsmLUZS8vT/AGVqKGF1zQkhJeeTPG+bkdRyHoSkuhv7sgHSb3gX7R1rlbTw+9Hirpz8jKyPU+HKPg/o9QKhg9XUX1rbGzDb4jPtDlfZt+/XuPmvkTXLNZHB0exI0dVDNfotdaTrjOTh4Z9wXsxNPFqcPh5l5LNZF+5S6AS0rKhttaB4ueMb8j+LU81x9l27trg+vzX6zGt65GZLvm4oBQkQgG6Ar6oZihIhAIQG18nbBBhMcltomld19J36NAXzuOe/iGvJGM+0YuZC8lzjdzjrOPFxzJX0eSWiNjXuSakEdC+b3ppn3Pys6IHjrHvXA2nNu1R7l8zGzmZjjte6qqqidxzkkcR1MGTB3NAC7VFarrjFdEapZI8S1JFAd7Q7SAYbO+V0Ze18ZjcAdUgXBuL7dmxeXF4fjwUU8stSJRzRdTpZgs/SmpwHHM68Ac6/a0G65v8ADxcNIy9TPdkE2n1BSsLaGnJJ2BrBBHfi7efBStnX2PO2XrmxuN8zPsXxWWtmdNO673ZADJrGjY1o3BdemmNUd2JqlkdjQzSZuGum5yIvZNqa2qQHN1dbYDkfa4hefGYV3pZPJorKO8Ww6TYJL0pIGh2/WgBN+1oK8H8TGR0UvUpuzIVnKDSwRllBASc9W7RFE08bDM9mSmGzbZyztl9WSq2+Zn1fWyVMr5pnF0jzdx/IAbgOC7Fdca4qMeSNUsj4K4FAfWCZ0b2SMNnsc17Twc03B8QolFSTT5MGtaXNbWYU+W30cdQ35SLOPkSF87g26sUo+LRhDSRki+kPQa5f0nBbuzLqK5PFzWbfFt183/bxmn+X1PPymZKF9IegUAoBQkUBX1QzFAKEigNt0E9fg0LG7THPF36zx+q+dxns4lvyZhLtGKNuMiLEZEHcV9GbmxclNS2TDzFfpRSyNcN9nnXB/EfAr5/acWrt7vSMZ8zLcaw99HUTQSCzo3kD5mHNrh1EWK7dNisgpLqap5o8a1JFAKAQhIoBUgkgPyAkEAhAIQCgPrTwuleyOMEve4Na0bS47FEpKKcnyQNc0ltR4Q+JxzEDKcfM4gNy8z3L5zDZ24pSXfn9TCOsjIrr6Q9BrtGOYwUa26ic49Wswn9V83P28Zp/l9TzvWZkgX0p6BQCgFAKAr4VCgoBQChJqXI9ioLKijcek1wnj62us14HYQ0/bXG2pVrGxeRlYupVeUHBTRV0hA9TUF00R3Zm729zj4EL24G7i1LvWjLweaPNojpE/DKgSAF0TwGzR/GziPmG0d43rTFYdXwy69BKOaNUxHDKHH6dsrHAkC0c7P8AMiPwuB82n+64ddt2Enk/h0Zkm4szvGdAq6lJLGCaMbHw5ut1sOY7rrr07Qps5vdfj9zRTTKxIwsJa4EOG1rgWuHaCvamms0XPykCEAhCRCAkpAoBQCEAtzNhtOwDMlAWDCdD62qsREY2H6Sa7Bbqb7R8F5LcdTX1zfgVc0jQsD0cpcIY6eV4Mgb06iSzQwcGD3fMnyXGvxVuKluRWncvqZOTloUTTPSY4hIGx3FNETqA5GR297hu6h/VdfBYTgRzfaf7kawjkc7R7C3V1TFA2+q43kPwxj2j+naQt8Rcqa3N+7zJk8lmaJykYgIKIQNsHTuDABlaNti49mTR9pcXZtTndvvp8zKtZvMywL6A3FAKkCgFAV4FUKEggFAKA92C4pJRVEVRF7cbr23PacnNPUQs7ao2wcJdQ1mjZ6unpdIaBpacndKN+XOU8wGYI8iN47ivn4yswluv+0Y6xZjuNYPPQSmGoZZ2eq4Zskb8TDvHmN679N0LY70WbJ5kMMxOekfzlPK9j95acnDg5uxw6irWVQsWU1mGsy+YRypOaA2sg1v3kBAJ7WONvNcy3ZSetcvj9yjr7ixs0swiuAbM+I39yqjsB3uGr5rxvCYqrWKfuZXdkj9NobhVY3WhYwfPTPsB3AlvkpWNxNbyk/iv1jekit4ryXyNuaSdrx8Ew1HfebkT3BeyrasX/cjl5FlZ3lMxTB6mjdq1ML2cCRdjux4u0+K6NV1dizg8zRNPkeILUkQgPXh+HzVLtSCJ73cGC4Hadg71SyyFazm8iG0uZccK5NaiSzqmVkQ+BnrJO8+yPErnW7UgtILP0KOxdCz02g+G0rdaYa1tr532b4CzfJeKWPxFjyjp5IpvyZ9P8fwihyidTtPCnYHE97BbxKr/ABsVd2k/e/uN2TOJifKY3MUkBJ3PmIA7Q1pN/EL1VbKf/wBJfAsq+8pOLYzUVrtaolc63ss2Rs+q0ZDt2rqU0V1LKCy+ZoklyPjQUctTI2KFhfI7Y0fmTuHWVeyyNcd6TyRLeRrWjuDQ4PTPkme3nC3Wnm3ADY1vUPEkr57EXzxVijFadEYSk5MzXSXGnYhUOmNwwdGJh9yMbL9Z2ldzDYdUV7vXqbRjkjlr0FhCAUAqQKAryoUG6AkEAoBQHY0a0inw2XnITdjrc7E72JR18DwI/LJYYjDwujlL3PuIazNZoMXw7HoeZkDS+13U8nRljPxMIzP1mnttsXDnTfhJby+K5e/8mTTiVXHeTCVhL6GQPbtEUpDZB1B+w99l7qdqReliy8UXVneUrEcJqaQkVEErLe85p1D2PHRPiujXdXZ2WmXTTPECtST6wTPidrRvc13xMJY7xGahxUlk1mC0YTp/X09g94mYPdmHSt1PGd+268Vuz6Z8luvw+xRwTLxhOnlDWjmqgCJzsiyezoXfb2W+tZcy3AXVPehr5cyjg0efHeTqnnBko3c085hmboH/AKt7supXo2lZDSzVepKsa5nnwDk1Yyz65+u79jGS2MfWdkXd1u9Xv2pJ6VLLxfMOzuOtiOlmHYY3mYdVzm5CGmAs0/M4dEHjndYV4O+970viyFFspeLcodZPcQ6sLPkAfIR1ucPyAXSq2bVDte0aKtIq9TVSTHWmke93GRxefNe+MIwWUVkXSPkrA9VDQzVBtBFI8/I0uA7SMh3qk7IQ7TSDaRbsG5OqiWzqpwiZvY2z5SO7ot81zrtqVx0rWb9DN2LoXEuw/AobZNLhe3tzzn8z5AdS52V+Ml3/ACX78SntSZnOk+k82IvsehA03ZCDlf4nH3neQ3dfawuEhQu995rGKRwl6yxJAIQkQgFAKkFeWZQVIG6AkgFAKAkx5aQWkhwNwQbEHiCNicyS34LyiV1NZshbPGN0uUgHU8fqCvBbs6meq9l+H2KOCZcsP5TKGUATtliJ26zedZ4tz8gvBPZl0ezk/Qo4M9wiwTEMh6E953NLY5fKzllni6f8l8vsR7SObifJhTSXNNLLE7c11pY/A2d+Jb17UsXbSfo/33FlY+pTMZ0GrqS7ub52Me/Bd5t1s9oeBXQpx9NmmeT8S6mmVte0sdzR/Sqrw8gRP1ot8Ml3R929p7PNea/CVXdpa965lXFM9OP6aVdddhcI4T9FFca31nbXdmQ6lSjA1Va833sKCRXb2XsLnewbRKtrbOjiLYz9LL6thHEXzd3BeW7GU1aN5vuRVySLphnJlC2xqZ3vO9kYEbOwk3J7rLnWbVm+xHLz1M3Z3HWOHYPQe22kY4ftXB8ncHklefi4u7lm/Ll6EZyZ8KzlAoIBqw68lsgI26jPF1vK6vDZt89ZaeYVbZVcW5RKua7YGshYd49ZL945DwXvq2ZVHWXtfI0VaXMqU0zpHF8jnOe7MucS5x7SV0YxUVklkXIqQKAUBJAIQkQgFAV5UMxQkUAgqQSBQCgFAKEiEAoDq4VpDV0duYqJGtHuE68f3HXCxsw9VnaiQ0mXnA+VDYyuht++huR3xnPwJ7Fzbtl9a37n9zN19xYq7BMOxqPnmFhccvSICBIDwfx7HBeSF9+Fluv4Pl++RVNxM40l0MqcOu8jnKcfTMFtUfO3a3tzHWuxh8bXdpyfd9jWMkzzaOaMVOIn1LdWIGzp35RjiB8R6h5K+IxVdK9rn3EuSRpmE6J0GFM56csc9mbqiewa0/I05N8z1rjW4y7EPdjou5GTk2cvG+UuJl2UUfOHZzsl2RjrDfad5LenZcnrY8vBc/34kqvvKTimlFbV352d+qfo4/Vstws3b33XTqwlNfZj8dTRRSOOF6SxJAKAUAhAIQCgFASCEiEAoCvBUMxQChIoBBUgkCgFAKAQhIhAIQElIPVh2ITUsglp5HMkHvNNrjg4bHDqKpZXGxbslmiGszT9FuUSKotDXBscpyEv0Mn1r+wfLs2Li4nZ0oe1Xqu7r+TOUO49OkenVNQNENIGSSgWa2OwgiG65bt+qPJUw+Aste9ZovVkKDfMy/F8YqK5/OVMhcfdbsYzqa3YF26qYVLKCyNUkuR4gtSwgoBCAVIJIBQCgEIBQCgFASCA/XQkr4VDMUAoBQkVIEICQKAUAhAKEigEICQUgUAhAKAUAhAKEiEAqQSQCgFAIQCgFAIQCgK8FQoSCAUAoBQkVIEICQQCgFAKEiEAhASCkCgFAKAUAoBCEiEAqQSQCgFAIQCgFAKAryzKCFIJAoBQCgFCRUgQgJBAKAUAoSKAUBIKQKAUAoBQCgEISKAVIJID8gJBAIQCEAoCvLMoKAQVIJAoBQCEAoSIUgQgJBAKAUAoSKAQgJBSBQCgFAKAQgEISIQElIFAKAQgEIBQFeWZQQpBJAIQCgFAKEiEBIKQKAQgFAKEigJBAIQCFIFAIQCEAoBCEkggFSBQCEAoBCAUB//Z;" parent="1" vertex="1">
          <mxGeometry x="262" y="752" width="78" height="78" as="geometry" />
        </mxCell>
        <mxCell id="yvigqvCfVOGot-HgjFOz-17" value="" style="sketch=0;points=[[0,0,0],[0.25,0,0],[0.5,0,0],[0.75,0,0],[1,0,0],[0,1,0],[0.25,1,0],[0.5,1,0],[0.75,1,0],[1,1,0],[0,0.25,0],[0,0.5,0],[0,0.75,0],[1,0.25,0],[1,0.5,0],[1,0.75,0]];outlineConnect=0;fontColor=#232F3E;fillColor=#8C4FFF;strokeColor=#ffffff;dashed=0;verticalLabelPosition=bottom;verticalAlign=top;align=center;html=1;fontSize=12;fontStyle=0;aspect=fixed;shape=mxgraph.aws4.resourceIcon;resIcon=mxgraph.aws4.cloudfront;" parent="1" vertex="1">
          <mxGeometry x="262" y="485" width="78" height="78" as="geometry" />
        </mxCell>
        <mxCell id="yvigqvCfVOGot-HgjFOz-18" value="" style="sketch=0;points=[[0,0,0],[0.25,0,0],[0.5,0,0],[0.75,0,0],[1,0,0],[0,1,0],[0.25,1,0],[0.5,1,0],[0.75,1,0],[1,1,0],[0,0.25,0],[0,0.5,0],[0,0.75,0],[1,0.25,0],[1,0.5,0],[1,0.75,0]];points=[[0,0,0],[0.25,0,0],[0.5,0,0],[0.75,0,0],[1,0,0],[0,1,0],[0.25,1,0],[0.5,1,0],[0.75,1,0],[1,1,0],[0,0.25,0],[0,0.5,0],[0,0.75,0],[1,0.25,0],[1,0.5,0],[1,0.75,0]];outlineConnect=0;fontColor=#232F3E;fillColor=#E7157B;strokeColor=#ffffff;dashed=0;verticalLabelPosition=bottom;verticalAlign=top;align=center;html=1;fontSize=12;fontStyle=0;aspect=fixed;shape=mxgraph.aws4.resourceIcon;resIcon=mxgraph.aws4.cloudwatch_2;" parent="1" vertex="1">
          <mxGeometry x="262" y="572.0200000000004" width="78" height="78" as="geometry" />
        </mxCell>
        <mxCell id="yvigqvCfVOGot-HgjFOz-19" value="" style="sketch=0;points=[[0,0,0],[0.25,0,0],[0.5,0,0],[0.75,0,0],[1,0,0],[0,1,0],[0.25,1,0],[0.5,1,0],[0.75,1,0],[1,1,0],[0,0.25,0],[0,0.5,0],[0,0.75,0],[1,0.25,0],[1,0.5,0],[1,0.75,0]];outlineConnect=0;fontColor=#232F3E;fillColor=#7AA116;strokeColor=#ffffff;dashed=0;verticalLabelPosition=bottom;verticalAlign=top;align=center;html=1;fontSize=12;fontStyle=0;aspect=fixed;shape=mxgraph.aws4.resourceIcon;resIcon=mxgraph.aws4.s3;" parent="1" vertex="1">
          <mxGeometry x="262" y="931" width="78" height="78" as="geometry" />
        </mxCell>
        <mxCell id="yvigqvCfVOGot-HgjFOz-20" value="" style="sketch=0;points=[[0,0,0],[0.25,0,0],[0.5,0,0],[0.75,0,0],[1,0,0],[0,1,0],[0.25,1,0],[0.5,1,0],[0.75,1,0],[1,1,0],[0,0.25,0],[0,0.5,0],[0,0.75,0],[1,0.25,0],[1,0.5,0],[1,0.75,0]];outlineConnect=0;fontColor=#232F3E;fillColor=#E7157B;strokeColor=#ffffff;dashed=0;verticalLabelPosition=bottom;verticalAlign=top;align=center;html=1;fontSize=12;fontStyle=0;aspect=fixed;shape=mxgraph.aws4.resourceIcon;resIcon=mxgraph.aws4.eventbridge;" parent="1" vertex="1">
          <mxGeometry x="262" y="1023" width="78" height="78" as="geometry" />
        </mxCell>
        <mxCell id="yvigqvCfVOGot-HgjFOz-21" value="" style="sketch=0;points=[[0,0,0],[0.25,0,0],[0.5,0,0],[0.75,0,0],[1,0,0],[0,1,0],[0.25,1,0],[0.5,1,0],[0.75,1,0],[1,1,0],[0,0.25,0],[0,0.5,0],[0,0.75,0],[1,0.25,0],[1,0.5,0],[1,0.75,0]];outlineConnect=0;fontColor=#232F3E;fillColor=#01A88D;strokeColor=#ffffff;dashed=0;verticalLabelPosition=bottom;verticalAlign=top;align=center;html=1;fontSize=12;fontStyle=0;aspect=fixed;shape=mxgraph.aws4.resourceIcon;resIcon=mxgraph.aws4.textract;" parent="1" vertex="1">
          <mxGeometry x="262.02" y="1113" width="78" height="78" as="geometry" />
        </mxCell>
        <mxCell id="yvigqvCfVOGot-HgjFOz-34" style="edgeStyle=orthogonalEdgeStyle;rounded=0;orthogonalLoop=1;jettySize=auto;html=1;" parent="1" edge="1">
          <mxGeometry relative="1" as="geometry">
            <mxPoint x="519" y="1103" as="targetPoint" />
            <mxPoint x="519.0666666666671" y="934" as="sourcePoint" />
          </mxGeometry>
        </mxCell>
        <mxCell id="yvigqvCfVOGot-HgjFOz-22" value="" style="sketch=0;points=[[0,0,0],[0.25,0,0],[0.5,0,0],[0.75,0,0],[1,0,0],[0,1,0],[0.25,1,0],[0.5,1,0],[0.75,1,0],[1,1,0],[0,0.25,0],[0,0.5,0],[0,0.75,0],[1,0.25,0],[1,0.5,0],[1,0.75,0]];outlineConnect=0;fontColor=#232F3E;fillColor=#ED7100;strokeColor=#ffffff;dashed=0;verticalLabelPosition=bottom;verticalAlign=top;align=center;html=1;fontSize=12;fontStyle=0;aspect=fixed;shape=mxgraph.aws4.resourceIcon;resIcon=mxgraph.aws4.lambda;" parent="1" vertex="1">
          <mxGeometry x="480" y="853" width="78" height="78" as="geometry" />
        </mxCell>
        <mxCell id="yvigqvCfVOGot-HgjFOz-23" value="" style="shape=image;verticalLabelPosition=bottom;labelBackgroundColor=default;verticalAlign=top;aspect=fixed;imageAspect=0;image=data:image/png,iVBORw0KGgoAAAANSUhEUgAAAGEAAABmCAYAAADbA/8bAAAAAXNSR0IArs4c6QAAAARnQU1BAACxjwv8YQUAAAAJcEhZcwAADsMAAA7DAcdvqGQAAD7qSURBVHhe7b3nd5vXmbeb/+B8Ot/O+TBvxomrKkn03giwg72JRc3q1d1OHNuJnTqT2CmeOPVNJsnEsVNsx7ZsdYmdIEgABNjA3sVOSiziddbeDyGxyZET25n3rHnW+i2AIE3Rz4W9773v+7dvfI7/uf7p1+fWv/A/12d//Q+E/wbX52AOuLH+9f8fX8ub6G6vO/1361+/k9b/vLhu8rnl5Tl+/Fo3pccCHH+6mVNP1XLsmQ6OPBXl2DOdUse/1CV14svdnHy2h1PP9nLqK72cfq6PU8/1c+K53g06/hVFJ57rkzr5fD/Hnuvj6HO9HHu+j2Mv9HH8q/2c+Go/J782sEYnvjbA8RcVnXhpkJMvDXHy63fQN4Y4/s3hDTrxrRFOfmtU6tS3r3H6O9c4/e/jnNpEp787sUGPvjy5Qae/N8HJ741z+uWJFU3yyCtTH0OzPPrKLI/8cJJTP5zhwL8v8IM3pvmc4LHnVBv/T0ItD5hrUSX62ZrYxb3OMPe7I9zvbuEBT6vUg55WHkpql9qS3KEopYOHUto3aGtaJ9vShbrYltHF9oxutqZ3sSW9k60ZXWzzdn+kdqZ3E5feTXxGDwne3o9WZt8GqbMHUOcMoMkZRJM7iDZ3CE3+EJqC4TXSFoygKxzdIH3xtY3aNYauZBx96YSUoUxoEmP53clUPoOpbBrjnkkMe6fZkj/Pye9MKzHh+NNN7Ej0Y81sxeENY0jvxu4N4vA24cgM4MwKSonnDm9AeS1z5bWsIPaswAYl5kVIzI/gzm/BU9Aq5S5oIbGgBXdhq5SnqE0qqbh9gxJLFLlLO/CURT9a5Z2bKml3l1Tynm4pz95u3Ou1rxvP/p4NSnq4d4OSD/aTfGhAKuXwIKlHhkgTOjp8V0o/eo30oyOknxgi9cQwlv0TfOkHYwLCMo99xccOW4Vyg1OuYsoIoM1qRZPZgjazFV1Wm5Q+ux1DbgfG3CjGvCimvE6MeZ3o86IbZCrsuiVzUTfmoh7MxT2YdvVg3tWLpUSob9XjWpnE66V9WEr7sZYNrEg8X6fyfiy7BzbIVNaHuaxfylI+IGXbN4z94ZENchwY3SDnwbENchxS5Dw8vqIJEo9O4j42dVfyHJ/Dc2wGz8lJEk/NoH14gSd/MKOMhNPPd7DN3YbB24kjO4whpwVLpniHhxVlR6QcOYqcuS1SrrxWnHmt2HNbFOXdli03gi1XPK56Pb8Ne0EbjsJ2HIVtOIs6cBaJ5xtlLxbqkHLsiko5S2LqvK3SThxlXRvk2t1DotCeXtxCe/vw7O/H8/DABiUdGNyg5INDG+Q5MIhb/DcHBqWSDg6RdGiIlMMjd6cjY6QcGSX52DBJx0Yx7J3i6VfGVyA808ZDjiDGnAC29BYsWWEsWU1YM4NrlRXCkhXCmt2MTSgnLCW/zgljz4nckiN3tVqk7AJYfiuOAqE2nIXtioo2yrpLka2kA3tpVMpW0illL+2ScpR131H28m4cu3uknHt6V9SHa28fifv6pdz7B+Sjc2+flGtfv1Ti/gFc+xQl7h+Ucj98W54DAsgQSQeH8Rwcxn1oGM+hEamkw6N3VPLRCZKPjpF0bITEYyNo907x1CsTCoRHnmlni4CQ3Yg1NYLF24w5K4A5M7RWWeL1ZizZYSlrTkQq9jz2zlfe/a0bZMtvw5rfhq2gDbt4txd2yEdHUccGWYsV2XZFsYsbLwDs6pKyl3RLOUp77ih7WQ+O8l4p5+4+Kdeeflx7BkjcO4B73yCefUMk7hvEtXdASjwXcu9XXo89F/I8PHxLSQdGpJIPjpJ0cBT3QQFgVCrp8LU7KuXoFCkCxLFR3Meuods7w1OvTH48CKYVrQaxGsjfhtCKNb9VQrgN4rOG0C8hxED8nwfBG1wDYvXIuBsI1rwWLHktEkQMxmcJ4U4w/o+DYNwExMeFsBrEPwPCehD/LSCcfqaFB21+jNkN2FLDmNIDmLxNyjt/RaunpNVgLFnNGwAoasWW2yZlz1NkzWvdAGH1tLR6erLHJFZHxVEpW3EUq3jcJYAIMALIbSgbwAgQUr1Sm4FZPSJuaQVADELs5q8HEoPhOTBM0sERqeRDo1IxKKvBpB6ZJPXIOMlHR/AcHUW/Z5qnXl4JzKefCfOA1Ycx24cttRljWhPGjEaMGQLGWgjrFYOwXuasFizZiqw5ChBL7saRcLcxQsi2anSsHyGbQthkdMRAfCSEdaMiduPvCGHd6BDabHSkHl4F4cgo+t3TPPW9TwDCZkFa0VoA9tx2CcGcG5FaD2I9jPUAPi0Iq6emNVo1RcVu/mZg1gP550BYAbFe9rx2KUd+B86CKK6CTgnBlBNeA2L1yIhBEFoP4NOEsKnWgViv/14QsoIYvCHUqUHUKQEpVXIAdWoITWqzlDYtjC69BU16GHV6M9oMAUHAUICsn6I+awiO8j6cK7FCpkx29WEu7cdc0ncrPWIrH5SPFvm1eD6IfY/YyAkIAoACIuXgtb8TwtPNPGCpx5hVjy0lhDFVALgNwXxHCEEM6e1okxrIKAqQsztM9p4w+ftbyCxpI70oRGZJMxmlYdLLA2TubSb3YIj0/T5MWR2Y8jowF0TkqklI7CNi2iw+iCAtQNiLo4oECAkkBqILR6kAsTmQWxDKem/d9MQ9Azj3dGMrF9/rI/toF/lH2sg73kveyWGyjg6Rd3KEnFO95B0bpuDYMIWneik4PUD20Ws4S3tJ2j9A8sExuXtOfHiAFPl8ZEWjJB26JiUgpBxeC+FJBcIyp58Icb+pDoO3FntSEGOyH2N6o1wlmTOCUhbvegAKhAR3Cy98v4No6zRd3TMEO6cJd87S0bFEtGOKaOcU0e4btHVPE+2eobt/kkuNgyRlRzFnd2ItCm9YysqN3aqpaT2MNWA+Yjn7t0dHN4m7h0nc34++pAfX7i7O1EzS1TVGR9csbd2LhDoWaO1eJNI9S0vnLK2d07T1jNPSM0VL+yK/eGOUpD0iyzqJ+/Awtn1RkvaNkbRqdMSmqOSD4yQLIEeGcR8eQVc2yRPflbmj9RBCKxD8ylJ1FQjzOhCGdLE68lMZvqYUiZjmJjMsMSkrRnBdvna7iqRUlOYWIT2zGnt6C66Cjg0A5J7iLldN/wgEZ1k3luJ+HHtHMRYPkVjSTHRsceXvnF/5+1dXHsX/0+oK2RLtfYtkHh3GtWcUz5ExEg+I0TWMZ//GOJFycFyOCM8KBG3pBE/8+0oqezMIhrQGJTakNd2CsXrfIKRPD2DNCFDpEzcabt5YkH/kyNAEf/rrNX7/9jxvX5jnzx/28/77E7z37jjnK67z23dHcOW2yHS5MT+KYxMI62PEnUbEPwJByCZS5XvEz42RUnKN37w9w5XaSd6rhL9WLvLXq5OcqbzOhxU3+eu5TgZGJ1levsHizQkJqL13mewTPbj2jOA+NI774ABph8blSJD7hzUjYUxu7jyHh0g8NIymdILH/xYEg4gNqyCIGLFaujQxSnxUNYzC8gIszAKLLCws8cPXxogz+FC5e9Gk1mFL9WFKbsKUGUaTeQVNZi+6wgh6kVW9A4T1q6ZPA4JD1iMiOMv7cO+6jrskRGJxCH3pKIbSCRzlk1h2dRGX7uO7r7UzOiFGygILTMmR0dwFmcdbce4exPnwBO5DQ6QfHl+zf1g9HYkY4T40iOvgEJqS8Y+GoE/1SQgxEMqKaR2E1ADWzEaqmsbk0BweHmByTgzdm9xYmOSV1waJczai9tZg8dZjzoyiz+jD4PVhzezEmV+LLadxZUe9DsImq6ZPGoKzrAdbcS+2slYsJc04yoYxlrdh2j2ObXc7rt3DOIvGMGT4eOHVVianl+SIvz69xGDfjHwe7l0g62QL1tJeHPvH8RweIXGvqFtsnI6SDozhOSBGjAJBvWuMx/7t2kru6Mkw9xlq0KRWYnE3YUxpvDUSVmvN1JQeQJ8awJYWoMonYsASFypGePLLrfQMinfLODeXF/nWj6PEu6vRpLdhyerCkdWGNSOCPbMLV2EL9sLGu849iVT434oRMd0JzFo4Ip3Rhru8E2vhBDax/NzXgml3Dxn723GUj5GQM8Lzr0ZZlPd/gdEZePGHffzljICwSGvfLDlHh7CJIH94ANfDY7j2inrFZhu7a58MhNXSJjfi8jZT3SAC8w2u1C+yXefj+FNdjE+KEbHM/PIi3//JNXY6/ai9Pox5deizatF7G7DltmPOFDvru4Wweb5pPYC7h9BDYnk3iWX9OEquYRVVur1duPZMYSsbJz65n5d+3MHMkrjhS0zduMELPxxBkxrhnUvijTdJS+d1co4Mr0DoVyDIotFnBEGX0og5uYnKWvEHzVMZmkOVHOVBWzMnngkxPStWGDdZ5iYv/7yXba4KEjIiqHOase4Se4xGrBnRvwvC3xoRdwPh1nRUOIBn3wDWXS0klg/gKJ0mPmeEr/24nRtLfRLA/MIiL/2wD11+N8a8cd6/LEb7FJGu2c8WwnppkvxYU0NU+8RSbpnq5kE0GVdQ5QRIcId5/EstTEyJEbHEjcUFvv/zMbaZfGgyBtDmNuEoCGLztt41hE++HtGNo2QAV/kw9pI2XAJMUSf6zHqee7Wd6Zsi+C4zfeMm3/zhMCbvODqxlN3bz5kLyvTU1jf9T4bgETYZP9UBsVyD2oZrWNNrldRFeoA4ezOPPhtmclosXWdZvDnD937cS5wrRHyGD3OOH2dO111CUHbV64O17R+C0IOtRKQwenGVd5FUMoEmrYmv/CTC7Lz4m29yY/4m3/zREKqcLrmSsu4akPAvVYr/5xkinXPkHBlRIBwREMb/Pginn2jmXn016pRKzImNGJL96FLq0af412gDhKQGrGkBahrE0nSeev8khiQ/hgw/5vQ29Fkhdjh8PPqlVgaHxF5ihsVl+NZr3WxNaiY+tRlbZhDzupq1kCVbpMjDWPPaMed3Y8rrx5TThTm3A0teB7aCdrkychRFsQlbTX4H5sIOLCKFUdaFsziCsyiCo6gNW1EUS1EX1uLODfUIW2kUi0hj7B/DlNvLc69EmBT3n3km5hZ46dUBVKlDGMu6sOxpwFI0iDO/nfevDMjNXKRziYyjYmoTxoAhEkW29eFhXCtl0zUJv/2jJAkYBwdwHRhEU3yNx78zGoMQ4ovrIGiT69AlN0jdCYIIzObUenxyJCxTE5hF7REQGrEmt2LIqseY00OCNcwTX4owNimmrRssLi/xyq+GcWQ3Ykm5g3kgU0xTEcx5zZiLmjHuasaSF8CW1YQ9N4gzvxlXQRh3UQueQjFSgphzmzDnB2QqJHHXJI6iMaz5A1gLurEVi1EQxVLcfisB6CjtxFbUhb0ohD6rlZd+PMrMotghTzJ7Y4Fv/rAHvRihuwewl3Zi392BrWSc5PIo71SIZTlEhyD9eCeWIjGahrHv7sK1f+TOEETC78AnCEEnIGTU84f3hmlrv85v3p5DlxLGJEqknjCWHB+q9BDq5EFUjlZOPdnN1JwAtsCFS3N4vL0Y0isxZa4FsboeIbOsBUGsxQ1Y8puw5DTLlLg1twNrbheOvC7chVEcIv1RoIwKccON5UEMZUFMuyKYC9uxFnRhLepcA8FeIip2fXjKhY0nwI9+PSLj19LNSb75Wg/mrFasxeMkPiy8S53Yy4TdZhRXaTc/fWuanpF5ztYskHq4R4Gwe1BCcOwZxrX3M4IgpE8J40hvItHzIXZvBXqReU3yYUluw5oTxJjrQ5cVQJvZzNYkH489H+XMhyN4cwbZIXbQ+ZENNWuz8DEVBOSNdeQOYs/ux+rtxJDdhi6nDXVWC/EZzexIDbIzNYDWG0SXFUGX0442twttbg+GvD70uV3oc9sxithRLNR+K07cihXl3TJ5ZxXTTW4rL/9XD99+rR9Nai/WEmEsG8VWNIezvB3P/mZZ8LGVDpJY1klaSRBveYTEPVE8e8eVKt3+Xhx7R3B+VhCMqX6Zuoh3tWCwdZLgDqH11uJMq8OcKeKKH6s3iCXTjzU7RFxaLcaUViyeDtRZtVjym7Gmt2H0BtbWrrND6LMDaNNa0SR1YkgNYfRewZVTibfYT/GhCEee6uGJl0Z49tvXeO4bozz11TGOPNlH6eF2ssrCJHo7sGV0YchoR+1tRZXbiqkoqhjKJIQOGRNEjHCIQF08iK1oAlVBFfriQaz5I9gKw9LD6ioZwbqrB0eJmI6i2PeOYN09ianwGqb8DhwlUTx7JnDt7cW1vwt7+SjOPR8TwqknQtyrq0abXInZJSA0oE2qRZ/kkxJfC20I0imN6DJq0aTXoXe3oMuIYMppxJnRhCm7BoPYYSdFsCaHMae0YE/rxOppwZrejrGgGltmHe70EMb0FnReP4acEKbsdtSeCAlJHWSUt3PquTD/8dsu3queJDoww9jEDBOz88wtLrHIIjdZguVlbt6E+fllZubmGZ+eo63vOudqRnnt91089Z1ecg70oUsLY8zuke9wuwjGJa24CvtILAriyo9iF9W/kmYMRV24d7eQVNqLc1cY995mLEX9OIpH5S7btqcXU1kPFjFFlbfhKuvDLpa6e3px7BYLg0Fcm0HYNyoNZ+6H+3E+PIC6aJTHv70C4eTjQe7TVGHwVGBx+uWN13mqMXjqpIxJ9VK6JB9a8b3NgKSKR78Eo5ejJLAmzSFrEumN6MXewiu8rc3KCEhtxpLejF6Yj7M6UHnq2XMqzOtnBukZELkCsSlS8lFivlae3z5gobwmJJ4LiZ8Xm8TYpfzsQO8c75wZYd+pbvQ5frRZoyTvjkoIlmIx17fg2d2NSXhtd4VXbJcdWHe1rRSKxHJ2szzUbRfH6mrdatOAdPuJpereERJFNW5fH479/agKR3jsWyOfJIR1U9W6NLg5PYgpJ4AxvxGdtwFrdpucmozpDZhy6jCmdGNP8fPjX3UyPqfstGM3cXb+Os3RQd67PMrv3p7gF7+f5pWfXuMbL/fy/Lc7ee47nXz9B71872fD/Mdvx/nFm2OcvzJNuP06cwvid8XgDTE2M8ervx7AnT+ETlT2dnXhLBKjoh9TYRvmXa3Y93RjKerBVTaMq2xALm9d5d24RDVuA4TNS6brnX5S/3QIImBn9qPNiKJO8WPO6MGUFsGUHUCX2YnKcZGf/bpt5cbfZGl5jrrANN97dZC9p7tI2RNAk+wj3tGIyhVAkxhC5w6jToqwMznMzqQQ2z1Btrmb2Ob2o0nxk1TUxcHHR/juz7qojAwyvyR2wGIJCq/+povtaVXY9vZizYtgyx/GmNuNLrcLQ844tl19OEsHMRf04SoXvlVxwzuVpN9dQIiBWGupGf7nQBAjwJgmMq5B4i3VWFLPk1xUgz45It3fYuWkShkku6yaSNe4vEnRtlFOP90r0+TbPc1sdXeg9vZhye3EXtCBLb8DW167lCW/DWNBG6aCdkwFYsMWxVzUgb4ogia3jfi0DtRpPRizx3nkqTE6e0Zlta9jYIa8I1E0eUGcu9qw5/STfbCVo8+1k7arGVVWDeZd7STuHsW9e0Rxhosl7ceAsH5E3CWESizOho8JQaQ4xA1vUAwCqQH0KT4MacIoEJRzfILLh8Ub5ktfDVLX2M9fr4xhTq2RKxdDfpCtrgD5exrpG1HmdZ9Mf4R4wOxne3IEbaY49dOMNbsJc47YYQcwZ4s9QxPWvBD2glasuWJf0ixlzW3GWhDCXiQ2eyG0mQG2J/nlaaGrQSUfJGoDu490oMlswlbUizG9mR/9foiJBWgID/Pir0TdOIDG24Epvx9zcRvWUmHT78IpahElIvMqgHRvCmG9wUzC2PMREI4/1sC96kvoXfWYXVfRuhvQJtagd9dKxWCs/1qA0XtEGdSPJb0CS1IjemcQfXIt6tR67rNVoUmt4sXvtRFunmFZxstZ5plj/5F24h1hTHlhdnj8pO+tpatf5AsWuMki7YM3+MEvIuw92Y4zr5MHrQ08aAuwzRUhLkmcIOpA421BlSGWs2G5D1FlNJOQ2szO5BD3uerZlhjEldPOgUeCvPbrPjq7FpUwvQyT1xcoOx5GndWFNk/4opq50iQAKX+jyJD2Dt7gtd+Nk/5wF/HeVrRlbdj3dpJa0kdy/gBOeZpIjI47x4nVMO4Sgg+z68otCLoVxW78Rgg+TKmVaN1VGNy9qFw+dKmVJDjDxJmqOP1MF00tMhGzMhffZHhmkjfPdJNXJlZKwkrTRkJygIx9DXQPiJ8VNyoWTOH6HARDU7z91gDf/WkXj3+rhf2PN1J8KEjenjZyyjrI2d1G7p4Iuw63ceiJfh5/cZwf/XyCN9+ZobpxjlmxYJL/vniiFO4nrt/gwBP9xKd1yf2Dq6iDh5+s4uevt9IxtLTyr4vrBu29E3z7B5MkFQ1izhmTu2PHvgbMxQHsxUMbANwJgmv3kITg2teLfV8fCQV/A4LGVb0GwmqtgZBcgyWlEa07ij6tne2OC7jy6/ntmxMsyPuv3Pz+oZu8+psesvfUo7EG0bnCGJIjmNO6UHn8ZOwJ0DmguBqi3XOEw7PM31ppil8kvqeMkhuL88zMXWdmZo7pqRuMjS8wMTXPzOwiN+aXuSmyhLdWV4p7YnFxmZrGGRqCIjWxyPjMHPsf60XtVXbP1sIu1GmNmHMbyTrYwldfvUZzt4gfMafFIleq5yg+2ElCVg+q8gCO3R14SsZvLWHvBoJrt3D1KRDi84d59FvDd4agdlahdQlthHEbQh1mj7ihDejSr7LDVkV6QRU1ct5V0tszs0v86tdd5BQG2GY6R5zdjylFzMH1WHLPYfZWoEsK4C1vob1HTAPwx7cHcaW3c/SpKD97o5PalkmGpudZuHFzleMkZkuJjTRxiRsvoE+wMD/D6OQ0/vA4v/qvPh5/OoorI8LLr3XLn5ycnmfvqQ402W2Yi9rkztlacA1rwQSGvA62p1TgLe3ltZ9PMTwSW+LO0ju8yNEvtaL2ivgwgnv38F1DkGaA8n6ce3rkqiwub4hHvrkBQgNm1+VbEDQSxEdBqMeUXIfW7WOLtZbU0ioaQyJTKm7ODP7QFPtPdXOfzs82Rz3G5ACm5AocOVUYUn3SQmnJqMfgbiSrLEpbj7iBy/zhrXF2eOrYntiAyi1iTAOevHr2nmzmma/38m8/GeOHvxnhJ38Y4Gd/6lf05jW5R/i3H4/ywneH2PdYL8mlAWz5IZlE3JYUJi65gx//XqmUjU/Osv90L7q8PqylUYxFDZjzenAUDOIuDeIoCaHJH2RL6hi5x4KcrxyCmwLGFGOTkzz25W5U3iiG8g7pwrtbCKIm4djTjXVPz2oIy5x41M99qivonZWY7TVoE+vQuirROatvSb8pjHoMyXXscDWg9VymulbUYmeEvYs/fTCKNfU8W02VqD1hJYWRInbNTZhS6zAkNWNK68SYEpK76OzyLqK9YiQs8PY7M6icrdLXZMvxYU4LYnL1k+AKszPRx87EJrY6hEJsdTbzkCPAFmeAra4gW91BtiUGiHOHMWf1YswW5cgOubLR5ob5west8k0yOTXD/lMDaLJ6MBe0YM4PymKQsyiKozCIq1gYw3oxlnagzmyW565/8foos9Lqcp3hwSnyD3SSIBwfJZ0k7u4lUWRRS/qw71qBIi2Xt89HuEQ6Q4yE3d3Yd/eQkDvEo9+IQXikkfsTrqJ3XsJs86FNrEXnqkQvbv4q6VzrIdSh91Sxw9TET18X7zBxLfDWuSHiXe+R4LyEQzj3PH7soiadVIc+tQmDlNhfiJyUD1WiD29JK1E5HS3z1l8GSUislG4OU1oLFm8L9uwwzswwTuHU8EawesOYxYkib0imQJx5LbjyxSnRMLasEHZx43MjGLL9GLLrMOf7USW38trvFLfg1PQ8+073oPJGlDKpKBLJmrUwI0exi/R4YQeOAvHYiSEniskb4KdvzsjVnZiazlXOYymKYNvVKwtGcgSIjOzK8/VKLBskcQWCo7wH1eYQLmO21X8EhOq105OnDpXtMjm5rQxMKIEz3LZAYnYV8dZqLCkBWYM2JTViSfXJrKvIK63Z2CU3oXL6yCgJ0NmnTEcXLl9D4w6z0x5C5WlEm1aHMacGW1YrlrQohtQIhvRmpdaQ3Yw5LYDNG8ae2YbDG8WeGcVU0IipIIgptxVtRgvbXKLO0cB75xS34PTcEntOi03g5k4/AWGNxAYwYwhLziBnfSKu3GRmYYJHX+pEm9ONMb8dizj+Wx7FUdaxAcCnCKGWLaqrvPyKKPXNs7A8xVNfb+U+VQCTJ4zRHcCc0iSnLaO7HovwKonN3S0IfkypYQnBW9ZAz6CIJfNMzC7yzuUpDj1Rgyu9Ua6m4ix1xCc3sDOtgfiMRhKyQyTkh9DmN2PKi6zsFUQqPYjW24w+pQutO0yCs4qkgnoOPdnDuxdmmF8Sb5Z5aVIrOtRCXHI71vyN5yM2QCiI4izvQJPbzp5HW5iRLJf444ejbE8Ny9S4o0zUH6K49yrGsk8FgnZVsJYw3LXcn3CJP77fK99dXSMTaJMuoXJE0Lv8K9NVJda0BqypYYwpgXXpDT/m1Dbi7T4yyqroHRIrnZgJVxhllgl1TPGXd4f4+jeH2Xesl9y94h1fg8ZdjT5ZpEVasKRGZHpE9NRwFwRILwty6HSUb7w8xBvvDhNsnV5ZaK6scpYXGJu9zq5jLahSuzeaBzaDUNiJudCPobgbW14XwVYlB1UfWsS0qwWrdPC1Yy/plWmOzdIbdw3BZK1D46pB66xA56haOxIEAGeVHBFyVDhr2G66xAdXBuXwbGq9wTZ7BSrPFfSJPgxJldhFvcFZgcHdJKee9elvY3IzcfY60nfV0jOgLDl7hqYYG46lp8U6XwEzd2ORielFenqvEwxPU9cwKT1PV6snqPGNE4hM0jEwx8DEdWZuKDYc5RK/a4JrU/P09d+ApWUm5xbZfbpdJv82Px8hDrrflgjapqwwpvxpLEVB3j4fkb85FIXUYx0YCoQJQJyf6MdeMixdHRshDMjawy0IOesg3Bd/FZ3jEkZLLWpnNRrHVbT2SgliPYzVekh1kXfP9cs/qLlrHFVSBQkevwziBo8isZ+wpgXRuus3yT01EOeqJaO4md6Vzdpv/zRIZnYTr/70GjX+CQYnpli6ZUtfXT9Y27xJeV1AU0y7izcXmZhdoqF5kdd+NkTRER8/+E1A/vT45DzlJ6KoMls2NSSvdvjF5CoOY8wfRJ8ZprpJJBuhvmUeS7kwI0TkqsgqRkqJKPyLhN9aL6yrtF9ZzpZ3YS/rJiF7kEe/MfSPQTC4qnko4Sqv/VpAWGJ6fpzdxxt5ID6I3i3cec1yI2dw+zB4atF66tAlrS2ZCikQQrcg/OGvQ9KCs81RhzGjksy99bKB1Xd/2smv3mznT2eHOVs9xRXfDBX+aaqa5qjwi0raNG+fH+H37/Tz8n8O88hLUbIPhGRyT5XSyk5nAz/+TYf8NyanFnn4sR4SMsT5uo0QVseHmBzFor7dTc6+XkbHBPAFPqgaZFtqcMW90YN1VwfO3aKEutGQ/ClBqGGH4SK7D3Vw7brYI8xx/vI0KmMFusQGLMnN6BODGD2izFmDIWWzkbARwpvvDqFJrkGbLOJIN2pHmHhbDfHWRuKtIVSORnQecYjFjy27EXuO8DmJXFQTGlcIjSNCnK2ZOEcj+rQQtrwODFntqN1t/PL3IhUBUzOLlJ9sY2dKYNOREIsPt+OEmK765f7j1+92ynLqItd56UeDxKV1YsgTO+9WWaFzlLV+hhCcNWjsl9iureOND5TgLK5X/3cv92v/giGpRp7GMbgDGJNq0HpqVswDt6eizaaj198eQmdvxJHahiM9JOOK3XsZe7boNNOOIa1Z2vJF+tnkbcbgFcvYBnRiQ5gpjuxGceSEcGSHcGRFsGc1YxOrJneEX7yu7BMmpmbYdbQVVcbm5yPWQzDltaFyV/GV7w4xviDyT9cJdNwkUfRVKhhEnxvBVBjCVqKkQD4zCEJGdy1bjfWkF16gv1fZxEwuLvHcK2Ee1L2Dxt6IwROScUHUKcQhQ21Sjbz5BrFbTg5KCOnFAXokhGX+/P4wW0yV7HBUoUqqQpfehD69U7o3zOl10sFhTQ9jSW3BmBJGL452eQMyDWLOasKQ2aikuHNaMOW3os1qYVtiCLW7kT/8VTFtTUxNUnJMFH3asee24hDBWExDoi1QfkQuW8Uew1LYKmOAOqWZL3+nl0FZel3gxtwYhx6LosrvwVbUp7g3SgWADmxF/SsQFBB3BeHoCR/3xl1BbT2P3lRDgr0Kje0KOlslenuVlMFRjc5etQGMznkVtbOeL8Rf5cCjDYyOiVXJFIuLC/zhjyO4vI18Mb5W1irEtGRMrULrOYcxMYg1qQWjsEMmNZBUcmVlx3yDGwtz/OIvIxQdrsbo8fOQpp6dVj8JiXWyWCQ6kxnSmzCkBTBlNGLy1mD0+tB5g6i9EdSZEXSZTSR42thmbpE/X3QqwG//3MH8DSWrOjY7R6moJyT34SoQnqMGLJntUq7iOuyFzcRnd/JQ6iC27CC//EU/N2S5YYIFZvnWj/qIczdhKgrLHbZDtn+IeWFF+4eNXljHrm7ltGlZO9aSDnZmdnP6pb47Q1BbL0sIq0Ho7JXrIFRhdPqIt1xBlXSBB3Xvc/KxJgaGYo6HZcLRcZ74UiNanZ8EfT06RxCDsw29x4cm6QMMadXsdNWTVHKVrl4BUCnsiGtmdpmq+il++KshTjzXjXdXEw6x85aBPojW04LG3YreE0GTGESfKBKEIWwZIdLLAhx/JsrPfj1Iff0IszPidy6xzLCcSsZnRUxoR5XchS1HqczZ84ax5o5gzg/L9LpIt598uod6mRUW13WuLy7xw5/2YhXplMIBbGUirbHRlPyJQNBYL6O1VqwBsRGCmJIqMXmuokmsRZ/Sxn2qs5Qd9uNrGbplQ7m5uMTFimmOPtKMwxNipypCgt2PRuwbktvZ6agiuaj2Vtqiu3eW69dXn/gUWJaYnJqlr2+KhsYJLlaMcebyBO+cvcafzwzy/oURKmsmCTfP0d09x/jkdRaXYoUc5XeMX4fhabHVXeDa+CJlJ9vQZIRxF3TiyI2iTRGjsl66QfafHuDtd/u5uRADcIOO0Wme+GoH9tROHAVd0nhs3dWPQ7SQ+zQgqC2X0FiurgEhAKyGoHPUYPScR+c8j97Zxw5LDTucl7hf5cee6ONnvxhkZELJ1YibMbs0x+XaPr71ShcpuQ2oRaBOqUbjqiWtsJGOHuUc2OtvtlN8pIpf/LFfHke6IVZeN5V0g3JTV+8RYn6j2LUa3nXm52doH7zO7969xoHH2vj9n0RQhYmJJUpORLjfdQVLpkgIBknbdYGnv9nEu1cnGZpSahviurG4yFsf9pF7IES8owNL5gC20lrMuxqxFgoId2fN/7shxEBIbRgJYvdcg9pRicZ2GZ2jFo2jDo2zhgRjBQ+qLlG0v5W3zgwyL+qU8hrnxvI0h46LnFAAY3INcaYrpOYHiMrADr99vZ8vaqvZaqmXgbj4QAPPfrOd134/wu/eG+GDq+PUN80Rab1OW7s41D1JMDJHrX+W8xUTvHV2hJ+/cY0Xvz9E2bF2bNlNxCf72W4O8uvXxRJ1iampWUqPd7M9rQVTVguJOQ18WCmmqlgJdJbFpSXO1lzj5AviBGoLO1MblZVPUS+m7FbZq8+WJ+z30X8UAhw5VscXtl9Ea72AwVhNvLVCxoRbN39F62OEQYKoQ++qQ2M/h9ZWidHpR+u4gM55EbW9ju2GOuL1l9lzyMd/vd7D5NQcwfYZrM5qVJYIBm8FOyy1pGdH6OwTMWGG373RTZyjifhE0TEgiCqxjW3Gdu7XBbhPX882ASctiDsnhDsngDs3hDM7giWtBZUrzHZLkO1mH9utPuKdAbSeNnRJnSR4uvjJGyLFMs3s9AKlh8PEpbZgy+mRaZbf/EUkIpeZnLnGXy5NcezZZkzpQRI8HWgzOjCJXhx5TThEmjuvB3tuB/b88IadtYCwWb8mR3GXDN7iVJDwxO70dvHIizEIR2u5Z+sFdAKCoZp4SwUa65U7QoiBECsmvaMSrU2MktgUJRJ/NVIGZ5WUzlHNVn0VGsN5isvPU3KwinhTldxcqVIvss3aSFZ+E9F+MXVN8tYfRnhAdZF4h0/uJzTJlRi8l7CI5aksDvnRid33SlFJl3QVXVIlxpRqaaUxi9S3t0l2rhT1BsUH1Uic1cfPfivqHjPMzcHuk0F2pviwZbdg8LSx/9EWvvvTbvYfr8GQfZUd7hos2d1Ys7uw50ZwFYqWQUKxNqNKd0tbwdrDjOtHxW0pEBy7ViBkdPHI1z4mhPUwlGCtLFs3Bux1cokVVztbDX52mCvQu1rROn3sdJ5hh1MYg2toCosgeIOxgXle+nY3zpRLaKw+EpzNsqKmS6rFkubDmRnA7m3C5g1gz2jGkhzGkhLBIlLKaWEsaWES0ttJSI2w0yGqhPUk53Ty9W8MMzwippopeoauk7GngR3JjThy/bhy+9Ek+dAk16NL7pXeJWnTF0vWQmE6C2LNFcWitWeubas2dqvrERsBfEIQVseI1aPibiAYxPSTWI86pYEEVxW6xCa0DrFhqyDec4mtmqs8/1IHizLG9rDEdVp75/nFbwc49niUrKJWjKmtbLM2c5+2gQd0QbaY2thqamWrJchWS4CtFj9bLHVstdZhzWgle0+E418O8PM3Ogn1LLK0LH75dbnSevlnojWED4O3D7MwJnuVXkzGPJGki2IUwTqnHWdBp6zQmUVrujyRZ9oIYX3nAZln2gDgE4awOlgrEMR0JFLfCgi9rEWIKWk1iBq0jsskWC+hdVRjSFLqEiZxFsJdi9YdROOs5pmvhYn2imlJmoWUkzPMMDA6TJV/incuzvC//9jDD37Zyvd/3sb3ftLBv73ayQ9+2cPPXx/kt2+P8uYHozSExhgaW7j1W5QV1DzDYzf4zqvdWNKr0aUIEB0YvS2K6SBbpECasOeHlLR1ZljuoMWxLUdep2yedRuAmI4i2DY7zPiPQNBaz0sIcearqC2X19z0O+sKGqvYhPnROerR2Wsw2ILonBXKjRfGAXs1WscVTIkN6KwBdImVWFJ8aFwX0dh8mD1hWVNOEEV8Uy3efD+v/qSZxubrzMzH0tbi8ZbfZdWNjX0vdsXS3TG/ENL/FGmb4z/fGGDXgToSrOJsRR+mDNGpphGjOMabG8KS04YpQ7SiDmHL7pAN3K3eNmw5ndhE+XKlEa+zoB1Hbg+O3AFs4vSpSG/kRmR9WgCw3jE+dMlH+67WO0DYch6N5Rx6fRU7TZeJN11AZbospTZf2VQq0xW0tnNKUE6sRe24gtZxBp2pHkOiyEXVoLXVo3cKXSXBVienIpUI2olBTI4wWjHiVvub3LUk2GvYahT+JD+7j/j4zitB/vBGN1W1/bR0jjI4Ns/41E0m5paYvDHP7PUFpmYXGZtaYHhsgYHheRqbpvnjnwb4zvebOfpkM66sehkfVEkBpa2oyDVlhqRhQKyA9FlB9DkdsgeTMBVYMkWPcFG/Fi2oO3GIWkKmGB0R7AUhHHIkiBOmATyFPbIhoyW3GYvIO4ml62b9mkRsKWzHVtyCpbiNHemdnP5a7z8GQW2+ispyiW2Gi6htV9hpqCTefBGV/TwaWzVGVy1mYSx21aK1+lGbRTC/jNUdQGO5hDmxAbVYWa2qXStOjjoJKcHiY7u2hh2aWlTGRgwuYVauwZhchTO7nuw9LRQd7qDg4Vayy8Mk5zfhSBeuwDo5qnY4fdLvJPxLatnTNbSmpZzIwJq9ftnkxJzdhsrTrJwoShb16lo0OXVosmrk6SNzRhu2LCUeOPKjshJnyAljEfuEPHHqNIwpWyxhxUFHkQBcbxwQ+lQgXEZlrMZgu4ze8jtM5mo0pjbUiSIBKN791ahtIlknNnN1xMVX8OK3W6gM9VJQUskOw1l0HgGhZi0EUZFLuoQp9Sqm9Dp06T5UYvryiKkshDYxgMblRyPMYY464m2VqJy1aBP9GETnspQQcUk1JKTUoM+owyyUXo0pw7+hr5/J2ygfReJOl/I+//nnMV77ZTsJHh87UzowCKt9oR9TmrDSNOEu7MTm7ZdN2Z25ETyFUSw59fJMnqhbiKnIXCCO+27i4ij4FCDEG6+gs1zkD+8Mcu3aNO+/N4vBcIk4+1/QOCpRW8VKqRat6wIPaP/AC99oYWxKSTHUBEZweBvYYfWvmY5iniZtYhCNqwlNokh/16FLq5OeV6vIXLoaMDob5CFHa1JAusGFzJ4GTJ4G+WhLbcKS5MeeHMCV2oLV1SwdgPKI1q2RoBydNWW0oHEF+dFv+2SKTwTwV34yIjd8Gm8Pmuw63IVtmLxhjKndJGYH+dXb/QxNTnLBP4OnNCKb+ZqzoxjF2WuxnM3fpF/TpwEhznAFg/kCdQ1KkSPUMIdFUy3hqKzn5GhQmYSJ4C88+S0fYzIXP8Di/ATf+tqwTHHEeS6gFU6O9RCSGuSSVuWoQeesx+xulD4nXXKd3HiZpJnML39OL6pq6aKoU49OjBxxelQcWEyJYM0IYc7wo0+rRp/uk2cm1nS4zBJHtyKYktt44msVTIhdnLDvLM7yyk+H2easR5VZizkzjCOvG3PaIIlpAT68JEq6C7T3z5O6NyL/fVdRv+xAIM9dr0BY069JrK7uBOHw4Rr+9aFzqE1n0Wor2GG4RILpAmoBwHQZjfmKlHgeAyMUp7+M3naWmgYlY1pdO4lKfxGN6So66xlU1gBf2FHPUy82IDuzcZ2p6Rm+9JKPh+L96O0hjIki+bdxX6ETlha3gCLMAnUYBQC3CNzV0u8kZJCFojq0yT60KT50KQ3o5KPSMEucFBL1B0Oa6GTmU+Ctbq4oWjqkhXFkt2DKC7DNWsuTz4YZGxOJxAmWWOAb/9Eh+zWp0lpxZfVi8QawJndy7kPFzdHaM056aTsGAVcE6rwu7DniQz02NtISscRR0I6tMIK1oJWdqVFOf7XnoyGojJfWgNgI4RIG+2WqfEq1qqZhEo2xCpWugTiTn/vur+H5F+uYXRD/U8tMzMzzpecbeSDhLHFOUbm7jMXRsAGAhHBX5yPqMSRtXrdef3wrBmV9c0VburDnN6DPqceQOcROYxOnnwwxIZui3O7XFOcUZ7b9GAvF5rKG988pteq27jnSSzswZIQw5gZkl4E7QRDWTPFpKtaCMJaCFnakdnDqhY+AEG88LyGsBrEaQAyCzlJJZZ3S+auidgiduZ6d6gb+dXs1L7zoY3lZJMxgfvEmz7zUzAPqD4h3hklwNaJ1XkXvEEbkjRA2c4N/EhBWgxAVN1tGRJrdLHk+4tOC6DL6ZeLwxNNBplb1a/rez3tJcFWzPdWHNivKu5dExhVaWldDEKmNu4SQH2FHyt+CYDhHguGiVAzGRggX0VmrqZbdIOeo8U2RoK/k/h1v8vSLtczfVHLyM3M3efr5MPdv9xNnqybBJdLmHWhdTeg8ZzfZXVevdfptcIP/fRDWwxAnSoWLzy66UmbWYitoROOtxpDXiGpdv6briwv86CdjbLfXEO8e4p0LSt+/lvaZjwFBpL5bZScDc16Y7cntnHqh+84Q4u4KwiW05itU1Il3xQKV1Yvc89B7PPH1WuaXlB3u3PwSX/5ahM8/dAGVtRqDyL46r6BxXmKno4Y4W73MK20G4W7OR/wjEMSpUnOWH1N2rTwEL7qYObJEh+QA6vTQ7X5NUyv9mhZmePmXvWwxhnjjPfH/vERb9DrppdG7giDazYk8lAIhshbCkUP1fP7+s6j0Z9BqLhNnuCCnoxiEDTBWFKe7iMZ8iYo6YSNZ5sqlLp594RITsjZzk5nrSzzzYpgHtzWgM15F43oPrUts8ETLhovEix20SGOs5JxWJwBXn4248/kIBYZIa+tXgAirvZC01qyCshkYY2oTehGwvY1YvcLZXYs5vQljeghDmmjdE2abrY7Hn+1icMWsPH8TXv1xkLfeDivTUXSetNIwOtGZoFD05ejGni1SHRGs6z5TQnTOF68JCOLA5LbVEI4eauDz950lQfc+WrWYis6T8DEgXKlTgtTY+Cxj0iIPo1PXeeLFWv5X/Fvca/iQbYZ3iTOKQk6ABFMTKptIFFZiSKxdSQB+dBZWgtnkfEQsYK8eHUJidGj/RoMUpQVEA8YM8T1hpRFn78LoPFHpbUrIrEad3c2DhjCPfqWbgWGlpLp4Y56RIbE6gpauedLLQ+jTIuhzfOjT27Fmta00zVJ6N33KEETQvsjlOrFEXeamTBXD/PV5nnu+kfseepdtuhDbbdVs0V4hQSsqd2dJ0L+N2iTMxRWoVwDcHYTNY8TfDWGl2KNPr5KJPLFXsKfWYHWJNnTihl5C621C5e5iu7GR575SydS4cppxecXzGo7eILlYjJxWrEXijHVUFokEBJHw+0wgiMfLtWIkLHJTtC/mJrOTk1Rd6qeiqo+KmimqahapqBukxjdMXf0sfz1/Db3lorTKxFtElvWfBcEvaxTmTNGyQZyfaOI3bw9T3zBNbdU4DYER6sPDVDVdo8I/ztWrfQz332BxaVFUqeW+p61nicw9XWhThPVRTEciwypySaKJ1mcAIV5/kZ2aS1TWKSc1V6ePlUu8a5TVhSJlCM8t38Biu0S89SIqW8NdQ9hwPmLdPuJjQxDNFpPaZL+/nR7Ri6mRrmuxZuubXTH7TMzxAS2dc3gKWjCkRdFmiy7L4gMAm7Bkhz6B6UisjvQX5A74lgxrIQg9uOMDnnmhnquV4qzABBX1s1ytHONKzTWq6sRr41TVD3O5eoLK6mtU1U7z5/d7cbirSbCeRy3rDRshbAZk/fmI1TFiPQRRfxZtID6yX5M4MydslGmi4ZYPa3oLf3hvjBr/HFcbR6jwT1Hlm5EdkKsapuQ56IqGKaobF6j23+Rq/Sz//h/NqBOrsWZF0Wc1YBa5o8xGzOKTGTeBIB6tec3SNLAtqY1Tz3d9BATtWVSa86i1F6Q0OgXE+tGRYLjA1oTzbNdeQm0R6/+zJJjfR2O9gMYqijaX0Iosq/0y8ZZzUipRMLJelKnw9eaBmIFgMzCb6g4jYlMwm/TmED05zN4G9KLXRlot2hTRkyMs80+6dJGFrZWZWIO3DnO2+NSUIAbxEZh5EVQp9exwVctagvgsCbPo5RfrXrZJc0VbjmISsOWGMOU0s83TysmvdK6G8OHfAUGkNq6QoL/KdtVZtsS/x07te6jNZ4nTXiFOe1UqXldBvK5SpkI01vNobVdRmyvQmGvRWUWtQSmTxiAI/b0QYjf/biFIZ3hqPYa0evmoSxG5qDoM4mhXipIWN6U1y7N1RmFMTmtAIxweqT4sWUH5maMbP9xj84/I/EgIRw76+F/3fkC89j00wmqiP3eXEC6SoL9Egr4CleEqaqOS6BNSGS+jMlyWr6lNV9AIWSpXVIXGUoPGVIvaVP13mweExB5isxhxtxB0IvmXXCeNxZZMkc4Qr9evJPtEikPZWUuJ1HdWi8yoyhGTHpQroQ0A1n1EZgyGLfsjIBw+UM+/3PsBcZr30CRc+HgQVhSvP0+cTgnmEoTl3IrOS1OZqF/rhKnMXClHgc5WhdZWJaekzVwcHwfC+p31+qnpoyAoZyR8t2626FijSxYjQ7QCqsGYUYvJK1QnN3YmkX3NapbFIfFZQ1ZRTdsEwmafzGjNVj42+c4QviggvIs64QJxurMfA8J54g0fEKcT+lB+rRFpDcNVVIYKeWpHLU71myrRWiplXTreKOLEVTRWJVu73sEh9TEhrF813S0Ew0qQXp3ckylwcfRXHnoXX4vGWUFMosGiaJiY3iBljhnM7gBhPYiPhCCmIzESdmreRRV/np3aD4nXfEiC+pwEEYOx+nkMjFqsmoy3FYMjpiMxDcmpSLzbRT3adJkEsaqShSLh5hAjZt3N38Rg9lHnI+6kzaal9V8LMHfOPcUg3NbqVnJC8sOexM1e+VCPv/VxaJbMFjlyLNkBjNkhtrlb7gxhh/ZD4tQfkKA6twbEnSBsHB239xSr6xGrISgg7gxhMxCbW/M312ZT08eDsH5jd7seIc5MK/WIkJye/j4Iog/HXUCIV52VENaDuBsIm4EQzz8OhPUgPg6EzQL1JwFhfWHo40AwZ4q+fyI+NGHICrI1McKJZ6N3hrBTdYa4hA83BXE3EOL1FzbAEADuFsI/EqyF1seIzaanjwvhTjDuGoJoiiJjRCP6zABb/haEuBUIMRBCny0E5Xtrvv8xIdxeNW0eI/4pELwxCE085ArfhnD0YC1f+ML77NS8o7zzNWeIU71LXIIA8b4CRHWGePUHqDRnUWnPotaeQ607h1ovlqVrpTIq9ek7aY2BQNooxVkI4X0Vjj5FGuGHXdlXaK0rEstau0hpCCn2e2GpiVnxlee10mymW6/EOvQrMrhFoytxkFGcffOhFxlT8TypAWOSX+puQUgJELJcqkxPMl6sAyAdeuLjkVdNR1vWQDhQzX2fFxDeJk71IQnyhr9HnPrMGsWvKEHzgZRK+yEJYtToPiRef1bJN0ltTP6tHhFrQVxGbbkoJZasEohNrJxiG7tVsgpTmQJCgVGjWC3tyuNtCHXoYnIq0orHW6/Xo08U8sluA8pzAUY5lGj0KIm/2OhYD2AzbTY6Vo+MTSE4mzn+5Y4YhFru/fwZdqjfYWfCORJUyg1Wac+tUYLmLPHqD+WjkHxNe444nSKxYROpDEUbIayHEQMhzMfSgGwVo0KMBDEN3T2EmDaFsIlW3/QYhNhzASAG4W6mps0AyIC9bmqKQbDeaSQc3lfLF/7lDNsT3mFH/Fni4z8gQSxR1SIo35aIDzvjP1gTK+LUZ9mhPcvOWzDOSxgiJtxJa2FcXBMrxP5BMZeJ3fVaqSyK1Fbh7hPWys2hSNffR2g9jM3AxOLE+lixmTaDsXmcEJ+QcjswP7h6JJQWVPF//19/5V++8Cf+1z1nuOeed/n8PW/z+Xv+ukH/+oV3+dcvvMc9X3yPe+59n3vue5/P3y90hn99QOgD7nnwQ+558MzmeugDvrDlA7645UO+uFXoLF/ceo4vbjvPvULbL3Df9gvcv+PSBt234yL37rzEfUJxl7lfKP4KDyZclXpIVSG1RV3Jgx8lTRUPaavYoquWks+1yvOt+hqph4w1PGiq5SFTLVvMdVLiIOOd5WObtUFqu83PNrui7Y5Gtjsb2eFsYoczxE5nE9udPrY4/fy/6gB7H2nlc8vLN/n3b/op31XBgcOXOHi4msOHKzlw6DIHDl5Zo4OHKzh0uJJDRyo5LFXF4aNVHDxaxaFjMVVz+LhQ1eY6oejIiWqOnKzm6MkajpysVXSqjqMrOna6foOOnq5T9Ei91LFHfBx71Ce7WQqdeMyv6HE/x/+GTjzRyMknmqTE81tfP6no+FNNHH+6iRNPBzj5TPCudOpLodv6crOiZxWdFvpKC6e/Eub0V4KceDbEvsfC/OiXXXzupmhXcsdK0t97rT/Mcacrdhb5v7Ni9+fT0rIyHf3P9c+9/j/oE1V0X7VFJQAAAABJRU5ErkJggg==;" parent="1" vertex="1">
          <mxGeometry x="689" y="851.98" width="78" height="82.02" as="geometry" />
        </mxCell>
        <mxCell id="yvigqvCfVOGot-HgjFOz-30" value="" style="shape=image;verticalLabelPosition=bottom;labelBackgroundColor=default;verticalAlign=top;aspect=fixed;imageAspect=0;image=data:image/png,iVBORw0KGgoAAAANSUhEUgAAAY8AAACXCAYAAADtaNelAAAAAXNSR0IArs4c6QAAAARnQU1BAACxjwv8YQUAAAAJcEhZcwAAFiUAABYlAUlSJPAAAHseSURBVHhe7f13eFz3naeJvudUzoVCIedEEiTAKDFJlKhsRVtWtH3b092ednvW29sz07279+7uc7d7du+dnp17b888PT0d7Lbd4+xuSTYlK1ESRYmUKOYEEETOoVA5p3PO/aPqlAAQIAGKpACxXj/1yA9xCjjn1Knf5/fNgqIoCkWKFClSpMgKEBf+Q5EiRYoUKXItiuJRpEiRIkVWTFE8ihQpUqTIiimKR5EiRYoUWTFF8ShSpEiRIiumKB5FihQpUmTFFMWjSJEiRYqsmKJ4FClSpEiRFVMUjyJFihQpsmKK4lGkSJEiRVZMUTyKFClSpMiKEYq9rW48sqKQlWS84RT+WIZwPI3LaqDGZcKgE9FrNQvfUqRIkSJriqJ43EBSGYl4WmLUG2PUG2fIE2MmlCKazFBi0VPjMtFUbqHBbaHCacRi0CIKIAjCwl9VpEiRIquaonh8BhRFQVYgnZWJJjPMhFJM+OKcGPRzeijAmDdBMJ5GVkCvETAZNGxrLGFrYwmb6x3UlZopsegwGbQYtDkPYlFIihQpshYoisdnQFYUEimJMX+cj3q9nBwIcGrQTyyZJZWVURRYeHO1ooBJr6HSYWRzo5P9G8tYX22jscyKIIBYFI8iRYqsAYrisUJkWUFSFMZ9cQamo5wdDnJpMsKEP44vmiYUzyDLyhWiMRdRAL1WxGHWUWY30FJuZV2Vjc2NDloqbDgtukJcpCglRYoUWY0UxeMaqLcnI8mE4hmmA0mGZmP0TkXom4owMBNjOpgklZWQF7mTAiAILGqFkBeSEoueMruB9dU22qpstFZaqXebqXWZ0WtFdJpiUlyRIkVWF0XxWAT1jkiyTEaSCcczeCMpBj0xLoyGODHgYyKQxBdJL3wr5AVBpxWxG3VYjVpMepFYWiIUy5BIS6Sy8sK3AKDTCLhtetbX2NlS72B7s4sKhwG3zYhZr0GnFfNiVLRHihQp8vlSFI9FUO9IOJHBH0nxQc8sx/p8XJoIMxtKkZJy8YylsBo0VDiN7F3nZnODk0a3hd7pMEcve7k0EWbUG0daXD8KlorVoMVh0XHXejd71pWyuc5JZYkRrUYsxkWKFCnyuVMUjznIskI6KzMTStIzEeHieIgLo0Fmgkm80TTRZJZMVr7C/SQAWo1AVYmJ1gormxscbKx1UFNiwmXVY9JriCaz+KIpBmZiXJ6McHY4wMhsDG8kTXYRf5co5H6ny6KnzGGgsczCxho725pKqCs1U2Y3FgPsRYoU+dy47cVDzqfb+iMpPKEkAzNR+qajXJ6KMDIbZ8wXJyspyIvcJo0AToueCoeBlgorbVW5mEVTmYVqlwmDVkSbj1fIioKiKARiGWZCSfqnIvRN5/7WiDfGhC9BOiuxmEdLKwrYzFqqnSbaKq20VlpprbLR6LZQ6TRi0mvQiGqq78J3FylSpMiN57YTD/VyZSVnZYTjWfyxNL2TYS5NRDg9FGDQEyOcSC/qWhIF0GlE7CYtpTYDLRUWNtY6uKO5hIYyCy6rAVEUrpolJSsKkiQzE07SPx3jzFCAc8NBpoOJgoWTlRbP2BIFqC4x0Vxh4Y5mF5vqPrVwbCYdWlFAFK/214sUKVLks3NbiocCxFNZxv0JTg/5OdQ1y8B0lHFfHHmJrCgVq0HEbTOwZ52be9pzNRrVJSZEUfjUhSRcXTzm3nJFgXg6SyCS5kivj2N9Xk4N+vFGUmSkeW+bhyCASZeLrexpc7GrrZRdraXYTToMumL7kyJFitxcbgvxUC8wmZYIJzKcGw5yYTRI90SYcV8CbzRFInX1LKgSq57N9Q4665x01Nupcpoosxsw34DqcElWyGRlgrEMnnCCUW+c7vEQp4eCjPkTeELJxdOABTDk60UqHEZqXCa2NDjzQXozpbacFVSMixQpUuRG84UWD0VRkGSFYDzDZCDBwEyU/qkofVMRhmdjTIWSJFLSopaGWIhnGGmtsMyLZ9SWmtBrxUKc4UagfgoZSSKWkpj0xxmYidE3HaF/KsqAJ4onlCKWyi4qJDqNgFGvocFtprnCSltFLjbSUmHFbTNgM+kQin20ihQpcoP4womHejmJtEQkmcEbTjHoiXN+JMi50SDdYyHSWRlpkasWAINOxGrU4rblguDttXbuaCphfbUdU77W4lagutcm/QmGPDGOD/i4NB5m1B/HH0kTTmSXrGTXaAQq7UZaKy3c2eIqiF6JRY81HxcR8nGRopQUudksZ4kpbmrWHl9I8VCAy5Nhzo8EeefiDF3jYXzhxVNi56LXCNS7zWxtcPJgZyXrqm3UlppzO/b8MbfqIZ8fF1HIZBXGfHFODvk52uPl6GUv8bREZjEVzCMAWq1AU7mVLXUO7t1Yzo5mF3azthAXuTVXU+R2ZjlLzK36XhW5cax58VBPPpmWCMbSdI+HOTnoz6XAzsbwx9LEktklF1mDVsRq1LC5wcnWBicbauzUuy2UWvVYjKtjkVUUBUWBVFYinMjiCSWZ9Cc4PRzg/GiIvqkIoViGxSI2AmDUa7AatVTYDdS5zWxtdNJR56C9xo7FoC2kExcpcqPxeDyMj49z/vx5Zmdn5wmJXq+noqKCO++8k6qqKsxmc1FE1hBrWjwyWZl4WmJkNsagJ0rfVDQXI5iO4o+miSSzC98C+XiGzailttRMc3kunqHGB8rtBqzG1R0fyGQlUhmZodkYAzMx+qcj9E1F6Z+J4IumiSQWv26tKGAxaqkrNdNcYaGt0kpbpY2WynxcxKiDfCC+yLVRFAVZlpEkCUm6SmrcTUIURTQaDRqNZtU+q729vZw5c4Zf//rX9Pb2zhMPs9nMhg0b+OY3v0lHRwdOpxPxBsYRi9xc1pR4qC6pZFoiksztwMf9CU4P+rkwFuLyZIRIIrtoHADAmI9nlNkMNJRZ2NzgYHO9k011Dky6WxfPuJGkMhL+aJqeiTAnBvz0TkcZno0RjF29XkSvFXGYtHTUOdjR4mJ9lY0Gt4USqx6LQYNeK67aBWm1kEqlCAaDTE1NMT4+vvDHNxWdTofNZqO6upq6ujo0mtWZnn3+/Hk+/PBD/uEf/oFz584hyzn7WBAErFYr27dv50//9E/ZuXMnbre7KB5riDUlHrnxrgrDszFODQb4sGeW430+Yqks6SXcUiqCAC0VVjrrHDzQUcG2phKclk9rItb6MpmrYIe+6QgXRkO8e3GGCyMhfNHUki47Fa0o0FxhZUuDk4c3V7Ch2k6F04imWGx4VTweD2fOnOGf//mf+dGPfrQs3/6NwuVysXnzZp555hm+9a1vodfrFx6yKiiKxxeXVf9JKfl54COzMd7v8vCfXr/Mf/hNDz94f5Dj/T4iV4lnaDUClQ4D92xw828eW8efPLGeP3yohZ2tLlxWPfovkK9fyLvj6kvN3NNexncfbuX/8ZV2vnlPIztbXVj0GrRLiEFWzgXj3+/28Je/vcx/OHCJHxzK3d9wIkN6ifqX251cLGq+6+pWvRRFKVqGRT5XNH/2Z3/2Zwv/cTWQzuSCw33TEY71+fmwZ5YPe2Y5OeCnfyZX85DIyFfUPGhFAaNOQ1uVjTtbSrl3Yxn3tpezs9VFW2WuGtyk16DV5NwywhfA6iC/kxMEAZ1WxGLQ4LIZKLcbqXIaqXGZqXObsZt0CIJAVsq1mp9LVlKIpyR80TSzkRRTgVxQftyfIJLIDbgy6jRoxGIzRpVYLMb09DTd3d2cPXt24Y9vGjqdjtraWu677z7uvPNOmpqaVu2OfWZmhtHRUc6cOcPMzEzBOhMEAb1eT1VVFXv37qWmpqYYMF9jrCq3VaHSOp5mJphizBfn3GiAM0NBxv1xfJHcPPCFCHkfvt2so8ymp7rExPYmF1sanLRUWHBZ9bl+U7fZg6l+ssmMRDSZ5Ww+O6tnIsyoL44vkiJ+lcp6tXp9c72DznonHbUOqkuNhfkiBt1nq6xf68zOznLhwgUOHDjAz3/+8xvitkqlUiSTSbLZbMHFMxeNRkN1dTW7du3iW9/6Flu2bKGiomLVikfRbfXF5XMVj4V/Op6SmA2n+PDyLMd6fZwY8BGMZxZtUDgXnUagusTEzhYXe9e7ube9DKNeU+zxtABZVkhkJCZ8Cc4MBznUNcPlqQhj3viiQfW5WPQayh0GdrWWct+mCtoqrdSUmhDnZaUJt1WmVigUYmhoiGPHjnHo0KGFP14RqgtscnKSwcFBQqEQiURi4WFYLBYee+wxHnnkER599FEqKysLVudqpCgeX1w+V/GQFQVZVpgMJBmYiXBqIMCFsSDTwWQu5TSfLbQYAlBVYqKxzMydLS421TqodRkptRlwmHVoRLHYXXYBSr79vOoS9EXT9E1F6J4Ic2Y4wMB0lEhycbFW567bTTpcVj1tVTbaa+zsaCqhscyC06xDoxFvK/HIZDIkk0nC4TChUGjhj1dENBplamqKN998k1/96ldEo1HS6fmTKt1uN83NzfzLf/kveeihh6ioqMBoNMIqtv6K4vHF5ZaLh6LkxrsG4xmmAwn6p6P0Tkfpn44w7IkxGUyQzizePkSrEbAatFSVGHPzMypz9RnN5RYqnSbMBk0hQ2i1fplWCznhhkA0lZsvkp9j0jcZYcQbY9yfIJ29MqZEXkhcVrXvV66HVluVjcYyC7UuE7o5c0y+yNyIr44sy6TTaQYGBnj77bd55513eO+998hkMoWFVqPRoNPpuOeee3jkkUd44IEHaG9vR6vV3pDFdrHruFHfnxshHjfz/FbCwvP4PM5hNXHLxEOSZDKSQiCWZjaSZmgmwqWJMGeGgozk/e9LLVRajYjTrKPMoafebWFjjYPtTU7qSy1UOIwIxSDuZ0JRFJIZGW8kRfdYiIvjIS6OhZgKJPFeJS4i5F2GFU4j66ttdNY56ax3UOkw4rYbsBq16PLWyO3+RVsMRVFIpVKMjY1x9OhR/vEf/5Hu7m48Hs+845xOJ3V1dbz44ot87Wtfw+12Y7PZ5h1zLRRFQZIk0uk08XiceDxOIpEgmUySTqfnZXBptVr0ej1GoxGz2YzZbMZkMmEwGFbsIluJeJSWlqIoCul0mkgkQiwWIx6Pk0qlyGQyhffpdDpMJhMWiwWr1YrVakWj0RSEZyXnNxfVdZhOp0kmk/PuUyaTIZPJFAREFEX0ej0GgwGTyYTZbMZisaDX69FqtfAZzmOtcNPEY+6vVRSIJjP4Iik+7vNzpMdL90SIyUBiUReJiiCAWa/BadGzd11uZsX2RhcVTiOGYhHbDUf9yCKJDLPRFB/1zHLkspfLkxGmg8klCw5VrEYNZXYjd68vY1drCZ31Ttw2Azrt/Lbwxc8thyRJ+P1+Dhw4wFtvvcW7776L3++fd4xGo6Gjo4OnnnqKhx56iLvuumvZC7j6HVQUhWw2SywWY2pqiv7+fgYGBhgcHGRychKv10ssFkOSJARBwOl0UlpaSn19Pc3Nzaxbt47GxkZqamrQ6XRXVLRf7VyWIx5/8id/ws6dOykpKSEajeLxeDh//jyXLl3i8uXLzM7O4vf7URQFnU5HSUkJ9fX1rF+/ni1btrBx40bsdjsmk2nevbnaebGIJZHNZslkMszMzDA2NkZvby+Dg4MMDQ3h8/kIBoNks1kEQcBgMOB2u6msrKS5uZnW1lbWr19PZWUldrt9nlV4rfNYq9xU8UhlJALRDF0TIS6Mhjg7HGAqmMQXSRNPS0vWD2g1Am6bnrZKG1sanGxtdFJVYqLMVtzN3kzUJ0GSZbKyQiiWxhtJ0T8To2ssxMnBABP+ON7IfF+8iijmpiw6TDrKHAaayix01jm4o9lFtcuUmy9S/NwKjI2N0dXVxY9+9COOHDmCx+Mp7LABjEYjdXV1PPDAA/z+7/8+jY2NuN1uWOaClMlkSKVSXLhwgXPnznH69GkGBweZnp4mFosVrI5sNos0p72KVqtFq9ViMBgwGo1YrVbq6upoaWnhrrvuYsuWLfNSa692LssRj3/zb/4NtbW1eDwejhw5wieffMLMzEwhaSCTyZDN5lruCHnLSN3xV1ZW0tDQwMMPP8yuXbtoaGjAYrEUjr0a6tIXjUbx+XycOHGC48eP09vby8TEBOFweJ7lo1pn5C2PuRaa1WrF5XLR2trK1q1b2bFjB52dnRiNxlVbwPlZuaHiIcu5Wd/B/Jzu3qkIfdO5Wd1j3jgTgQSpjLSotSEATouOcruRtiprblZ3lY0Gt5lalxmDLtcyo8itQ8lX9AfiaaYDSQZnovTPROmdjDDkjTEdSJLKykiL+Bt1WgG7UUd1iZGm8k8/z5ZyC+Vz5q5f/ev9xSSdTpNKpXjzzTd54403OHLkCENDQ4UFknzTwJqaGh5//HEeeOAB7r33Xmw2W8ElcjUymQzxeJxLly5x+vRpzpw5Q3d3N6OjowQCAeLx+BW77qshiiI2mw2Xy8W6devo6Ohg9+7dbNy4kZaWFnQ63aKxCq4hHhaLhfXr1/Pcc88hyzKnTp2ip6eHoaEhUqnUPEFbCqPRiM1mY+vWrezdu5dHH32U1tZWSkpKljwn1T0Vj8cZGxvj4sWLfPLJJ3R3d9PX14fX6yUajc77PK6F6sZyuVzU1tbS2dnJ1q1b2bVrF21tbVit1mV9dmuJz1wkqOQzeJLpXIHZyGyccyNBPu718V6XhyM9XvqmIsxG0mSkXAsNFTWDp9Sqp95tZnODk93rSnmwo4K968vYVGun3GHMF6fdjsvM54sgCGhEAYtBi9tuoLXCSm2pmaoSI1aTDoNORKfJfS5ZSZ732cpybqbKbDhF/0yEyUCCqWCSWDJLMvOp4KgbgmvtEr8IqIvW7OwsPT09HDhwgNdee42ZmZl5mVWCIFBfX8+OHTt45plnCi6day0+siwX3C5nzpwpZG4dP36cy5cvEw6HC5aNunsvKSnB7XbjdrtxuVw4nU4MBgOiKBbOV8nHZoLBICMjIwwNDeH3+5EkiZKSEnQ63ZJZX0sVCZJ3yQmCQDKZ5MKFC3zwwQd4PB5kWS7ENcxm8zxxWih62WyWeDzO1NQUPp+vEAdZKoVZyXcECAQC9Pf388477/Daa6/x6quvcunSJbxeL8lkElmWEQShIE4ul4uysjJKS0txOByFOIssy4Xfmc1miUQiTExMMDo6yuDgIEre1Wa329Hr9YjiF8fdvmLLo3Bw/m1ZSSGZlhj3J7gwGuRQt4eeyQij3vjct12BmI9nuKx6tjeXsH9jORtr7DSUWRGLAfBVjaIoRJJZpgIJPu71cWLQx5mhAKF4dskMLRWTTqS+zMKuFhc7W13c2VqKWS9i0GmZuz/4onzB5qIuMB999BG/+MUv+Oijj7hw4cK8Y4R85fXTTz/NE088wb59+6itrV10IZyLko9rBAIBjhw5wt/+7d/S1dXF5OTkvOMEQUCj0eB0OnG73WzcuJHGxkacTieCIJBOpwsxkbGxMQKBAKlU6opFWxRFtm/fzpNPPsmDDz7Izp07EUXxit3+UpaH+jvEfGdg8jEgk8mE1WqlpKQEm82GyWQiHo8TCAQIhUIFAVzMKnE4HGzYsIGnn36ab3/724UA9lxUgT1y5AjvvfceL730Ev39/Vf8Po1Gg9FopLKyksbGRpqbmwsxn2Qyic/no6+vj56eHoLBILFYbN61kb++yspK9u7dy3e+8x06Oztxu93X/CzXCtctHqlMllhK4uxQgDPDQbrGwoz6YgRiGRJXiWdoRLAYtWypd7Klwcm2Rie1pWZcVj1mvfa2r1peC+SsTYVURiGazLkox3xxTg8HOT3oZ9yfIBBdvBuAam1ajTrK7QZqXCbubHGxpdFJU5klX6PzxfhyLSQUCtHf38/rr7/OP/7jP+LxeIhEIvOOqaiooLm5md/93d/lscceo7S0dMld/Vyy2Sw+n48DBw7w9ttvc+TIEXw+37wYipC3aLZt28bdd9/Nrl27KCkpKeyiyX+26mLd09PDJ598wltvvcXMzAzx+PwNocPhoLKykt/5nd/hhRdeoKKi4oossKuJB3PErK6ujs7OTvbu3cu2bdtwOByYzWZEUSSbzZJOp+nr6+P8+fMcPHiQ/v5+IpHIPFHT6XQ4nU6eeuop/uiP/oja2lpKS0vn/T2/38/k5CTf+973+O1vf1uI/6gI+VjM+vXrefzxx9myZQutra2YzeZCtpm6CQgGg8zOznL48GE+/vhjzp8/j8/nm/f3dDod9fX17N27lyeeeIKnn356XmbYWmbZbit1wQil4lzyjnN0bIDXe3r4oG+Ck8M+BqbjeEMZkovENAQBHGYtDW4zu1pdPLy5knvay7izxcX66pxrypwf8fpFUeUvMoKQy57SakQsBi1Oi44Kh4lKp5HGMgtVTiMOsw5JzjW1nFvoqeQbMcbTEsF4iulwgsn4LAORSUZjUwRSYUQUNAgYtOp8kbX9PMiyTDweZ2BggFdeeYV3332Xnp6eeRXkGo0Gk8nEzp07efbZZ9mzZw9NTU0Fl8217oHX6+Xy5cu88sorHD16lNnZ2SuC7w0NDdx999288MIL7N27l02bNlFRUUFJSQl2ux273Y7D4aC0tJTy8nKqqqooKyvD4XCQzWYLVoy6YGcyGcLhcMGd5na7C4u1er5Xc1sBmEwm6uvruffee/na177G3r176ejooK6ujsrKSsrKygrnUllZSUVFBXq9nmw2y/T09LxrVBSFTCZDeXk5TU1NOJ1OSkpKIP8ZSJLEuXPn+O1vf8v7779PT08PqVSq8H5RFLFardx777088cQTPPLII2zZsoX6+npcLhcOh6Nwj1R3X1VVFeXl5ZSWlhbSeqPRaOE6ZVkmlUoRCASw2Wy0tLQUPuu1zrLFQ1JkvPEQ3b5R3hw5yZtDZ3lr8AK9gUlmkgGScgoFGUERAQEBEaNOxGHR0eg209ngZO+6Uu7fVMH9mypoq7ZR6TRh0GkQi4KxJhGE3EurETHl25e0VFioKTVT6TRhNWgx6bVoRFAQcs0YFVAECVmTJq0JE9V4GM8O0pvooz82zGRihkgmjEGrpdxcknuS1vAuTV3Qent7OXLkCC+99BIXLly4ovWIw+Ggra2Nhx9+mOeff57q6uplNQpUF6mLFy/ywQcf8N57713hhhEEAbfbXSgyfPjhh6mqqir44BeiWgM2m62QshuNRunv7y+ks5L/25IkkUqliEQitLW1UV1dPS9N9VriUV5ezr59+/jSl77Eo48+WqiaV+Mh6ktd2J1OJ06nk0QiQVdXVyE+oSLLMmVlZdTU1FBZWUlVVRXkhS4ajfL+++/z05/+lKGhIaLR6JwzAZvNRl1dHS+88AJPPPEELS0t2O32JTe0Go0GvV5PWVkZZWVlBattdHR0XrBdjYWoGVkOh6OQNbeWWbZ4pLIZPp7q5rXhY/zz8Pucj/QQ13pJGqdJm6fIGgLImiSiokdUNGgFHTUuE1sbnTyzq44v31HDAx2VNJVbMRVHn34hEQQBjShSYtHTWGbhzhYX66qsuGwGspJMIJ4iq2RJizGyRi9J+yCx0gukbCMkTJP4lGkGYiOcmL2Ew2ils6QJnUaDTnP1QPFqJpvNEgqFePnll3nllVe4dOnSFa4qrVZLa2srzzzzDPfffz8dHR0FF8m1UPIB7TfffJNXXnmFwcHBeW4Y8plbjY2NfO1rX2Pfvn2Ul5dfM/iuLpgGg4HS0lLC4TCzs7OLtmJJpVKk02na29sLKbzq77+aeGg0GhobG3nxxRfZvXs35eXlBffZUoiiiNlsxu/3c+7cOWKx2DzrAaC0tJTKykqampqoq6sDIB6PMzk5yaFDh3j11VeJxWJXCFlDQwPbt28vuKt0ulwX6quhCq3BYKCiooJEIsG5c+dIJpPzBFyWZTQaDalUqhBDUd+/Vln2Ci4pMiOhKfoCo8Szyfk/FCUko5+ks49Q5RFoPE3F+lG+vN/Mdx5u4u4NpdS6zMWMqdsINbbRVGHh8e1V/IsHq/jdR53UbhwlWX2CSMUxEs5eJH0YRfOp60FCIian8EZ9TPomiKeunnix2hkcHOTdd9/l8OHDnDt37ordrl6vp62tjbvuuouHH36Y9vb2eT+/FqpLZHx8nOHh4SuEg3yFek1NDfX19Uu2ALkaoijS2trKl770pcJiPBd1V+/z+QpZWMvBaDTicDhwuVxXxEqWQhRFDAYDdrsdl8uF2WxeeEjBGpp7HqFQiIsXLzIyMkI6nb4i9gLQ0tLC/v37C5laK0Gv11NeXk5DQwPNzc0Fd9lcPB4PJ0+eZHJyksyc9jNrlWU/RSLg1mSo0qQwMOeiBUBQUDRZZF2crNFPxDDCpP4CH0U+4E3Pe5wJdjERnyErS8gri88XWaPIikxKTjOV9HAycJ4PA0f4MHKIcc1FEuYxMkY/si4OogTCp8+EKCnoU1nMKQlLWkK7WNR9DZBKpfD5fBw7doyf/vSnnD9/nnA4fEUtR3l5OQ899BCPPfYYzc3NOByOJd0ki6HGHQKBAMFgcF4MgDkBYNVdYjQal/27mWOBuFwu2tracLlcaLXaeb9D9etPTU0xOTlJKpVCzqewLoWwoA2KXq9f1nmp79PpdBgMhiUtKNUiI39+oVCInp4eJiYmrjgv1XooKyujubkZm822os+AvKgZjUacTieVlZVYrdaFh5BMJvF6vYXsrOWK7Gpl2eKhFRTaDRJ3m9LcoU/RrElhFSS0iwhJjAiT2VEOTn3MD3ve5Ke973Jg+CM+mDpPb3CcYCpKSsqgzMneKrL2kRWFrJxlNhGiNzjGB5PnOTD0ET++fJBfDLzH6xNHGU2PkNHEQMg/N/mHQCMp2JMSjYEMu8aSbAhIuLMajPLyv8CrATUO4PF4+Pjjj3nvvfc4dOgQk5OTVyxaNTU17Ny5kwceeIDdu3fjcDiu6bZZiFrnkEgkCov2QtQKaLW1yPVgMBhwOp2FuouFC2s2m2V2dvaKmpWroabprjT7SF3Yl5NIwJwMssnJSYLB4MIfI+T7ZVksFkpKSq5I710OqgCp1pSaITcXNU04kUjcXuKhE2CDPsFj5hD/yuLjOWOIddoUbiGLHhmxIAWffkHi2RSDkSl+NXCY/+vMr/hfj/0DP+k9yDnvIDOJAEkpjSTnSv4XfrHWMkq+1XwmK5PKSCQzEumsRFaSkeVPC6/WOup15ERDIpFN4k2E+WTmEj/te5f//cQ/8n+d+SW/Hj5Kb2icrCLN3ywoCqKsoMsqlCQkNs6keKwnyv/wUYD7B+LY0jK6K9fCVYsqHPF4nAsXLvD973+fw4cPE4vF5lkcoiii0+nYtWsXL774Ilu2bKG0tHTJXfTVUNNGJUlacrev7vBXskAvRF0cl1roFUUhFostWu+wGlAX7sUWbFWIVItmsetbLmK+0nwpkVY/r2w2u+hntZZY8V2yC1m26mP8jtnPXzom+J9tHp43BmnVpjCiLNluIpKJ0xea4Ke97/I/fvR3/LsTP+G/9bzN5dAYkcza9msvJJWVmY2kOHzJw8+OjvC9dwf49YkJzg4HmQ0n51Vir3UUIJiM0uUf5se97/A/fvx3/PvTP+Onve/SG5ogujA+NgdrSqY2lOUrlyL8yRE/f/JhgBcuRGj1p7GnrvySrwUikQhHjx7l4MGDnDx5kunp6YWH4Ha72blzJ/fee28hgH29qAvf1XbhkiSRmdMR9nqR8+mui4mDIAiFivDPsvjeLFQrZ6lzU4X/sy7qc8V8MVSRup6Nwmpj8Tu5BAKgFcAmylRrsmzSpnjQEOUb1jj/fWU5v1+3jn0V66i3lrOwa5GkyCSkNNOJAJeCoxyaOMPP+t7jL8++xPcvvcE7Y6cZDE2RlrJIizycqxlZUZBkmdlQkrNDAX59fIK/OzjAz46O8usTE7x+Zop/OjbGDw4N8tMjI/z29CS9UxFC8fSau1byX7RoOsFIZJo3R0/wg543+c/nX+Znfe9xePI83YFRphNBEtkUkvLp9QmAQdRRa3HzQPVWviE28d8PanlmIMPdwwk2zKapiEmYsgpaZe3Nlg8Gg/T19fHGG29w6NAhvF7vFXUEFouFLVu28M1vfpO9e/fidruvq9W5iuoqMRgMS1oXyWSSaDT6mYK0qVSKcDhcaFS48PdotVrKy8uprKxcdvziViHks8ZcLlehaeJcVKskFosRDAaX7XabS87bkIv9hEKhKzLAmCMcxnyr+7UuIFc+actEI+RcWXXaLLuMEs+UlfPN+g6+3rKPJxp2c3dlJ632Gpx6C1phvgmXVSQm4z5Oei7zTwMf8OPLB/lJ7zu5uMjkeXqDY3gTITLSZ9sF3EwUBWQ5V2E9GUhwdjjIoS4Pvzk5wUufjPHy8XGO9ni5OBamdyrK6aEgBy/M8OsTE/zTsTF+e2aKD3u8XJoI4wklyWRzLq3Viuqa8iZCXAqMcHjyHK8MHeUnve/w0753eWXoKCc9vcwmQySl+V8+AQGXwUabo4Z9VR18uXEv32i7n69Z2nl6RscOH1RFJUxSznJdPcvO8pDyczK6urp45513OHz4MJcuXbpiAbHZbGzatIl9+/YVGvjNrYm4HvR6faHAb7Hme4qiEIlECi3FV9oUUXVN+nw+Ll++jN/vn+eCY87irNZVqOKxWgREyCcNtLa2UlFRsfDHKPnWLjMzM/T29hIKhQrXvVxkWSaRSBAIBJiamroiHZt8QaRalGmxWJZ0ba0Vrv+pzSMAGlHErjfRUdrA/23dg/zp1uf5P3b+Ls+33MtmVzNlJicGjQ5RmG+PyCik5Qw9wTF+NXiY/3j2V/w/T/yIn/cf4oTnMrOJILFMKp+llfPnruQDvRnkdhgK6axEJJGhfzrKoS4Pf/N2P//lrX5+cmSE08PB3AjdBWIgKzARSHK018ffvzPAX73Zx48/HOHjXi+z4SSRZDYnInMa0n2eqOeQkbPEMkm8iSCfeC7xw563+Iszv+D/OPVTfjN0lJ7gKEkpzdxpHwKgEURMWj0lBivb3et4ofU+/tcd3+B/2/ENnm25lw5XEzpBg2aVLDIrRb0/yWQSv9/Pm2++yX/7b/+NgYGBK3avOp2O2tpavvKVrxRGyN6IKmN1R11ZWUllZeWivzMYDDI+Ps7g4CAzMzMrcs2oC6uacjw+Pr7wEPR6PTabrVBhvlDAPk9Ut15JSQnbt2+nubl5ybjG4OAgH374YSGVdjn3SH0G0uk0Ho+HkZERBgcHFw3Mu91utm7dSlVVFQaDYc2Lx7KLBJEzKOEulOgApDwgz9lVaYwItjYEaxOCqQ6TwYbLYKPdVc/O8vWsc9bhNFgJp2NkZIm0vHir47ScJZCKcjk0zllfP+e8gwTSUSxaA1pBg0lrgPwD8XmRyEgEommO9fv49YkJXj01yXtdHgY9McKJxed/L4aiQCyZZcwbp2s8xIkBH/58PyiLUYteK37ulfeyopCQUlz0D/P22Em+1/06vx48ysczl5iM+0hm5wvGXGxaE82Oah6s3cEftD/Gl5v2cm/NFuqs5Zi1BrSCSKa3j/TZsyjRKEpyfmxE196OvqMD0eFANF+5IK4WZFmmq6uL1157jXfffZeLFy+STCbnLTwajYb169dz991385WvfIWNGzdeMbjoelEXR9WiUIc7zUWW5UK8wmAw0NzcvKSLayGxWIzp6WneeecdDhw4gNfrvSIduLKykvb2dr70pS+xadOmQlderlIkKOQ71tbU1LB3716qq6uXlUac27zJDA8Pc/z4cTweD+FweN4xFRUVNDU1sWHDBhobGwv/bjAYGB8fp7e3l0x+1slckskkkUiE2tpaysrKMJvNy8q8kiSJ6elp3n33Xd5///3CMzAXrVbL9u3befrpp2lvb6esrGzez9ciN1w8RHMdGq0JnajFpjdRarBTZXHRYKug3VVPlaUUs9aAJEsksql5i4+CQlaRiGYSBFNRpuJ+xqIeLofGmYj5iKTjaEUNOlGL9ioBwhuJkp9pEYqnuTQe5qNeH2+fm+HDnlnODgcZmY3ji6YX7SYr5AvlLAYNopjrQDwXSc6Nfw0nsngjKWZCKUa8ccZ8cQKxdKFB4K1qFqkouU8jkkkwHfdzbOYSvx05zptjJ3h/4hznfINMxnxEMnEy8pUBQbPWgNvoYGfZBh6q28HjDbu4v3Yr291t1NnKKDHY0Gu0aPIWaLavl/SZtSce6gKopn8ePnyYX/ziF/T39xMMBucJh1arxWq1cvfdd3PXXXdRV1eHKIpEo1HC4fB1v5LJZEF8NBoN2nyL9aGhoUKsZe55qJXuiUQCRVHQaDSFmpKFIqJaG4FAgPPnz/PrX/+aQ4cOFXpBzRUAnU7Hnj17eOKJJ9ixYwcVFRXzgverRTyEfLfieDyOLMuFpoZzkSSJZDJJLBYjHA4XuvKq1tzCc1OPv3TpEkeOHOG1117jzJkz+Hy+effebDZTU1PDPffcw5e//OUbZnV+3txw8RDMdQiaTwOAOo0Wh8FCtbmUDSV11FjdVJpKsOstmPIWhawopKT5u5msIhHNJpmK+ekNjTMR8zId9xNKx4hlUsiKjCDkArACn30HNxdFUfKjc3OLet9UhDPDAT68NMuHPV6O9voYmsl1EF6se7BJr6HEoqe5wsqGajubau2U2QzotDkzNbNw9oUC6ayCN5JmIhBnZDaGJ5QkGM8QTWbJZmUEcrM1xBvccVZBASVn9YVSUYYjM5zzDnJ0+iJvjZ3k7bGTnPH2MxyZJr4gAA6gFTQ4DBbqrGVsLm1ib+UmHqm7gwfrtrO7ciPN9mrsejMGTa42YO65Z3rXrnhkMhnGx8c5fPhwIc6xsMsr+SCpwWCgtrYWk8nE2NgYly9fpru7+zO9pqenMZlMhWC5mukUjUZJJBL4/f55rhdJkohEIgSDQWbyU/ri8Th+v59QKEQoFMLv9+Pz+QojWE+cOMG7777La6+9Rm9v7xUtPUpKSmhsbOSxxx7j8ccfp6qqqmBRqawm8VBTcUtLS/F6vQWRVTOj1M9VrVeJxWKEQiGi0WihJXwgEMDr9TIzM0N/fz8XLlzg3Xff5d133+XEiRNMT0/PSyZQ3ZX33HMP+/fvZ/fu3ZhMpisEey2y7JbsSjaOPPZL5Om3UEIXITPnA9M5EKseQ6i4H7F0D4LOPvet81BQkGQJbzJMb3CMd8bOcHL2Mud9wySySVJyJhffWPhGQIuIVW9iY0kj+6o62VPZzhZ3C1atEYNWj0bQFGIq13oIF6LeBlmBdEYikZEZno1yaTzMkctezg0HCcbTpLKLnVnOytCKAnqtSF2phbYqK/e2l7Gx1kGpXc/YbJzzo0GO9fnoGg8TiqdzQ5GWmAsukGtf31ZpY2Otg30bythQY6PcYcCk16LVCLng8gqvU0XJWxlZOUtKzjKbCNIfmuC9iXOcmOnhnG+AZDbFgsqMAlpBg0Gjw6m3sL6kjr2VHeyuaOeOsjaMWgMGTa4j7qIoCigK8ddeI/KDHyJPTSEH5vuIzV99GssLL6Cpr0dT6pr3s88TdVfu8/k4evQo/+W//BcuXrx4hatoIXPTRK/3M1MRBIHOzk7++I//mL1799LY2IgoiiSTSUZHRzl06BD/8A//wMDAAIFA4ApBI9+ypKysjPb2dhoaGigtLUUURWRZZmxsjJGREXp7e/F4PFe4YFRB3Lx5Mw8//DAPPvgge/fuRVzBPA8hPyv9zjvv5E//9E+54447cDgcV7x/IWpm1KFDh/irv/orLly4wNjY2LxjOjs7uf/++/nKV77C/v375/0sm82STCY5cOAAr7/+OkePHmViYuIKV5yQt6rUHlnqPA+9Xl8Q4oGBAXp6evB4PFdYnKpYVVRUsGfPHv7gD/6Azs5OKioqPvPnv1q4aZbH1RARMWr1lBmddLqb2OpuZau7BZPWQCKbJC1lF42LyChkZAlvMkS3f4SzvgFOzfYRzyTRiFosOiM6Mdc6YaUfkAJkszJTwSTnRgL8+sQEvz09ycEL0wzOxAgnsle4nVS0GoESi54tDU6e2FHNl++o4bFtVWyotuO2GzDrNZRY9TSXW+moc9BZ58Bh1iEIEE5kkeXFxVJWIJLIMuaLc34syKWJMN5IClmGEoseMT/p73rIKhJJKU2Xf5iDY6f4ad+7/KL/EMdnehiNzpDMplnsrAQEdKKW9pIG7q3ezO+sf5BnW+7lnqpOmu1VWHRGNGKuI+q1WIuWh6IoRKNR3nnnHd544w2OHz+O1+tddIGeS86aze2ab8SrrKyMPXv2UF9fXxjkJAhCoRNuQ0MDoigyPj6OnI93zEVtazI+Ps6lS5c4deoUJ06c4OTJk3R1dTEyMrJouxNRFCkrK+Puu+/mqaee4tlnn6WlpWXJGM5qsTxU1EW9Mj/7nDmzUBZmkcn5VvozMzP09fVx9uzZwj06e/YsAwMD+Hw+EokE8oLUZbvdTlNTE1/72td4/vnn2bx5My6Xa55Lb61zy8VDdTFpBBG9qMWqM1NitFFtcdNoq2C9s45qSylWnZFkNkNWkcgqnz74Sl5AYtkkwXSM6bifkaiH/tAEo9FZopk4Jq0BMe8yU//mQtSvejojEUtluTQR4aPLXt69OMP73fl4hjeOL5pzTS2MZ2hEAbNew7oqGztbS3l4cwX7N5ZzZ3MJzRU2yh25Od06jYgo5mZfmPQa7GYdbpuBGpeZBreFhjIzNpOOrKwg5avS56LGRSKJLL5omgl/khFvjCFPnHAyg6wo6LXisiwRSZZJZlOMRGc4NdvHb0c+4c3RExyaPMsF/xDj0VkimQQZOTtPNgTApDVQaXKxo7yNJxp386W6O3mwdhtb3a002CpwGqy5jLoVfDnWonhIkkQ4HObtt9/mo48+Ymxs7IrA662gsrJyUfHQarWFlNDK/BQ8q9WKnC9eU11Zypx26vF4vFAdHovFSCQS85oHCvlUV1WwHn30UR5//HH27NlDQ0NDoTBwsc99NYqH+redTifV1dVUV1dTWlqKXq8vCIEqtnLe0lFjIeorHo8XXF6KoiDkLZWysjI2bNjAQw89xFe/+lXuu+8+2tvbcTgci7Z1WcvccrfV1cjmRWEgNEGXf4TTs330hSYYjszgS4aJZOJX+NzJi4NNZ6LGWkanq5EdZetodVTTZK+iwuTEpjOjEXNzQ3IPX25B9sfSTAUSjOYznrrHw4zMxvBH0yxmZAiAUa/BZtRS5TRSV2pmU52D9ho7bVVWSix69PmBVldDybuM4qmcIFwaD3NxPMTAdJRRb5zpUJJ4aulpjCadiN2sY2OtnfYaO+ur7TS4zVQ5jViMWoy6+SmAKSlDQkoxEfUxGpmhOzDCef8QZ739eOJBQpkrO7EC6EQtJq2eKlMu4WGds5Yt7ha2l62jwuSkxGC9vnjTGnZbZbNZvF4vP/jBDzh06BBTU1NXpOXebARBYMOGDfze7/0e27dvp7a2dlF3j+qrV3fKfX19TExM4Pf7CYfDRCIRMpnMFam7amzAYrFgs9lwOBzU1NTQ0NDAjh076OzspKGhYVkNBHt6ejh58iT//M//TE9Pz7wdut1uZ/PmzXzrW9+io6MDm8226HXMRV3Mjx07xj/+4z9y+fJlpqam5h2zfv169uzZw8MPP8zu3bvn/WwuqhXn8XgYGBjg7NmznDt3jvHx8YIoRaPRQh+quWKqioXa4dfhcFBWVkZjYyPr169n+/btdHR0YLFYFu1z9UVgVYnHXFJSmkg6yenZXo5Md3HC00NPcIxIOk5Kylkki6FaNHeUr2d3RTv3Vm+hzVFDicGKTtSBLBBLZpkMJDkzEuDkYIBP+nxEEpkl4xmi8KmlUVViYkO1jd1tpexqLcVl1WM1XcW/vwxy1oVE72SEcyNBPuyZZcgTYzacIiPJZBZTsjxmvYa6UhPbmlzs21BGU7mZaqcJnU5AEBRSchpPIshYxMM7E2c4OnWRgdAkvlRkyTRbraBBr9HiNjqotZbxQM02dle0s7m0GYfBik78jPnpa1g8JEkiGo1y9OhRLl++TDAYvMIldCuozM/GbmhowOVyLbmAq1ZGIpFgcnKSgYEBLl26RG9vL4ODg4TD4Xm9twRBwGw2Y7fbqa+vp6WlhfXr17Nu3TpaW1vR6/XodMt/3qenpxkeHubUqVNMT0/PEymTyURtbS133XUX1dXVVwTbF0O1Cvr7+zly5AhTU1NX1FRUVVXR2tpKZ2cnra2t8352NdRU3Z6eHi5fvkxvby/Dw8OMj48XGk8yp1LcbrdTWlpKW1sb69evZ+PGjdTX1xfmpVzrWtY6q1Y8ZEVBVmQS2RTRTIKRiCdf2XyeC75BBsJTpOVcZ96FCAiYtHpsOjMV5hI6XI3cU7WZCk0NxqyLY70BLoyGmfDHCcYyxNNSrmHhwl9ELhBeZjfQUGZhT6ubzno7LRVW7GYdFoMWjXj9cQeV3Bc81xMrlsoSjKXpmQxzajDAueEgvVMRUou4zsifn04jYtZrsJm0tNfa2Vxnp6PJgtYc5bT/Mqe9vZya7SWQihFJx0nLmSUsONCLOloc1dxRto7dle3scK/DbbRjN1gwavS5NNvP+qVYw+Khuk3mui0+D7RabaHDrSY/dW8x1K+3ks8kSqfTpFKpwku1PNTrUHfUOp0OvV6PwWAotD65njYqmUyGTL6T7MKYgvq35nbqvdbvVq8nnU4XRG/hZ6CmLauv5aJaIuq9Ue9VOp0u3Cfy5y3mm1uq90XNetPpdIUiyWtdy1pn1YqHikJu5xTPpggkIwxHZ+gPTnApMMJ53xA9gVFCmRjJBam+5EVEr9HiMtips5ZhlV0Y0i48U1YCXhPphB45q+6iP/2gNSIYtCINbgvra+ysq7LSUmGjrtRMud2AzZQTjZvxcOT6ZCkEYmlmgkmGPTH6Z6J0T4QZ8sSYCiRIZa4MZSvIiALYSlK4ShM4KyNgCjCZ8uBJ+PEkAkiKcoW1IeSttWqLmyZ7JVtLW9lYUk+bs5Zaq5tyUwlaQUTzWa2Nuaxh8fiioH7t5Xwn3rnLwNysqZvxjK8l1HujbhpUVKG7ne/TqhePuSj5xS+QijIR83J2tp+z3n76QhOMRGaYSgSuaMY3FyGrR8yY0afK0SZK0aVcaNI2NFkrIlr0ohaX1UClw0BdqZn2Wged9Q4a3GYqHEZEIVdncSuJJrP4oim6x8NcGg/TOxVhzBdnOpgkns6SkrLIYhpZE0fSRcmYvGSNXjJGL5I+iiJkF20WpRM1mDQGKk0l1NnK2OhqpMPVxHZ3K7WWMuwGM6Jwdf/zdVMUjyJF1jxrSjwWkpGyRDMJjnt6+Hi6m8OT5xiNzhJMR0lL2cXjIurVSkb0SRe6eBWGaB1WwY7b6GBXczm7W9zsXu+mzJbLmPq8UT+hUDzNmC/OJ/1ePrjkYcAbYioaJKULkDZPkbSOIukiKLrF26DnrIxcfUap0U6dpYy7qzq5r2Yrrc4aqsyua2Zs3RCK4lGkyJrnlqfq3khEIeeWqrKU0uFqZF91J62OanSilpScIZiKXuHeKSBKyLoEGUOAtHWchjqZO9psPLqljl3NlZTajBi0S/uSPw90WgGnRUd5iUhDrYBH28uo5jxh22WS5nEkXQw0i1saABatgRqrm0fq7uTF1vv43Q2PcG/1Fprsldj1ZjR5S+NWXfNaTNUtUqRIjjUtHoIgIAoieo0Os9aIy2Cj0lzCOmct6xy1NFjd6DIhMpkISQVkhNzCWnjJIGZQtCkkTYKQ7GMmPc1MyktGzqIRBOx6M8otXFAXQ0EmLWWYjPk45e3h0NQp3pr8iHOhHqazk6TECLKYzs0Cn3uaioJGhmqNhS36ch5r2MUz6+7j/pqthfoMhyHXOkQNhN/K6yyKR5Eia5c1LR5zEQUBrajBYbBSbyunwVZOo8mCK3qRktQEZrJoBIWUIiDDpzMP80ISlxLMpgKMRKcZic4wmwjiS0aIZhNkJAmdqEEURDTXyEO/UajxHV8yzHBkhjPePj6YvMDb46d4f/IcH0934Un5SZNCmTtHXgFRUbAlZarDWTZ60uzJOHjA1MCDrXu5e91uGmwVlBhtaJdZCX6zKIpHkSJrly+MeCzEpDVQLqboDB+mM9NHkyaBEYm4kqvEVqeuywt8PGk5izcZ4qJ/mIu+Qc75BklJGfSiFo0oohXyrdJvsDVSSKlEnZ+R6yx8eraXt8dO8bO+dzkw8jHnvAN4ksErWocIioJGAVNGwZmU2eBJc9dIgq92RXk4WcJeZyvVjesx19blAuE38Nyvl6J4FCmydvnCigeAkgmizH6IMTFEtZBgsy7OfmOUOk0WswARdMRlkUXC6gAkpUxeSIY4OtNFf2iSSDpRKDi8avO/6ySWTjAYnuLg+Gn+rus1Xh48yvuT5xiPeUlkU1eIhoo5C2UJuHc4zrPnIzzVE+XukQR14SwORyn6unq0TU1oq6pybyiKR5EiRT4DX2jxIBNE8X6IEB9BTwazIOMUJSpEiWark02191DnWodeZ0FWFGKZxLylWUFBUmTi2RShdAxPIsBgeCrXByrmJZ5NohU0mLUGBOH6LZF4Jok3EeLodBevjxzn18MfcWjiLOd9Q0zHfUQyCbLKlf1tdaKWMqODXRUbeMjQwJfjLu4eitLe66E6ImFPK+hk0JWVoa0vikeRIkVuHF988Zj9ECU+Ako212ZEAIeoUGUpo6XhMerdnZRbqyk12LDpTGgEDZIik5WleQV1kiIXhiT1hyaYjPmYjvnxJ8OEM3EkRUIUxPx8kasLiazkRCmQijAUnua0t48PJy/w1vhJ3p84ywnvZUYjM8SyySvSjQWgxGClzlrGVncr+6o7ebhuB/doKtk5q1A17MEyPIFO/jQvQFMUjyJFitxgbivxoBAfF9AaKzBV3EOVu4Mt5RvZ5GpkQ0kdeo0OWZHJyFJhkf+0OOTTaYeeRJDuwAjnvAP0BMZISblWKeb8tYuCmFuf1TU6/yvScq42ZTYZ5JxvkDdGPuGfBz/kV/2H6fIP40kGySxoRy/ki/os+YyyzaXN3F+zja+13sezLfvY6m6lKiUgjk0gD48iTU7Oe39RPL54LCzPutpmpUiRm8FtJx45BARDGYJ7N4KpGkFjwqI3UWUuZWtpC3eUr6fFXoVBq8MTDyIrOcFYiAIk5QyzyQDnfAOc8fZz1jdAUkpj05vRi1oM2lxcREEhK0tcCoxyePIcP7j0Jr/qf58Ppy8yGvGQlDJLxjMMGh0Ntkr2VXXyrY2P8mzLvTxSdyeN9kqsOjNaUYPs9yGNjJIdHimKx21IUTyK3GrWdIX5tVBiw0jd/2/k2Q9ASsyxIAQEWzvi+n+N6LoT9CUIgljoYROXUviSYcaiHgZDU5zzDXDeN0RvaBxfMoK0iJCQn+Ft05mpt5XTYq9ms6uJNmcNNZYypmI+LgaG6QmM5WePeAilowWLZSFGjR6rzkSHq5FOVxObXA20OmpptJXjMFixaHNtntVFI9PbS/LwByTfP0z6xIl5v0u3cSOGu+7CeP99GLZvy/3j57nYFCvMr0BtyheNRgmFQni9Xnw+X2HWuToONRqNFhr1kf/8RVHEaDQWWqjb7fZCm3CbzUZlZSUulwuDwVDo9loUmyKflaJ4zBGPwvvy/83KWVLZNN2BUbr8I5z3D9IbHGckMo0vGSaUji268GsEAZPGSIujigZbBbWWMqbiProDo3jiAYLp2BUNCnPvE7HqTFSaXTTZKmixV7PF3UKHq4l6axkOg3XJrrZF8Vg7FDYp8TiRSASfz1eYqT07O4vX68Xj8RTEIxKJXCEeczu8CvnhRmordbvdXhARh8NBVVUVFRUVuFwu3G43ZWVllJaW4nQ60Wq1aDS5FjyLPVdFiixFUTwWEY+55Ir1IC1l8CXDXPAPcXjyHOd8uVhHNJMkKaXyAfbFERFy3YEX/iCPXtRi0Ohw6W002avYW7mRnRUb2Fm+HnN+Pvu1KIrH6kX9iqmDjBKJBPF4nLGxMYaGhrh48SLd3d1cunQJr9dLJBIhm82NJ/6sCIKAXq/HarVSWVlJW1sbnZ2dbNq0iQ0bNuByubDb7RiNxmW3RS9ShKJ4LE88yL9TVmRSUoZ4NslgaIruwCjvjp/htLeXqZifpLyyiXJCfvBSq6OGTlcT+2u25ILfFhd2vRm9+GnbkGtRFI/Vi2pphMNhRkZGOH36NB988AF9fX0MDw8XZoNkMpl5E+tuFKogaDSawgwKl8tFRUUFO3fuLLwqKyuxWCzLet6KFCkGzE01oFl6gpn6xRPyfbR0ogaT1oDTYKXaUkqbs5r2kgZqzKWYtAaimSQy8pJt4QEMoo4KUwnb3G081bg3NxO8/k62uJups5bj0JvRa3S5SvYlzmshss9HdmSkGDBfZSQSCfx+P0eOHOG1117j5Zdf5p133uHs2bOMjo7i9/tJJBJkMpnCbI2bgZKfR6HO445Go/h8PsbHx+nt7aWrq4upqamCyFgsFii6sopchaJ4XEM8FqIKiUGjw643U20pzcc13FSaXbhNDmRFJpSOLzp8qdZSRoergf01W3mobgcP1m5nm7uNNmcNdr0Fg0aXS/PN/2+5FMVjdaAu/slkEp/Px7lz5zh06BBvvPEG7733HidPnmRoaIhwOEw6nb5pYnEtZFkmnU4TDAaZnp5maGiIqakpPB4P8XgcAL1ej16vL7qyiizK4r6aIstCEAR0Ym7W950VG3i+ZT//920v8nDtHZSZnBgXtC8REdhS2sxzLffwnU1P8mLrfWwubabc7EQUxJs3fKnILUFRFCRJIhaLMTIywocffsiPf/xj/sN/+A+88sornD9/nlAodMPdUp+VdDqN3+/n+PHjfO973+P73/8+P//5zzl79iyzs7Ok0+lVd85FPn+Kq9UNxKDVU2p0UGKw4dCb0S0yurXCVEKTvWrJnxdZuyiKQjQa5eTJk/zsZz/jz//8z3n55ZeZnp4mkUgsPHzVobq1Tp06xc9+9jP++q//mpdeeomZmRlSqTmehiJFiuJxYxEFAY2Ya9u+WKBbyLeN14nafAV60R3wRUCNJ/T29vLWW2/xwx/+kJdeeonBwUHC4TCSJK3YPaXRaDCbzVRWVtLR0cFDDz3El7/8ZZ5//nm+9rWv8Y1vfINvfOMbvPDCCzz77LM88sgj7N69m7q6Omw2WyFz6npIpVJ4PB4++ugjXn75ZX70ox/xySefkEqlkKTFa5yK3H4UYx4rjHksh1OzvZz3DRJIRUlKn2ZgiYLAdncb7SX1lJtLMGtv3H0qxjxuPaogRKNRZmdnOXjwIK+++ipHjhxhaGiITCazbNEQRRGDwUBlZSXr169nx44d7N27l71797Jv3z7uuusu7rzzTu644w62b9/O1q1b2bp1K1u2bGHz5s1s2rSJ9vZ21q1bR2trK01NTbjdboxGYyG+sdxzIW+FxGKxQkxEURQsFgsGg6EYTC8CRfEoisfnyVoXD1mWyWazDA0N8fHHH/PSSy9x8OBBgsHgsmMEoihiMplwu900NzezZ88eHn/8cZ555hmee+45HnnkEe666y46Oztpb2+nra2NlpaWwqu1tZV169bR0dHB9u3b2bdvH3fffTd33HEHjY2NlJSUoNVqC9bPSlOBk8kk09PTRCIRAoEAbrebiooKNBoN4i0ajFZkdVL89IsUuU7S6TSzs7O89957/MVf/AXHjh0jmUyuaHE2mUxs376db37zm/zlX/4lf/7nf843v/lNduzYgcvlQq+/doHoXERRxG6309zczKOPPsqf/Mmf8Bd/8Rf8u3/373jooYeoq6tDq9UufNs16e3t5cCBAxw6dIiuri6i0ejCQ4rcZhTFo0iRFaIoCtlslvHxcX7zm9/wzjvvFNJvl4sgCHR2dvL888/z7W9/m69//et0dnZSVVWF1WrFYDCg0eTGBC83NqYeJ4oiOp0Ok8mEw+GgpaWFe++9lz/6oz/iO9/5Dvfffz/19fUL335VUqkUPp+PgwcP8k//9E8MDQ0Rj8dXJJRFvlgUxaNIkRUiSRJer5fu7m7eeustzpw5QyKRWHYw2eVysWnTJh555BFefPFF7r//fjZu3IjD4UCnu3HTKVUhMZvNVFVVsWvXLp544gm+8Y1vcO+991JfX1+IX1wLRVFIp9P09PTw4Ycfcvz4cYaHh68rGeBWoeQr+5d6rSUWnvu1XreCYsyjGPP43FiLMQ9ZlkkkEpw9e5bDhw9z8OBBJicnl/WFFfJ9pjZu3MgTTzzB448/zt13343dbi9YGTcLIV857nQ62bBhA1qtlkwmU+jYu5zzJ++qUzv6Wq1WWlpa0Gq1y4p/qAtbOp0mkUiQSqWW9ZJlufD7F94j9bwlSSKVShW6EAcCAfx+f6HhpPry+Xz4/X5CoRCRSIREIlFIJlDFdrG/cytR79PcbgChUKhwTT6fj9nZ2UITTfW6fD4fgUCgcG3xeJxkMlkQ+JVYscuh2NvqGr2troe/63qNH/ceZDA8RSD1qW9YI4h8a8OjfLX5bjpKmyg13rj7VOxtdWtIp9PMzMzwt3/7t/z2t7+lr6+vUJF9LUwmE1VVVTz11FN897vfpaKiAqvVCrdwsVK/7l6vl8HBQf7rf/2vvP322/h8voIoXAu9Xo/b7eapp57i3/7bf0tlZSU2m23hYVcgSRLpdJrx8XGGh4fJZrPXtNZEUaS6upqmpiaMRiMGw/wNl5JPAggEAkxOTnLp0iUGBwcZHh5mdnYWv99PNBotpBlrtVoMBgMlJSWUl5dTW1tLW1sbGzdupKGhgaqqqhu6wF4PaiKGx+NheHiYvr4+BgYGmJycxOPx4Pf7iUQixGKxgttQq9UW2vI7nU5KS0uprKykrq6ukH3X2NiIwWC4YdbtbSoegL4M3LsRS3cjuu5EMFQgGJz5H362B+dWiIeiKCDLyJEI2cEh0qdOknj/A7LDwyizs/OOLYrHjWNiYoLu7m7+5m/+hkOHDhGJRK65AJJfBOvr6/nyl7/MQw89xL333ovJZCq0Q7/VZDIZQqEQb731Fm+99RYHDx7E4/EsK4YhCAI6nY79+/fze7/3e2zfvp22trbCz5ZC3UWrPb4ikchViw9FUUSr1XL//ffzwgsvUF5eTklJCQCxWIxAIMCFCxc4e/Ys/f39jI2NEQwGiUQiBcFIpVKFDsXq7luj0aDX6zEYDIU29k6nk8bGRtra2ti1axft7e2UlpZeIVY3i1QqRTwe59KlS4UOy2NjY3g8nkI7/kQiQTKZLFh/alt+5liWWq0WnU6HwWCYN+NFbce/YcMGNm7cSEdHB9XV1ej1+ut+Br/4bivvRyjxMVjY8VbOQsYPSQ+kZiDtBymeEw5RB8L1uxFumtsqr/NyNIbsmSXT1UX6+HFSR46SPnGKbG8vSiQCCxYATXl5zmXV1Ii2sjL3j9d5bTeSteS2Ul0J3d3dHDlyhGPHjjEyMrLsxdbhcNDe3s4zzzxTyKS63i/tjUBdaMxmM4IgFAoar7aYz0WSpEIhYmVlJY2NjdfcsWcyGeLxOB988AEHDhxgYGCA4eFhxsfHF31NTEwwNTVFdXU127dvx2q1IggCw8PDnDp1irfffpu333670DOsu7ubyclJvF4v4XB4Xrdi1crJZrPz3EGBQIDp6WlGRkYKLfLVBXvuPeIawrhS1D17NBplYmKC06dP8+6773Lw4EHee+89jhw5wvnz5xkYGGB6erpgbahuNlUQ576y2SzpdLpwbcFgkNnZ2YKl19/fz/j4OGNjY0xPTxMMBhFFEY1Gg9E4f7jccvhii0c2ihLqRkl5IBMD5n7RJcjGIDGOEjyPkhhBSU6DLH1qeQgCgpBPa1zBTb3R4qEoCmSzKPE4kt9Ppq+f9JkzJN58k+RbB0mfOYs0Pg7p9HzhEATQadE2NKDr7ERbX4/G7f70Z58za0k81IXnww8/5M0336S/v3/Z2VUajYbW1lZ27tzJQw89RGNjY2Gi3+eJIAgFt9n4+DjBYBCv17vwsCWRJIlQKERLSwubNm0qLERLkc1mSSaTnDlzhuPHj5NMJq/qKlN30xs3bmTXrl0IgoDH4+HgwYP85je/4Ze//CVnzpwptH9ZphNlSRKJBLOzs1y+fJnBwUHS6TR6vZ7KysrCubDCBXYx1HhGIBDg8uXLHD58mFdeeYWf/OQnnDx5koGBAcLh8FXvzUqR84WiHo+Hvr4+zp8/z9DQELIso9VqcTgc8z6/5VzjjXP0r0a0VoSyuxDce0Br/VQUrkCC6ADK1BtIl/8/ZLv/X8ijP0cJnMmJ5BJjZ28Z2Syy30/q9Gmi3/s+4f/0nwj/5X8i+f5hpKkpWLDwFtDrEcvK0K1bh3HPbjRqsLzIislms0QiEQYHBzl//jyBQGDhIUui1Wrp7Oxkz549lJWVXVedxc3CYDBQXV3N/v372bx581UX/4XEYrHCTnZmZuam9e9S4xqffPIJP/nJT/j+97/P66+/jtfrvaELrEoqlaK/v58f/vCH/OIXv+D06dN4PJ6Fh1032WyW2dlZXn31Vf7qr/6Kf//v/z2vvfYas7OzN+0ezkWNEX3yySf8x//4H/mbv/kb3nnnHcbGxlYkwF9sywMRQV+Sy6iytIC+BJRMzrqYe/6Qi4coEkgpyIZQEmMokV6U4DmUdDAXLhENCKIuJ0JXUeYbYXkomQxKMkn6YhfJw4dJvPZbEu+8Q+bCRaTJKZRoFCSp4MoqoNEgWCzoOzZhuOcezE89heGuu9DW1yGaTAgazVXP/VayliyPUCjE+Pg4hw8fLvR5Ws4XTd3VPfbYY+zfv5/y8vKCH305u7ubjSAIKIqCTqdjamqK8+fPIy2zCl11laxbt46WlhYcDsdVU3/nWh4nTpwgmUzO89svRN3tq7GOd999l/fff5/R0dFlJylcL2pwPxaLMTw8TElJCbW1tde0rq6GJElIksTRo0c5cOAABw4c4OTJk4XOxbcaKZ+hFggE6OvrQ6fTYbPZMJlMy4r1fKHFQxBEBK05l01lrkUwViCYKkHvQtCYc24sObsgjVfJxUcyQUh6UOKjkJqF5DSkfbm4iKABQcwLCVdYNNcjHko+iKzE42Qnp0hf6ib98TGSR46S+vgjMufOIQ2NoITCOffUAgSLBU1FRU409uzGeNddGPbsRr9tK5rqKgSjMSccq4i1JB4ej4fu7m6OHTtGV1fXshZXALPZTHl5OY8++ih33nknZrN5VbisyC/O6kuv1zM+Ps65c+dIpVLLXsxkWaaqqgq3201lZSUuVy65YbHrW6l4MEfc/H4/Z86cYWhoaMm4jCo26ku9tuWI/GIoikIsFmNqaory8nLKy8uxWq2YTLnncbFrXAw1XjYzM0NXVxevvvoqr7/+Ot3d3Xi93ms+S0I+QcHlclFVVUVLS0uhJU17ezvt7e00NzdTU1OD2+3GYDAU/ua1kjnUa5yeniabzZLNZikvL8dmsxXu4VJ8ocUDIWchCKIeQWdDNNci2DsQzPUIxnIQNXnPXf7DU6SceKgo2ZxYJMZRIpdRooMoSU/OzaVkcyIC+f9+Gixctnhocq0nlEwGOZFA8nrJDgyQOnGC1LvvkXj1VTIXLiCPj6PEE1daGVotgtmM6Haja23FcMcOTA89hOmxR9Fv3oyuLm9trJLFaiFrQTzUhWdsbIzjx49z7tw5hoeHFx62JCUlJdTX13PfffexceNGdDrdsmoibiXq4jQ+Ps6lS5cK2UrLxWq1YjQaaWtru2qq6/WIh6IohEIhBgcH8fv9hcVQFEX0en0hk6i8vJzKykpqamqorq6murqa8vJy3G43DocDs9lcSFG91t+ciyRJJBKJgujX1NRcVSAXQ5Ik4vE4p06d4uWXX+a9994riPTVUK/R7XbT2NjIli1b2LNnD/v27WP//v088MADhaaZO3bsYOPGjbS0tFBWVobVakWr1RYE5GoCpR7j9Xrx+/3U1tZSUlKCzWZDFK/sDq7yxRaPKxBA1CIYShGsrbkUXds6BK0TRclCOgCKPF9AVJRM7ufRIRT/J7n7kPbkrl1rz/3evJgsWzy0BlAUpJkZMj2XiR84QOKlV0geOkS2pyfnmlrqQRcExPJydBvbMX/5KUxffgrTw4+gW78O0eFAyE+AU49djawF8SD/5RoYGODIkSP09vYyMzOz8JAlqaqqYv369ezdu5fW1tYlF9bPG0EQmJ6eZnx8vFB0tlzMZjMWi4WtW7fS0NCw5DVej3iQt26kBZXsVquVqqoq9uzZw5NPPskLL7zAN7/5TV544QWef/55nnvuOb7yla/wxBNPsG/fPjZs2IDVai0skiu1RuLxOPF4vJDiuhLrMRwOMzAwwBtvvMEPf/hDpqamrmkRANhsNmpqanj66af5wz/8Q1588UUee+wxdu7cSXt7O42NjdTW1lJTU0NjYyMbNmxgx44d3H333TzwwAM0NTVhsViYnZ0lFotd82+m0+mCxWkymWhpaSlMklyM20s8Cma6iCBoEDRGBL0T0dqEYFuP4GgHnT0nMlJigTuLvKhkc26tbAglNooS6UEOX4Z0MCc8WiunvP2c9w8tIR6tbLBV486IaAdHSL77Hom33iLx1ltkL1xEmpxEicUWFw2tFsFiQdfejvG+/ZgeexTzww+j29yJrqYG0WbNWRnqbkF9rVLWgniou7LLly9z6NAhRkdHCQbn16RcjYaGBjo7O9m2bRu1tbVLLqyfN4IgFCqTx8bGGBsbW3jIkhiNRux2O7t27aKhoWHJ3er1ioeKIAg4nU527NjB448/zr/4F/+CL33pS+zatYt169ZRVVVFaWkpTqcTh8OBw+GgpKSEioqKws69ra2N+vp6UvleXVfbkc9Fyqcmt7e3U1FRgcViuWbsQ81wGhgY4KWXXuLw4cMMDAxccxFXM7zuvfde/uAP/oD777+fjo4OysrKChaUVqud56LT5NOKtVoter0ei8VCRUUFdXV1VFVVIYoi4+PjyPl6l6WQJIlIJILZbGbjxo0YDIYlm3PeXuIxF0HI1XJojLmgurEcwVSLYKpAMFaAwQ1aE8iZnGhcERdJQSaUqxNJTkJyBpLTKCkvp2f7OB+aJZCKkZTnFPIAmyU7bd4UjnM9iB8dJ/3Rx6QvXkQaHEQJ5+MZcz9cUQSDAU11Nbr2Dbl4xt13Ydy7F/3mTnTNTbkF1mhEEMVVLRYLWQvioe56L126xKFDh5iZmVmRS6etrY1t27YVFh1W4O64lQiCQCQSIRwO09PTw8DAwMJDlsRgMOBwONi9ezeNjY1olmjX/lnFo66ujm3btvHUU0/x8MMPs3v3bpqamgpuGrV6Wl1EdToder2+UAhYUVFRWFCTySSxWIxYLHZN9xH5TYRer6e1tZXKykrKysquWqmt5JtnzszMcPr0aV5++WUuXbpELBZbeOg8tFotVVVVPPDAAzz66KM8/PDD1NfX43A4CtbOtZ4fNahvtVopKSmhMl/bpQbmr3YOqovNarVSX19f+B2LceUnfNsh5OIVWguiqRpN2T40dc+jafo9xLpnEdz7wN4OhkrQmD+Nc6jIKUhOofiOII/9M/Lg3yN7P0JJ+/PCM/dYmUx/P8l33iP2818Q//VvSJ89izwzA5I8XzR0OgSLBbG6Gt2mTRjv24/5mWew/d7vYn7qSQw7tqOtrETQ6XKiUeSmoFoe6pdupamhJpOJ0tJSjEbjsr74nwfqeen1eux2OwaDYUXnqYpCMl/9fLWd7fUg5gdlbd++na985Ss8+eST7Ny5E6fTedUFfC7qglpRUcG2bdt46KGHePDBBykvL19U6Baixj6mp6eZnZ295qAvRVFIpVJcvnyZU6dOMTAwcE1XoCAIhaaZTz/9NPfffz9lZWWFAP1KUD9Tq9VKW1sbd911F0888UTBdboUiqKQSCSYmJjg+PHjhfTdxa712nfttkMEnQPBvh5N9dNoNv0ZmrZ/jVD/PNjWg+Yq9SJSBGJDkBjPVaxfkQ4M0vg4mUs9yLNeWGrHI4oIpaVoOzqwvPgijv/5f8L27T/A/MjDaKqrEfIVr0VuDar1kc1X9a4Eg8GA3W5f9iL3eaIGaK/ljlmIKrCZTOaK2MSNwGQyUV5ezv79+3nyySeprq5e8TmqCIKAVqtly5Yt3HfffdTX1xcqyK9FJpPB7/fPC9wvhZyfxHjy5EmOHTtGKBRaeMgV6HQ6tm3bxgMPPEBnZycVFRVXXeiXiyiKtLS08Nxzz9HR0XHVOIbK7OzsvC4Ki32mRfGYSz5GkFNtDYLGkMvSKtmCpvZptOv/BHH9v0aofgpsG0DQL3ILlTmvRVByPamuyJwSRQSnA+2mjZhfeB77v/oOjn/9P2D+0iPoWlsQnc6ClXGtD77I6kGj0azKDKvFUHerK7WQ1J3pUjvUz0pVVRV79+6lra2N0tLSwuK3knNUmbsjVxsjut3uZYlRNpvF5/MVihOvtpGIx+OFavX+/n6SSxXy5tHkZ9Z3dHSwc+dOSkpKrpkquxzU61Xb8jc3N9Pa2nrNRpaRSIShoaHCFMnFLO7V/0R/nggCgqhB0JcgWhoRS+9ErHwIse45xLrnEWqfRnDtAGMViNcR5xFF0OnQ1NWh370b05NPYnnhecxPPolx/73ot2xBW1uDaLUi6HQFcSty67nexUrdld+MRfVGo57r1RbFpRDy7cyv5x5di+rqavbs2UNtbS0Gg+GGCLGa5qsWIC7nd8qyXEhjXsryUAU0HA4XenMtx1IxGAy4XC5aWlpoa2sr9By7UfdTq9UWLLja2tprusJSqRR+vx+Px4PH41k0LnTtO1Ykh6ABjQnRXIemfB+auufQtHwbsfYZhLJ7wb4JjNWgMYHaD2spdBoEux2xpgbdpk0Y7tuP+blnsX7jG1i++lX027ehrapC0GpzAlPkc0NdFFULYjk71LnMjZXcrJ35jUKN7axUQNRMHzVYfaMWPPIuF7fbzaZNm3C5XDdsQdXkO+s6nU6sVuuyxEPJzyJJ5WeMLPVZKorC7Ows/f39+P3+a8ZHyGesORwO9Ho96XQar9fL5OTkDXtNT0/j8XjIZDLL6uasBs59Ph+Tk5OLVvRf+44VWRydHcHSjFj7HJoNf4qm/X9EqHsOLM2gcyw8+lM0AoLDhn5LJ5bnn8P553+G/b/7V5gfeRhtYwOoFkaRVYO60FgsFrQr7Eului8W27mtNrLZLLFYbNnV5SoajabQAnylwfarIeQrxtVU4KVSRq8XQRAwGAzLasWhIuVbjFxLDEZHRzl58uQ1g+RzyWazHD9+nF/+8pf8/Oc/vymvY8eOMT09fU03mmqFhsNhPB7PoscXxWPFCKjV5IIgIojanFvL3pGLi3T874jVj4OhGsQFpqEgYLhzJ9avfwPr7/0e5scezfWcstvn1WfcqC9fkc+OuoBZLJZCe4qVEA6HmZycvGp65OeNoigFl8zo6CiRSGThIVfFaDRis9kwGo03xE+vMtfqu5G/V0X9/TfyO6dal/F4nEAgsGwhVmMMr7/+Ot/73vf43ve+x9///d/f8Nebb75Z6CJwLZR86xK/37/o5qcoHp+FfAxCEHUIekcuLlJyB4KlCUHvyM0FmXe4gKa6Bt2mDnQbNqCtrUU0m3PuqSKrEnWBsVqt1NTUYLevbIBXKBRidHSUcDi8rB3r54EqHoFAgN7e3hV1DCZfYa4OTrrRcQ91Yb+RC7zKzfq9qnsrHo9fM9ahkslkiEajjI+P09fXR29v7015TU5OEgqFFg2AL4bquiqKx81GEEHUgqgHjf7KeIUgIBoMhX5Tt30AXMlnn62+9bSAKh42m43GxkacTnXa5PJQxSMYDBZ85asNJT9fwufz0dfXt2LxKCkpoa6u7qoddW8XVMsjm82Syo++XctczYIqikeRz5dVLBxzsdlsNDU1UVpauqzgqorasdTr9S57ZO2tRg2OqlP1FguOXo26ujq2b99OaWnpDd/Fr0XUeEE2m12VluZKSKfTRKPRRS2V5X8LrkY2juz7BGnit0jT7+R6PSlSvslgkSI5FElCCoVIX7xI9Kc/I/HW20hjY8graPfxeWG1WmlsbKS8vByz2XzNbBWVdDpNKBSiv7+fy5cvE4vFCrvT1UIikSj0s/L5fMseSCTmK7/LyspoaGjAYrEUxSOParGudTL5kb2LbXoEZZlPsZKNI4+/jDz9NkrwTK6vUwEh56rRuxGszbk+V7Z1CNZWBHNdbp6GJjcj93bg77pe48e9BxkMTxFIfbowagSRb214lK82301HaROlxpX5z9ciiiSBJJGdnCQ7OkZ2YIBMfz/Zvj6kySnkJSa0mZ9/DsvXv46mqgpNycpcRTeDRCJBNBrl7/7u7/jBD36Ax+NZdhBcr9dzzz338NBDD/HVr3610P/p815oVREbGxvj0KFDvPbaa/zmN79ZdmzGaDTidDr5zne+w+///u/jcrmu6rpKJBIEg0F+8IMf8Nd//dcEg8GrCpWYr3h//vnn+eM//mPq6uooKytbeNiKUa9tYmKCf/qnf+LNN9/kgw8+WDSjaC4mk4m2tjYeffRRvvvd71JVVXVF9p3ajeDHP/4xP/7xj+nu7l7WFEK3201VVRVVVVU4HLlszc/7+SBfoNna2sqDDz7Ihg0b5v1s+eIhJVE8h5A9h5FnD+eGIy01nlVrB0MZgmsnYsm2nIiYqkHvBFGPIH6xA8S3tXjkHyelMHM9gOSdJX3+Apnz58l0dedG5y5iBgNgMCBaLJieexbLC8+jKSlBvMqCdKtQ3RBqGuX58+eZnJxceNiiiKJIZWUlu3fv5rvf/S5bt27F6XTelGDtSpBlmVQqxfnz5/nhD3/IkSNH6OrqWnjYkpSXl9PS0sK3vvUtvv71rxfqPJbidhEPWZb5+c9/zs9+9jPOnTvH1NTUvGMWo6Ojg127dnHXXXfR1tYGq0Q8TCYTVquVysrKK5JFlt9VF0BjAUGLEhuBTHjR3k2QbxaYCUD4Eor/BEq0DzJRMLgRNPovvBWyonkeX0RkGSUQJH3hIsm33iL6gx+R+uADst3dKKFQrj3LEogVFei3bsWwexf6TZtAr18VjR+FfMqumnUyPDzM9PT0wsMWRcmnbpKvlnY6nZSVld3wzKSVIkkSs7OznD17lldeeYW+vr5FfdtL0dTUxP3338+uXbtoaWm5phiutKuues83bdrE7t27rznmdqVEIhG6u7vp7+9nZGTkqudCvvdUaWkpbW1t7Ny5szAsaS6qMKnZTdPT04TD4XnHLEZtbS3t7e3ce++97Nq1i/r6eurr66mrq/tcX2qb+8Xqd5b/rRQ0CMYyxNJdaDf8KeL6f4tQ/WWwtoGQn+t9BRJkIyihi0jj/4R04X9D6v1PSOOvIEcHcvPCl7JeiqwdlNwIXcnvJ91zmegvf0noL/+S8H/9GxJvvPHpjJIljFzB4UDbvgHL17+G/bvfxfbtP8C4887cQKtlxhZuNurCWFdXx44dO6irq1t08VgKSZKYnJzk5Zdf5uDBg3i93mvudG8mkiQRjUY5fPgwb775JuPj41e1AuYiiiImk4mmpibuu+8+mpqarikctwvqfSgrK6OlpWXZdUGBQIDBwUFCoVBBgNTftVpeC1nek69eiMaAYHAjOrcgVjyAWP8cYv3XEeqehZJ8jydhQfdQJQvZMMRHUIKnkWcO5lqXD/8EaewlZP9plMQkipwtBtjXGIokIcfjZEdHSR49SuLAq8R++lMSB14j+cGHZLq6kCanIJmEuQE3UcjNKKmvx3DXXsxf+TKWr38N05NPYth3F7oN69G43QirIC6wEKfTSXNzM1u2bGHDhg3X7BE0l2g0ysWLFzl8+DCvv/46fX1919Wp97OgxjlmZmY4d+4chw8f5tixYwQCgWWfh9FopLm5mU2bNrFx40bcbveSC8ztiCAIVFZW0tHRUWipci3mpnTfjLb2N4Nli0cBUQMaA6KlDk3Z3Whqn8nNvqj9aq7Hk7MTjDX52Rdz/YH5gUrxMRTvUeTRXyEN/yPy+K9zcZTQRZTEBEo2iiJnCrvZIqsLRZZzohEMkh0dJX3mLIlDh4j/80vEfvVPxF/5NekzZ3KB8IW54RoNgsOBpr4e/dYtGO+/D3M+tmH58pfRb92Sm1GiX6RGZpVgNBpxu93s2rWL3bt343K5lp15lc1mCYVCnDt3jp/97GccPnyYoaEhIpHIVXsl3QhU0Uin0wSDQc6ePctrr73GJ598wtDQ0LKtII1GQ2lpKbt27WLHjh2F7LMiOVQRLS8vZ926dZSXl2Myma4pILFYjJmZGaampvB6vQUBudHPhJIvCE3m568sNzliMT7DN1QARASDE9G2Hm3D19Bu+FO0G/4nxNqnwdKUC5wvipybfRG5hDz6U6Tev0Tq/j+RJ1+D6ABkozmxKbL6kCSURJL02XPE//klwv/f/x+Rv/prEm++Rba/PxcIX+xh1GgQbTb0W7dgee5ZnP/L/4L9u/8d5sceQ9faimA0rhoX1dUQRRGz2czOnTvZv38/dXV1y3ZNqExNTfH+++/z8ssv88tf/pLBwcFlNc+7Efj9fs6dO8dvfvMbfvjDH3L58uVr+vrnYjabaWho4Mknn+Tuu+9e1BdeJHef1Ayq8vLya/blSqfTBAIBenp6uHjx4oqmVa6UbDbL7OwsMzMzJBKJRdNwl8PKAuZXRQCNPt++vBnBdQeipRH0rtzMbzm5yExwciIhpSATRIkOoATPIscGUVKBQodaQaPe+LXxkH6hAuZKbv6IFA6T7e8n9f5hYj//Ocn33iN16jTy9HRuhOxiLg9BQCgpQdvUiPGBBzA/+1VMDz6Afts2NBUVCCbTqgiGXw96vb7Q5jqdTjM4OLjwkKuiKArBYJDh4WEmJycJBoOFrqrXWmhWgrp7DYfDXLhwgTfeeIMf/ehHHD9+nNnZ2RUJh16vZ9++fTz66KPcddddVFVVrSjl+HYImKuo/+7xeAgGg8tuRphIJEin0zQ3NxcmJS73/i4Hr9dLV1cXf//3f8+Pf/xjDh06xOXLlwkGgyiKgtFoRBTFJa9rLjdGPAR1iFJ+JrjOjmCsQDCWg7kW0VQLxjIE0ZgXi+QCy0LOCUwmBKlZSHpycZDEGErKC3IKBQFBNBT+1mpmzYtHfgcsx2JIs17S58+T+uhjUh98QOrYMdLnzueC4KHQlZaGICCYzWjKy9Fv2Yxh926M+/dj3LMb/ebNaGtr0ZSU5AZbrQFLYynUTrIul4tsNovH4yGbza6oOjuZTBIKhZidnWVycpKJiQl8Pl/BClEXDnXxWO4ioqaLqn2Jzp07xwcffMAbb7zBoUOHOHPmDD6f75qL5VxcLhfNzc08+eSTPPTQQ4UJfCuJddxO4iHMabqYTqfp6+sruCeXQv3Mkslkoduv2+1e9mJ+NdL50QBHjhzh1Vdf5Z133uH8+fOMjIwwMjLCwMAAfX19DA4O4vF4SCQShY2Bmo688HO+MeKxkEK3WSeCqQbB1gaWegR9CYLWkusBJWhyoqFI84VEyeZEJD4BkcsoiUlI+1Ck5JxjBRC1CKxOIVmr4qHIMmSzKJEI0oyHTG8vqdNnclbGBx+SPnUaaWwcEon5AXBByMUz7HY05eVo17VhuGMHxvvvw7hvH4Zdu9BWV+eGWn0BenqpC6ZOp8PlchVmWUSjUXw+34r8yLIsEwqFmJiY4NKlS4Uq72AwSDQaJRwOE4vFCjtStd5EfWUyGTKZTKGIMRAIMDMzw/j4OJcuXeLkyZO8+eabvPHGGxw5cqQw1e5qi9hcNPkJd5s3b+bBBx/koYceYuvWrYUd6sIF5WrcbuIhCAJ2ux1FURgeHiYcDl+zm20631DR7/eTTqex2+2I+Ur+lWwk1OdPbT0zNjZWcFf+9re/ZWJigng8TjweZ2Zmhr6+Prq7u+nq6mJ0dJRAIIAkSRiNRlwuFyzyN2+OeMxBEEQEjRHRWI7o3Izg7ERwdObqRaQEZGMgZxaJcSigZCA1gxK6iBI4jxy5nBMXUQ96R06E8mGbwmVd46beCtaSeMxd5JRMBiUaJdPVTfz1N4j/+jckfnOA7OXLyH4/LPXl0usRLBb0mzdjevhhLM88jenxx9Bt2ICmrKzQbv6Lhrq4lZaWsmXLFoLBIDMzM8RisUW7kF4N9Us+OjrKJ598wocffsjhw4fp6upiaGgIr9dLKBQilUoRjUaJxWJEo1FCoRCBQICJiQn6+/v55JNPOHjwIC+99BK/+MUv+NnPfsaJEycKqbjLFTUVtSHk008/zR/+4R/S2NhYEI6VcjuJB/nzVzsNK4pCJBKhv79/4WFXkEqlmJiYYHx8nIGBAbRaLRUVFWi12iuKEpdCDYxHo1EGBwd5/fXX+c//+T/zySefMD09vei1qnEXtavv0NAQbrebzs7OecKlsuwK889O7s8ocgayScj4kRMTEOpBDp5F8Z/IWRzSEi0fBF0uBqIvAXMdgrUV0XUHYslW0OUtmlViiaylCnMlm0VJp3MtQ3p6SJ0+TXZwCGl6BiUSQYnHFw+Ai2LOPdXQgG7jRgx3bEdTV5+zMGxWBLM5d8wq+DxuNlJ+QFBfXx+nT5/mV7/6FadOncLj8Vx3MFK1ZkwmU+Gl1+sxGAxotdpChpca00in04U+RMlkkkQiUfj/y7Uy5qIulDt37uTZZ59l27ZtrFu3Dk1+tsb1cDtUmM9F/Ttqc8wDBw7wgx/8oDCa9loYDAYsFgs1NTU0NjayadMm1q9fT0tLCxUVFYVMP1XAJEkik8kUphD29fXR09NDd3c3IyMjTE1NkUqlFhUOFdWi3rlzJy+++CJ33XUXW7ZsKfxs3rG3TjzmoCiAkrM8Ul6U2AhKtB8lfBkl2ocSH4F0YIkAe77SXV+S66NlaQXbOkRbK4KlGUFnz83R+BwXrVUtHkouBVpOJHLptkPDZPr6yPb3kx0cJDs6hhwKXZlmm0cwmxFtNrQtLWjbWtG2tqJrbkLb0IBgsyEa890DPsf7/3mRSCSYnZ3l2LFjHDlyhA8++IDx8fEVTZNbDgt3gaqA3ChcLhd1dXXs27ePu+++m71791JaWvqZU3JvN/FQkWWZTCZTiD299dZbfPLJJyQSiasu5CrqJqKqqoqKigoqKipwOp3YbLZ5Yi7lxwiHw+FCh+SZmRk8Hg/xePyaz4ggCNhsNtrb23nwwQd54YUXqK2tpaSkZOGhcCvcVouS93kLoj4fF6lFdGwCUyUY3KAxIoj6vDNKybu15qBk8oWHYyjhHpTUNKT8oKTywXVyacRqD61bvJCtOrdV/qFRMplcv6mpKTKX+0idPk3q8Ack332XzIULSMMjOUtj4W5Zq0WwWNBUVaFdvw7Dtm0Y79uPcf99GLZtRdfQgGixIKgjdG/x/V4t6HS6QvfdyspK9Ho9mnxLE1mWyd7AFt2qYNyo3yfmZ5ZUVVWxY8cO7r//fr761a+ye/du3G73ika1LsXt5rZSEfJBZ7vdTmtra8FCTCQSy5r5Ied7kPl8PkZGRuju7ubs2bOcOHGC48ePc/z4cT755BOOHTvGsWPHOHPmDD09PYyPjxMMBpfVckYQBFwuF+vXr+eJJ57g/vvvp6OjA5vNdoXFofL5iMdC8kOUBFMVgn0jousOBNu6XJGhkslbIeQC7PPIx0WS0yihbhTvR8jxURRFAo0BQefIL2Rz4iJL3IgbyWoRj8LCIsu5dFu/n+zgIIk33iT+m9+QePU1shcvogSDi1saggA6HaLDgW7dOkyPPYrly09hefbZXDzD7UYwrI0MuFuFGtysqqpi9+7dVFdXYzKZiMViBAKBG7rg3wjUhc1oNNLZ2clTTz3FN77xDZ5//vlCRtVyFsjlcLuKh4rBYMDhcNDQ0EBLSwter5dAIEAikVixa1HJxzTmJlCsJFFjLqIoYjQa2b17N4899hjPPPMMW7ZsQa/XLykcrBrxmEeuvbtgcCHa2xEcmxAcHbmKdTmTS+lVFlNSNcDug3A3SvgiRC6BlAZRg6AxI4iaW7LIrRbxQJJQUimy/f2kDh8mceAAsVd+Q/rsWeTJyVzbkMUeNlEEnQ7thvUY9+3D9MxXMT/5BIZtW9HW1OQE4zaJZ1wvQj5Vs7S0lI0bN9LZ2cmGDRvQ6XRks9lrpm3ebARBQK/X09jYyN69e/nmN7/J888/z8MPP0xTUxMWi6WQqnmjuN3FQ8VgMFBaWkp7ezuNjY0o+cmDodDcMRc3H1U07rjjDp5//nmeeeYZHnzwQaqqqgq1Rlf7/FedeOT8uZpcHy29A/SlCKZqBFMNWBoQDGUgGkFKzEn1VVFyHX2zYUj5URJTEB9HSYyjpDy5YkSNiZzLTA36LX1zrpfPVTxkGSWTQZqYINPdTfLwhyQPHyb98ceku7qRRkdRwuEr6zPItUPXVFai69iEcf9+TPfei2HvXvSdHejq6hDtdsQFKYNFFkcVD3XmRVlZGXV1dTQ1NdHa2kpjYyOlpaXodLrC7vF6do3LRbUwSkpKaGxs5I477uCBBx7g0Ucf5eGHH2bv3r2sW7eOysrK60rDXQ5F8cih0WgwGo2UlpZSWVlJfX09tbW1lJeXYzAYCoHva7mzrgcx39RSfQa+9KUv8fjjj/PAAw+wceNGqqqq0C2oL1qKzydgvlIUBRQ51/cqNpRP3T2NEh/J14EEQYrnxGMxdCVgrs+nCm8FSwOiqXrOkCrxhlokn0fAXMlkUJJJZK8XaXqGdE8Pme7uXEGfxwNLFa9ptQgGA6Lbjaa6Gl1bK7qODgzbtiK6XIg228J3FLlOVFdDMBhkamqKrq4uuru7GRgYYGpqqlDbEYvFCplSqk98uV9TVST0ej1GoxGTyYTZbMZms+FwOKipqSk0NWxvb6e6uhqHw3FTxGIhiUSCUCjEz3/+c37wgx8QDoeXFTB/6qmn+Pa3v011dTVut3vhYStGvZdTU1McOHCAQ4cO8fHHHy8rYN7U1MQDDzzA7//+7xfSZz8L6jMxOTnJwMAAp06doquri7GxMWZnZwmHw4V6DFVsl/ss6HS6QrDdYrFgsVgoKSmhrKyM9vZ2Nm/ezI4dO6ioqCgMoFoJa0M8FiJnQEog+08iez9C9n6c64mlpK8sOpyHJmd5lO5CLN2DWH53zqIRzTnXlmqFfMYv0a0Qj8LHpuTbh/j9SGNjJD/4gOSHR8iOT0AwuPBtnyIIOdeTy4WmqgrTA/dj2LUTXUsLojr05TPehyLXRsq3Rp+enuby5cv09fXR19fH2NgYExMTzMzMEI1GC7vipb6u6sKv1Wqx2WyUl5dTW1tLfX09ra2trFu3jvXr11NRUYHVar2uHfNnJZVKEYvFeO+993jrrbeIxWKkF4u15VGFcM+ePTzxxBOUlpZe1yK3EPUe+nw+Pv74Y86dO0dXV9ei/cXmCqper6eyspLt27fzpS99iZKSkutOW14MJR8Pi0QijI2NcenSJc6fP09fXx9DQ0NMTk4SCoUKArLwXJlzvqIo4nA4CiOCW1paWLduHZs3b6atrQ273Y5RzYy8TtameCgyKAqKFEVJh1ASExC+jOw7hhK5BLGhhe+Ygwhaa642xFSJ4OhAcO1CtK9DsNTnrZDP9sW6VeKhxGJI09OkTp4ifeECme5uZJ8PJRRGSaevzJoiLwhGI5q6Wgxbt6LbvBl9xybEkhJEux3BYPi0bUhRPG46iqIU3BRzazPS6TSpVIpUKkU8HicajRKPx0kkEmQymUK8RBTFwu7SbDZjtVoxm82F9hZ6vR6TyYTRaMRoNKLX62+JlbEYcr5tSigUIhgMIi+jk7AgCFitVkpKSlZUJHc11L+ZzWYLlp5aQLnwfObeJyFfA2GxWHA6nWi12ht6H9W/rabcJhKJgsWRzGdnxWIxIpFI4ZwlSUKW5cK5GQwGrFZr4TkwmUwYDIbC56/+29z6kOtlbYrHHBRFzvXKSvlyLq1oH0qkHyXSgxIbzsU/Fqb6Qk4kRD0YyxHMjQjWNgR7G4JtfX7uuhNBXGrI1dW5WeKhqFlTU9NkRkfJ9vbmivsGBnLzwGdnlxYMQUBTXY2mrhbdunVo21rRNbegqalGU15eDICvQtTFLJvNkkqlCoWAc91YalxAp9PNKyJcjs+6yNpBybu35j4L6XS6IMDqc6DVagsbh7nFpDeDNS8en6IACkoqgJKcQQmcRA6cQ4kPQ2Iql4UlpxZJ982jKwVTFaJrB4J9E9haEI1VuboTQbuiues3VDwUBUWSclaG34/k8ZC5dJnMxQtkui+RHRvLpdku9jFqtQgmUy52UV6Gvr0d3caN6Ds7EKurEddIG/QiRYqsPr5A4rEAOYuSCSIHz6HMHkOefR9SM7lZIVeNi4hgKAP7JsSyfYgV94HOiaCz5UbxLiMu8pnEI/9xKOr/z2SQo1Gyly+TOnmaxPvvI01MoAQCC9/5KYKQEw6nE21jI4ZdOzHu34+2shKNu7RgiRQpUqTI9fLFFQ9FQVGyuSysdBAlOZubFeI/iRLugvh4bsb6Yqh9tHTOXGqw6w7Ekm25bC1D+TXbn9wI8ZAjEWS/n9SJE6TOnCXbP4A0PY0SCi0dzwAEqxWxzI3hjh25Fujr1qOpKEd0OHIzwVWf8VXOv0iRIkWuxRdXPOaiSCBnUBJTyPExiPSjRHtRIpdR4hOQnl1QL6Ii5qrczbUIpnoEWwuCdR2CYwOYqhEN+T47CwLs1yMeiiyjpNPIfj/ZwSGy/f25nlNDQ2THx5GDoVxR30LyVoamrAxtY2MultHWhrapEU1NDRqXKzfWtWhtFClS5AZye4iHiqLkAuyZIEp8AiV4NtfWJNqLkpyBdD4usqiQaEFnA0sjonMr2NsRbW05S8RQAqKxUHj4d12/XZZ4uPRWUJSclREIIE1MkhkcJHP+PJnePrKDg7k26ItVIgsCgt2GWFKCpqoKXVsbus5O9Ova0DY1wRoftlSkSJHVze0lHnNR5FzhYWIaJTaAPPsBsu9YLrieCeUFZJFFG3IWiakGwdKCULEfsWRHzjrRWUHQ8vddr/PjvoMMhqevFI/1X+Lp5rvpKGnAJRhQkknSXd1kzpwl+fFHZHr7IBZbXDDItw7RahGNRnQdm9Bt24Zx391om5pyqbbijS14LFKkSJHFuI3FIx+YljM5ayPlR0lN5wLsgXMowbM5d5a0iKsINS5iAJ0LzDUIjs2IJdsQSrbzvb4P+fHAh0uIxyM8XbmDDXEdtoExUsdPkB0ezgXBo9Gl54EDWK1oy8vRbdmC4c470DY1oq2uRsjXZ6DR3LLmj0WKFLm9uX3FYyFyFkVO5dJ84+MosYHcfJFwDyTUuMhii7qYC64byxHM9WBp4fuzQX4y62coFiaQndPbSoFvalp4KuVm3VgY++gM2dFR5EgkN9p1MYxGRIcDbXMzurZWtG05t5S2vh7RZkU05Xp1FQWjSJEit5KieMwjb41IGZDiyJF+lFAXSqQbon0oiWnIBCEbX9yllc/S+n7MxU8TdoZSMoE5h4mywteHBR4bTrNu0I8zvISVodEgWCyITieaulq0jU3oN3eiW7cOTUM9oslUjGcUKVLkc6UoHldDDbAnplCifciz7yMHzuXan0gxkLOLisj3YyX8NFHCUFZPQPm0uFCUFV48H+GxyzHWz6YoSS54r0aTnwduRtfahn7bVgy7dqLv6EAwmXLDlooUKVJkFVAUj6uhKPliPXXuejjXyTdyCdl/AiVwBtIhkOe7nFYsHoIAej3a+np07RvQ77wzN+a1pgbRakUwmYrtQ4oUKbKqKIrHclEUQEHJxiDtQ4mPIEeHIHwJJdKLEh3K9dFSstcQjzCP9cZYP5umRNHn54E3o123Dl1rK7qmJjR1tbmiPrO5GAAvUqTIqqQoHteLnEGREiiRy8jhSyiBCyixIUhO8OOQyC8iWnoyBrxzxEMjK/xOV5QnRmVaceByVaFtbEDXsQn9xk1oKivQ2O25dNyiYBQpUmQVUxSPG4AipSAdQA6dR/F8yG89o7zqneHjhMhIRkBGQSeIWBSR3x+Gp+JO6jbcibNjO4bNnTkL4wa0mi5SpEiRW0VRPG4AipIfhyslIBtjLDxGl3eQl4bPcNw3hjeboMXkYqetlkfdW9jpWo/BUYrOakMwGovxjCJFiqw5iuJxQ8ndymQ6SjAZpC84xVQ8SCybwqW3UGd0UmOvwm12IWq1c+aoFylSpMja4v8P2mmfJ3Kx2noAAAAASUVORK5CYII=;" parent="1" vertex="1">
          <mxGeometry x="480" y="1103.27" width="257.53" height="97.46" as="geometry" />
        </mxCell>
        <mxCell id="yvigqvCfVOGot-HgjFOz-29" value="&lt;span style=&quot;font-size: 16px;&quot;&gt;Back Office (CRM, Messaging, Desk, Voice, SMS etc&amp;nbsp;&lt;/span&gt;" style="text;html=1;align=center;verticalAlign=middle;whiteSpace=wrap;rounded=0;" parent="1" vertex="1">
          <mxGeometry x="490" y="1206" width="260" height="30" as="geometry" />
        </mxCell>
        <mxCell id="yvigqvCfVOGot-HgjFOz-32" style="edgeStyle=orthogonalEdgeStyle;rounded=0;orthogonalLoop=1;jettySize=auto;html=1;" parent="1" edge="1">
          <mxGeometry relative="1" as="geometry">
            <mxPoint x="686" y="886.5" as="targetPoint" />
            <mxPoint x="566" y="886.545454545454" as="sourcePoint" />
          </mxGeometry>
        </mxCell>
        <mxCell id="yvigqvCfVOGot-HgjFOz-35" style="edgeStyle=orthogonalEdgeStyle;rounded=0;orthogonalLoop=1;jettySize=auto;html=1;startArrow=classicThin;startFill=1;endArrow=none;" parent="1" edge="1">
          <mxGeometry relative="1" as="geometry">
            <mxPoint x="720" y="1103.27" as="targetPoint" />
            <mxPoint x="720" y="934.27" as="sourcePoint" />
          </mxGeometry>
        </mxCell>
        <mxCell id="yvigqvCfVOGot-HgjFOz-36" value="" style="sketch=0;pointerEvents=1;shadow=0;dashed=0;html=1;strokeColor=none;fillColor=light-dark(#29b6f2, #a8a8a8);labelPosition=center;verticalLabelPosition=bottom;verticalAlign=top;outlineConnect=0;align=center;shape=mxgraph.office.users.call_center_agent;" parent="1" vertex="1">
          <mxGeometry x="10" y="671.5" width="46" height="55" as="geometry" />
        </mxCell>
        <mxCell id="yvigqvCfVOGot-HgjFOz-37" value="" style="image;aspect=fixed;html=1;points=[];align=center;fontSize=12;image=img/lib/azure2/app_services/API_Management_Services.svg;" parent="1" vertex="1">
          <mxGeometry x="0.5" y="761" width="65" height="60" as="geometry" />
        </mxCell>
        <mxCell id="yvigqvCfVOGot-HgjFOz-38" value="&lt;span style=&quot;font-size: 16px;&quot;&gt;API&lt;/span&gt;" style="text;html=1;align=center;verticalAlign=middle;whiteSpace=wrap;rounded=0;" parent="1" vertex="1">
          <mxGeometry x="10" y="823" width="40" height="30" as="geometry" />
        </mxCell>
        <mxCell id="yvigqvCfVOGot-HgjFOz-42" value="" style="image;aspect=fixed;html=1;points=[];align=center;fontSize=12;image=img/lib/azure2/general/Media_File.svg;" parent="1" vertex="1">
          <mxGeometry x="120" y="700" width="36.57" height="45" as="geometry" />
        </mxCell>
        <mxCell id="yvigqvCfVOGot-HgjFOz-43" value="" style="sketch=0;aspect=fixed;pointerEvents=1;shadow=0;dashed=0;html=1;strokeColor=none;labelPosition=center;verticalLabelPosition=bottom;verticalAlign=top;align=center;fillColor=#00188D;shape=mxgraph.azure.code_file" parent="1" vertex="1">
          <mxGeometry x="524" y="998.43" width="32.5" height="34.57" as="geometry" />
        </mxCell>
        <mxCell id="yvigqvCfVOGot-HgjFOz-45" value="" style="sketch=0;aspect=fixed;pointerEvents=1;shadow=0;dashed=0;html=1;strokeColor=none;labelPosition=center;verticalLabelPosition=bottom;verticalAlign=top;align=center;fillColor=#00188D;shape=mxgraph.azure.code_file" parent="1" vertex="1">
          <mxGeometry x="610" y="850" width="32.5" height="34.57" as="geometry" />
        </mxCell>
        <mxCell id="yvigqvCfVOGot-HgjFOz-46" value="" style="sketch=0;aspect=fixed;pointerEvents=1;shadow=0;dashed=0;html=1;strokeColor=none;labelPosition=center;verticalLabelPosition=bottom;verticalAlign=top;align=center;fillColor=#00188D;shape=mxgraph.azure.code_file" parent="1" vertex="1">
          <mxGeometry x="725" y="998.43" width="32.5" height="34.57" as="geometry" />
        </mxCell>
        <mxCell id="yvigqvCfVOGot-HgjFOz-47" value="&lt;span style=&quot;font-size: 16px;&quot;&gt;Input Files&lt;/span&gt;&lt;div&gt;&lt;span style=&quot;font-size: 16px;&quot;&gt;.pdf&lt;/span&gt;&lt;/div&gt;&lt;div&gt;&lt;span style=&quot;font-size: 16px;&quot;&gt;.jpg&lt;/span&gt;&lt;/div&gt;&lt;div&gt;&lt;span style=&quot;font-size: 16px;&quot;&gt;txt&lt;/span&gt;&lt;/div&gt;" style="text;html=1;align=center;verticalAlign=middle;whiteSpace=wrap;rounded=0;" parent="1" vertex="1">
          <mxGeometry x="86.78" y="745" width="103" height="90" as="geometry" />
        </mxCell>
        <mxCell id="yvigqvCfVOGot-HgjFOz-51" value="&lt;span style=&quot;font-size: 16px;&quot;&gt;JSON&lt;/span&gt;" style="text;html=1;align=center;verticalAlign=middle;whiteSpace=wrap;rounded=0;" parent="1" vertex="1">
          <mxGeometry x="606.25" y="821.98" width="40" height="30" as="geometry" />
        </mxCell>
        <mxCell id="yvigqvCfVOGot-HgjFOz-52" value="&lt;span style=&quot;font-size: 16px;&quot;&gt;JSON&lt;/span&gt;" style="text;html=1;align=center;verticalAlign=middle;whiteSpace=wrap;rounded=0;" parent="1" vertex="1">
          <mxGeometry x="520.25" y="1033" width="40" height="30" as="geometry" />
        </mxCell>
        <mxCell id="yvigqvCfVOGot-HgjFOz-53" value="&lt;span style=&quot;font-size: 16px;&quot;&gt;Updated&amp;nbsp;&lt;/span&gt;&lt;div style=&quot;text-align: left;&quot;&gt;&lt;span style=&quot;font-size: 16px;&quot;&gt;JSON&lt;/span&gt;&lt;/div&gt;" style="text;html=1;align=center;verticalAlign=middle;whiteSpace=wrap;rounded=0;" parent="1" vertex="1">
          <mxGeometry x="716" y="1039" width="82" height="30" as="geometry" />
        </mxCell>
        <mxCell id="yvigqvCfVOGot-HgjFOz-54" value="" style="group" parent="1" vertex="1" connectable="0">
          <mxGeometry x="200.99999999999997" y="907.9899999999998" width="48.48000000000002" height="305.0100000000002" as="geometry" />
        </mxCell>
        <mxCell id="yvigqvCfVOGot-HgjFOz-55" value="&lt;div&gt;&lt;span style=&quot;font-size: 16px;&quot;&gt;&lt;b&gt;&lt;br&gt;&lt;/b&gt;&lt;/span&gt;&lt;/div&gt;&lt;span style=&quot;font-size: 16px;&quot;&gt;&lt;b&gt;&lt;div&gt;&lt;span style=&quot;font-size: 16px;&quot;&gt;&lt;b&gt;&lt;br&gt;&lt;/b&gt;&lt;/span&gt;&lt;/div&gt;I&lt;/b&gt;&lt;/span&gt;&lt;div&gt;&lt;span style=&quot;font-size: 16px;&quot;&gt;&lt;b&gt;A&lt;/b&gt;&lt;/span&gt;&lt;/div&gt;&lt;div&gt;&lt;span style=&quot;font-size: 16px;&quot;&gt;&lt;b&gt;M&lt;/b&gt;&lt;/span&gt;&lt;/div&gt;&lt;div&gt;&lt;span style=&quot;font-size: 16px;&quot;&gt;&lt;b&gt;&lt;br&gt;&lt;/b&gt;&lt;/span&gt;&lt;/div&gt;&lt;div&gt;&lt;span style=&quot;font-size: 16px;&quot;&gt;&lt;b&gt;K&lt;/b&gt;&lt;/span&gt;&lt;/div&gt;&lt;div&gt;&lt;span style=&quot;font-size: 16px;&quot;&gt;&lt;b&gt;M&lt;/b&gt;&lt;/span&gt;&lt;/div&gt;&lt;div&gt;&lt;span style=&quot;font-size: 16px;&quot;&gt;&lt;b&gt;S&lt;/b&gt;&lt;/span&gt;&lt;/div&gt;&lt;div&gt;&lt;span style=&quot;font-size: 16px;&quot;&gt;&lt;b&gt;&lt;br&gt;&lt;/b&gt;&lt;/span&gt;&lt;/div&gt;&lt;div&gt;&lt;span style=&quot;font-size: 16px;&quot;&gt;&lt;b&gt;O&lt;/b&gt;&lt;/span&gt;&lt;/div&gt;&lt;div&gt;&lt;span style=&quot;font-size: 16px;&quot;&gt;&lt;b&gt;A&lt;/b&gt;&lt;/span&gt;&lt;/div&gt;&lt;div&gt;&lt;span style=&quot;font-size: 16px;&quot;&gt;&lt;b&gt;u&lt;/b&gt;&lt;/span&gt;&lt;/div&gt;&lt;div&gt;&lt;span style=&quot;font-size: 16px;&quot;&gt;&lt;b&gt;t&lt;/b&gt;&lt;/span&gt;&lt;/div&gt;&lt;div&gt;&lt;span style=&quot;font-size: 16px;&quot;&gt;&lt;b&gt;h&lt;/b&gt;&lt;/span&gt;&lt;/div&gt;" style="text;html=1;align=center;verticalAlign=middle;whiteSpace=wrap;rounded=0;strokeColor=default;" parent="yvigqvCfVOGot-HgjFOz-54" vertex="1">
          <mxGeometry x="18.480000000000018" y="5" width="30" height="300.01" as="geometry" />
        </mxCell>
        <mxCell id="yvigqvCfVOGot-HgjFOz-56" value="" style="points=[];aspect=fixed;html=1;align=center;shadow=0;dashed=0;fillColor=#FF6A00;strokeColor=none;shape=mxgraph.alibaba_cloud.hsm_hardware_security_module;" parent="yvigqvCfVOGot-HgjFOz-54" vertex="1">
          <mxGeometry width="38.52" height="41" as="geometry" />
        </mxCell>
        <mxCell id="yvigqvCfVOGot-HgjFOz-57" value="&lt;div&gt;&lt;span style=&quot;font-size: 16px;&quot;&gt;&lt;b&gt;&lt;br&gt;&lt;/b&gt;&lt;/span&gt;&lt;/div&gt;&lt;span style=&quot;font-size: 16px;&quot;&gt;&lt;b&gt;&lt;div&gt;&lt;span style=&quot;font-size: 16px;&quot;&gt;&lt;b&gt;&lt;br&gt;&lt;/b&gt;&lt;/span&gt;&lt;/div&gt;I&lt;/b&gt;&lt;/span&gt;&lt;div&gt;&lt;span style=&quot;font-size: 16px;&quot;&gt;&lt;b&gt;A&lt;/b&gt;&lt;/span&gt;&lt;/div&gt;&lt;div&gt;&lt;span style=&quot;font-size: 16px;&quot;&gt;&lt;b&gt;M&lt;/b&gt;&lt;/span&gt;&lt;/div&gt;&lt;div&gt;&lt;span style=&quot;font-size: 16px;&quot;&gt;&lt;b&gt;&lt;br&gt;&lt;/b&gt;&lt;/span&gt;&lt;/div&gt;&lt;div&gt;&lt;span style=&quot;font-size: 16px;&quot;&gt;&lt;b&gt;K&lt;/b&gt;&lt;/span&gt;&lt;/div&gt;&lt;div&gt;&lt;span style=&quot;font-size: 16px;&quot;&gt;&lt;b&gt;M&lt;/b&gt;&lt;/span&gt;&lt;/div&gt;&lt;div&gt;&lt;span style=&quot;font-size: 16px;&quot;&gt;&lt;b&gt;S&lt;/b&gt;&lt;/span&gt;&lt;/div&gt;&lt;div&gt;&lt;span style=&quot;font-size: 16px;&quot;&gt;&lt;b&gt;&lt;br&gt;&lt;/b&gt;&lt;/span&gt;&lt;/div&gt;&lt;div&gt;&lt;span style=&quot;font-size: 16px;&quot;&gt;&lt;b&gt;O&lt;/b&gt;&lt;/span&gt;&lt;/div&gt;&lt;div&gt;&lt;span style=&quot;font-size: 16px;&quot;&gt;&lt;b&gt;A&lt;/b&gt;&lt;/span&gt;&lt;/div&gt;&lt;div&gt;&lt;span style=&quot;font-size: 16px;&quot;&gt;&lt;b&gt;u&lt;/b&gt;&lt;/span&gt;&lt;/div&gt;&lt;div&gt;&lt;span style=&quot;font-size: 16px;&quot;&gt;&lt;b&gt;t&lt;/b&gt;&lt;/span&gt;&lt;/div&gt;&lt;div&gt;&lt;span style=&quot;font-size: 16px;&quot;&gt;&lt;b&gt;h&lt;/b&gt;&lt;/span&gt;&lt;/div&gt;" style="text;html=1;align=center;verticalAlign=middle;whiteSpace=wrap;rounded=0;strokeColor=default;" parent="1" vertex="1">
          <mxGeometry x="350.96000000000004" y="471" width="30" height="300.01" as="geometry" />
        </mxCell>
        <mxCell id="yvigqvCfVOGot-HgjFOz-58" value="" style="points=[];aspect=fixed;html=1;align=center;shadow=0;dashed=0;fillColor=#FF6A00;strokeColor=none;shape=mxgraph.alibaba_cloud.hsm_hardware_security_module;" parent="1" vertex="1">
          <mxGeometry x="362.48" y="466" width="38.52" height="41" as="geometry" />
        </mxCell>
      </root>
    </mxGraphModel>
  </diagram>
</mxfile>
